<?xml version="1.0" encoding="UTF-8"?>
<svg id="Layer_1" data-name="Layer 1" xmlns="http://www.w3.org/2000/svg" viewBox="343.94 0 3428.32 1536">
  <g>
    <path d="M445.69,844.2v-18h57.74v24.75h-4.12l-53.62-6.75ZM503.44,1102.95v24.75h-57.74v-18l53.62-6.75h4.12ZM484.88,965.7c0-46.35,0-93.15-1.24-139.5h39.6c-1.24,45.45-1.24,92.25-1.24,139.5v15.75c0,53.1,0,99.9,1.24,146.25h-39.6c1.24-45.45,1.24-92.25,1.24-139.5v-22.5ZM503.44,961.65h40.83c50.73,0,72.59-17.55,72.59-58.95s-21.86-55.8-64.34-55.8h-49.08v-20.7h61.04c56.5,0,89.5,30.6,89.5,73.8,0,35.1-22.27,66.15-77.13,73.35v-4.05c64.34,5.85,90.74,37.35,90.74,76.05,0,40.95-30.93,82.35-108.89,82.35h-55.27v-20.7h45.37c53.62,0,79.6-22.05,79.6-61.65,0-41.85-25.16-63-82.9-63h-42.07v-20.7Z"/>
    <path d="M772.75,1009.8c17.32-6.75,43.31-14.85,63.93-18.9v16.2c-18.56,4.05-42.89,12.6-55.27,18-37.12,15.75-41.24,32.85-41.24,45.9,0,23.85,14.44,33.3,33.41,33.3,14.44,0,22.68-5.85,48.67-26.1l8.25-6.75,5.77,9.45-11.96,13.05c-24.75,27-38.77,39.6-63.93,39.6-30.11,0-55.27-18.9-55.27-56.25,0-25.2,12.37-45.45,67.64-67.5ZM820.18,1086.3v-102.6c0-44.1-11.55-54.9-38.77-54.9-9.49,0-21.86,1.35-37.12,8.1l16.5-13.95-10.72,38.7c-3.71,13.05-9.9,20.25-21.04,20.25s-17.73-6.75-18.56-18c7.84-34.2,38.36-55.35,79.6-55.35s63.1,21.15,63.1,77.85v95.4c0,20.25,5.77,27.45,15.26,27.45,7.01,0,11.55-4.05,16.08-9.9l8.25,9.9c-9.9,17.1-21.03,22.95-35.06,22.95-22.68,0-37.53-18-37.53-45.9Z"/>
    <path d="M990.11,1111.05c9.07,0,17.32-4.05,28.05-12.6l9.49,12.15c-10.31,14.4-27.22,22.95-47.84,22.95-28.46,0-46.19-16.2-46.19-50.85,0-10.8.41-20.25.41-37.8v-107.1h-34.64v-19.35l51.14-7.2-16.5,14.85,12.37-72.9h23.92l-3.3,78.75v145.8c0,23.4,9.07,33.3,23.1,33.3ZM1023.93,914.4v23.4h-73.42v-23.4h73.42Z"/>
    <path d="M1080.84,1017.45c0,56.7,27.63,87.75,66.4,87.75,23.92,0,44.96-12.6,57.74-35.1l9.9,5.4c-11.14,37.35-37.53,58.05-76.3,58.05-56.5,0-91.97-43.2-91.97-112.05s45.37-112.95,94.45-112.95c36.71,0,67.23,24.75,72.59,58.05-2.06,11.25-8.25,16.65-18.56,16.65-13.61,0-18.97-9-21.86-20.25l-10.31-39.6,18.97,16.65c-14.02-8.1-28.05-11.25-39.59-11.25-35.88,0-61.45,31.05-61.45,88.65Z"/>
    <path d="M1269.74,835.2l-34.23-4.5v-15.75l61.87-20.25,5.77,3.6-1.65,63.9v95.4l1.24,5.85v69.75c0,27.9.41,74.25,1.24,94.5h-35.47c.83-20.25,1.24-66.6,1.24-94.5v-198ZM1332.43,1111.95v15.75h-94.86v-15.75l45.37-9h8.25l41.25,9ZM1429.77,991.8v41.4c0,28.8.41,74.25,1.24,94.5h-35.47c.82-20.25,1.24-65.7,1.24-94.5v-37.8c0-41.85-9.9-55.35-34.65-55.35-20.62,0-37.53,8.1-61.04,31.05h-8.66v-20.25h21.04l-18.56,8.1c19.38-28.35,53.21-50.4,82.49-50.4,35.47,0,52.38,23.85,52.38,83.25ZM1418.63,1102.95l41.25,9v15.75h-94.86v-15.75l45.37-9h8.25Z"/>
  </g>
  <path d="M343.94,192.02h96.6v48.5h-66.6v958.78h66.6v48.5h-96.6V192.02Z"/>
  <path d="M1457.08,1245.86v-48.07h66.6V247.57h-66.6v-48.07h96.6v1046.36h-96.6Z"/>
  <path d="M2855.53,368.64c-26.79,1.44-53.68,1.77-80.51,2.95-22.5.99-45.06,2.02-67.66,3.01-18.96.83-53.81,7.9-70.34-.21-26.59-13.04-24.1-53.94,4.31-62.8,13.8-4.3,41.59.93,57,1.49,51.11,1.86,102.22,3.37,153.43,5.95,5.91-.81,3.05-7.86,4.09-12.45,1.47-6.46,8.63-13.28,14.96-15.11,11.34-3.28,44.01-1.13,57.69-.95,2.62.03,5.16-1.31,7.45-1.26,17.72.4,29.52,11.54,27.82,29.77l203.74-9.01c25.66,2.84,41.15,29.14,26.62,52.14-16.7,26.43-59,12.77-85.19,12.43l-145.16-5.95v33.83c-3.13,3.61-7.48,4.07-12.04,3.76-1.7,10.59,9.22,4.55,9.19,15.78-.03,10.27-12.72,5.93-9.27,19.38,13.93,3.3,12.48,14.2,0,18.39l.75,17.21c13.6,3.67,25.72-3.11,39.95,2.15,11.51,4.25,17.45,20.12,27.9,21.72l489.34.1c-1.46-29.63,19.56-33.61,44.4-31.64,19.55,1.55,28.78,11.64,27.75,31.64,15.18-.76,29.79,7.27,31.59,23.29.79,7.06.91,28.99-.71,35.38-3.86,15.16-18.07,17.17-30.96,20.43l.08,564.45c12.9-1.65,27.59,6.57,30.88,19.5,2.33,9.16,2.05,65,.58,75.84-1.89,13.91-16.96,23.84-30.63,23.5h-1341.38c-17.68.1-33.11-7.16-35.27-26.37-1.53-13.6-1.81-57.42.37-70.31,2.42-14.32,17.52-23.32,31.32-22.82l1.48-4.54c.8-88.87-.97-178.16-.99-266.48-.02-98.15,2.91-197.08-.58-295.21-32.56,2.32-34.6-28.1-31.41-53.2,2-15.69,15.87-25.11,31.4-23.49.03-31.13,21.02-34.21,47.36-31.55,18.84,1.9,25.11,13.91,25.69,31.58h487.1c12.64-1.49,21.07-24.08,36.05-24.08h24.81c-3.04-8.01-.05-11.08,7.61-12.95v-11.76c-14.08-2.45-10.92-15.37,1.48-18.37-.96-4.89,1.7-24.77-1.5-26.91-2.35-1.57-8.55.28-10.6-4.43v-33.83ZM2947.25,389.69v-78.94c0-1.84-8.81-5.01-11.24-5.3-11.4-1.37-42.75-1.33-54.2,0-3.92.46-11.24,4.32-11.24,8.3v75.93h76.69ZM2854.03,335.55c-25.34-1.92-50.7-1.74-76-2.94-22.51-1.07-45.07-1.99-67.66-3.01-19.67-.88-40.33-5.49-60.12-3.1-20.73,2.5-20.33,31.08-2.62,34.26,21.11,3.79,47.23-3.36,68.87-1.09l137.44-7.65.09-16.47ZM2963.78,352.11c33.76,2.45,67.68,2.76,101.49,4.52,32.33,1.68,65.61,6.15,97.77,6.02,23.35-.09,26.33-30.68,8.29-35.39-16.22-4.24-45.02,1.61-62.38,2.36-23.57,1.01-47.32,1.85-70.75,2.93-24.8,1.14-49.68,1.08-74.42,3.02v16.56ZM2935.22,406.23h-51.12v24.06l51.05-12.09.07-11.96ZM2935.21,434.8l-50.96,12.17-.15,11.87,51.05-12.09.06-11.96ZM2890.86,478.4c13.88,1.52,30.2-1.13,44.36,0l-.77-15.06-50.34,12.07c-.43,1.54,6.12,2.92,6.76,2.99ZM2293.17,500.96c2.36-18.01-14.73-16.3-27.89-15.11-10.38.94-11.14,5.11-11.21,15.11h39.09ZM3565.24,500.96c2.68-16.86-12.31-15.98-24.87-15.1-11.37.8-15.21,2.47-14.22,15.1h39.09ZM2834.04,493.76c-15.8,10.87-17.36,21.91-39.36,23.8l-563.82.04c-11.36-.84-9.8,31.82-8.05,37.93.53,1.85,3.42,4.74,5.26,5.26,6.27-.79,13.69,1.76,19.23,1.82,147.61,1.54,296.92-1.59,445.15-1.58,290.9.02,583.55,2.71,873.54,1.72,7.56-.03,16.87-2.55,24.9-2.31,1.74-.65,3.26-1.66,4.27-3.25,3.18-5.04,5.18-40.68-8.04-39.77l-563.99.13c-19.53.64-25.86-17.02-40.63-24.03l-148.46.23ZM2253.93,577.64v566.87h39.24v-566.87h-39.24ZM2866.05,577.64h-556.35v350.35h482.67c5.2-14.24,8.08-33.54,21.14-42.76,1.23-.87,9.13-5.36,9.68-5.36h42.1l2.25-3.74c-12.29-4.89-15.2-16-.19-19.01,3.09-13.87-3.84-9.45-8.09-13.31-5.92-5.37.13-15.99,8.12-15.23l.25-11c-14.37-.82-14.7-16.16-.25-17.57l.26-11.02c-13.71-2.12-13.71-14.92-.78-18.83l.76-9.61c-13.57-3.34-14.31-16.66-.26-19.22l.28-10.97-8.75-2.72c-4.6-8.19,0-13.58,8.46-14.88,5.27-13.14-10.8-11.16-10.34-19.96s11.24-5.61,10.69-15.19c-.48-8.38-9.45-3.25-10.39-10.86-1.31-10.6,8.5-10.61,8.84-11.86v-10.19c-12.25-1.72-12.66-15.57-.31-17.66l1.36-11.15c-.61-3.09-11.28-.01-9.88-11.61.58-4.82,4.5-5.45,8.74-5.6v-21.05ZM2933.72,577.64h-49.62l.77,15.06c13.9-4.18,30.64-6.5,44.01-11.62,1.91-.73,4.43-.88,4.84-3.43ZM3509.61,577.64h-551.83c5.91,7.69,3.83,13.76-5.32,16.48l-.78,9.74c.19,1.04,11.03.14,9.86,10.07-1.2,10.15-12.48,4.41-9.77,17.09,1.36,6.35,9.92-.13,9.16,12.04-.58,9.28-11.96,2.72-9.2,19.44,14.69.68,13.8,15.27.29,17.63l-.34,10.93c13.38,1.63,14.29,16.18.26,17.55l-.26,10.95c13.23,3,13.73,14.84.79,18.9l-.78,9.67c13.69,2.87,14.7,16.8.29,19.16-4.94,15.05,10.94,8.69,10.29,19.99-.48,8.44-10.02,7.04-10.56,9.37-1.62,15.33,1.76,8.47,6.97,12.4,6.48,4.88,1.69,16.62-6.99,16.04l.16,11.11c7.88-1.14,11.08,5.78,8.7,12.61-1.53,4.39-8.77,3.5-8.77,4v24.81l2.26,2.26h42.1c1.68,0,10.9,5.29,12.69,6.86,9.84,8.67,13.26,29.26,18.14,41.26h482.67v-350.35ZM3565.24,577.64h-39.09v566.87h39.09v-566.87ZM2935.22,598.69l-51.12,10.54v13.52s50.24-13.36,50.24-13.36l.87-10.7ZM2935.22,627.26l-49.66,11.25-1.45,12.82,49.67-12.71,1.43-11.35ZM2935.22,655.83l-49.66,11.25-1.47,11.32,49.66-11.25,1.47-11.32ZM2935.21,684.4l-50.25,11.86-.86,12.2,51.04-12.09.06-11.97ZM2935.21,712.98l-51.05,12.09-.06,11.96,50.97-12.17.14-11.88ZM2935.22,743.04l-49.66,11.25-1.47,11.32,49.66-11.25,1.47-11.32ZM2935.21,771.61l-50.24,11.86-.86,12.2,51.04-12.09.06-11.97ZM2935.21,800.19l-50.24,11.85-.86,12.2,51.04-12.09.06-11.96ZM2935.21,828.76l-51.05,12.09-.06,11.96,50.97-12.17.14-11.88ZM2935.22,858.82l-48.63,10.76-2.29,2.22-.21,8.07h51.12v-21.05ZM3008.9,927.99c-2.72-9.23-6.83-29.83-17.38-31.49-51.76,3.39-109.87-4.81-160.87-.16-15.25,1.39-15.33,19.9-20.23,31.65h198.48ZM2309.71,944.53v55.63h1199.9v-55.63h-1199.9ZM3509.61,1016.7h-1199.9v127.81h1199.9v-127.81ZM2222.39,1160.95v85.89s1374.52,0,1374.52,0v-85.89s-1374.52,0-1374.52,0Z"/>
  <g>
    <path d="M2355.5,1091.69v-12.58c0-14.73-.69-23.03-2.08-33.74l-55.44-2.41v-9.37l94.25-16.07,10.39,2.68,8.32,33.47v38.02c0,16.6.69,44.18,2.08,56.23h-59.6c1.39-12.05,2.08-39.63,2.08-56.23ZM2303.53,1138.55l76.23-5.36h13.86l76.23,5.36v9.37h-166.32v-9.37ZM2383.22,1055.54h39.5l-17.32,1.87c22.18-24.9,64.45-39.9,105.33-39.9,20.1,0,40.89,3.75,49.2,9.1,0,12.59-12.47,19.55-40.19,19.55-15.94,0-29.11-2.41-41.58-6.43l-18.71-6.16,33.96-2.68c-42.97,8.57-67.91,21.96-83.85,42.58h-26.33v-17.94Z"/>
    <path d="M2875.94,1068.66c0,6.16-2.08,11.51-4.85,15h-255.71v-11.25h164.93c33.26,0,40.89-6.16,40.89-13.66,0-15.26-33.26-29.19-76.92-29.19s-95.63,14.46-95.63,52.75c0,34.01,44.35,52.22,113.65,52.22,44.35,0,72.07-7.77,97.02-19.01l15.94,4.82c-24.95,19.01-69.3,31.06-132.36,31.06-92.86,0-153.15-24.9-153.15-65.61s72.07-68.28,158-68.28c71.38,0,128.2,18.74,128.2,51.15Z"/>
    <path d="M2946.62,1141.23l-2.77-29.19h36.73l18.71,31.6-33.96-6.16v-9.1c24.25,7.23,50.59,10.98,85.24,10.98,53.36,0,78.31-8.3,78.31-20.62,0-11.51-20.79-17.41-64.45-23.56l-31.88-4.55c-50.59-7.23-83.85-17.67-83.85-35.88,0-19.28,42.27-37.22,119.2-37.22,37.42,0,66.53,4.02,96.33,10.98l-2.77,27.05h-34.65l-13.86-27.05,24.95,4.29v6.96c-22.18-6.69-45.74-10.18-70.69-10.18-42.96,0-65.14,7.23-65.14,18.48,0,12.05,17.32,16.6,64.45,23.3l20.79,2.95c69.3,9.91,95.63,22.49,95.63,39.1,0,19.82-45.04,38.02-133.75,38.02-38.81,0-68.61-3.48-102.56-10.18Z"/>
    <path d="M3246.68,1141.23l-2.77-29.19h36.73l18.71,31.6-33.96-6.16v-9.1c24.25,7.23,50.59,10.98,85.24,10.98,53.36,0,78.31-8.3,78.31-20.62,0-11.51-20.79-17.41-64.45-23.56l-31.88-4.55c-50.59-7.23-83.85-17.67-83.85-35.88,0-19.28,42.27-37.22,119.2-37.22,37.42,0,66.53,4.02,96.33,10.98l-2.77,27.05h-34.65l-13.86-27.05,24.95,4.29v6.96c-22.18-6.69-45.74-10.18-70.69-10.18-42.96,0-65.14,7.23-65.14,18.48,0,12.05,17.32,16.6,64.45,23.3l20.79,2.95c69.3,9.91,95.63,22.49,95.63,39.1,0,19.82-45.04,38.02-133.75,38.02-38.81,0-68.61-3.48-102.56-10.18Z"/>
  </g>
  <path d="M1763.62,338.2v-35.29h107.3v48.15h-6.76l-100.54-12.86ZM1877.67,1099.78l105.41,12.86v35.29h-219.47v-35.29l100.54-12.86h13.52ZM1848.53,691.49c0-129.85,0-260.21-1.98-388.57h48.73c-1.98,127.34-1.98,257.7-1.98,388.57v80.92c0,121.91,0,247.16,1.98,375.52h-48.73c1.98-127.34,1.98-257.7,1.98-388.57v-67.87ZM1945.97,800.91h-75.06v-38.35h74.24c126.93,0,176.13-88.9,176.13-214.66,0-132.72-46.34-205.14-153.6-205.14h-96.76v-39.84h105.56c127.7,0,191.25,96.1,191.25,244.98s-68.17,253.01-221.75,253.01Z"/>
  <g>
    <path d="M462.19,330.5h54.44v24.75h-4.95l-49.49-6.75v-18ZM462.19,614l43.31-6.75h8.25l40.42,6.75v18h-91.97v-18ZM499.31,330.5h17.32l3.71,134.1v167.4h-21.04v-301.5ZM499.72,330.5h36.71l101.05,270h-14.02l95.69-270h21.86l-107.65,301.5h-20.21l-113.42-301.5ZM687.8,614l49.49-6.75h8.25l53.62,6.75v18h-111.36v-18ZM723.68,492.5v-162h37.53c-1.24,45.45-1.24,92.25-1.24,139.5v22.5c0,46.35,0,93.15,1.24,139.5h-38.77c1.24-45.45,1.24-92.25,1.24-139.5ZM741.42,330.5h57.74v18l-53.62,6.75h-4.12v-24.75Z"/>
    <path d="M905.97,632c.83-20.25,1.24-66.6,1.24-94.5v-21.15c0-24.75-.41-38.7-1.24-56.7l-33.82-4.05v-15.75l62.28-27,6.19,4.5-1.24,60.75v59.4c0,27.9.41,74.25,1.24,94.5h-34.65ZM969.49,616.25v15.75h-94.86v-15.75l45.37-9h8.25l41.24,9ZM895.66,333.65c0-17.1,11.96-28.35,27.22-28.35s27.22,11.25,27.22,28.35-11.96,28.35-27.22,28.35-27.22-11.7-27.22-28.35Z"/>
    <path d="M1072.59,632c.83-20.25,1.24-66.6,1.24-94.5v-21.15c0-24.75-.41-38.7-1.24-56.7l-33-4.05v-15.75l56.09-27,6.19,4.5,4.95,52.2v67.95c0,27.9.41,74.25,1.24,94.5h-35.47ZM1136.94,616.25v15.75h-94.86v-15.75l45.37-9h8.25l41.24,9ZM1232.21,496.1v41.4c0,28.8.41,74.25,1.24,94.5h-35.47c.82-20.25,1.24-65.7,1.24-94.5v-37.8c0-41.85-9.9-55.35-34.65-55.35-20.62,0-37.53,9-61.04,31.05h-8.66v-20.25h21.03l-17.73,8.1c19.38-28.35,52.38-50.4,81.66-50.4,35.47,0,52.38,23.85,52.38,83.25ZM1221.08,607.25l41.24,9v15.75h-94.86v-15.75l45.37-9h8.25Z"/>
    <path d="M1362.95,632c.83-20.25,1.24-66.6,1.24-94.5v-21.15c0-24.75-.41-38.7-1.24-56.7l-33.82-4.05v-15.75l62.28-27,6.19,4.5-1.24,60.75v59.4c0,27.9.41,74.25,1.24,94.5h-34.65ZM1426.47,616.25v15.75h-94.86v-15.75l45.37-9h8.25l41.25,9ZM1352.64,333.65c0-17.1,11.96-28.35,27.22-28.35s27.22,11.25,27.22,28.35-11.96,28.35-27.22,28.35-27.22-11.7-27.22-28.35Z"/>
  </g>
</svg>