<?xml version="1.0" encoding="UTF-8"?>
<svg id="Layer_1" data-name="Layer 1" xmlns="http://www.w3.org/2000/svg" viewBox="0 0 1452 1536">
  <path d="M1344.67,92.37v1290.05H135.1V92.37h1209.57ZM1336.1,100.37l-539.55.04c-190.91-.02-383.76-.41-574.91,0-22.37.05-53.98-2.63-75.09-.09-1.07.13-2.3-.04-3.02.98l.5,1271.63c24.94.48,49.74.81,74.6,1.4,7.25.17,14.19,1.32,21.95,1.03,74.47-2.82,149.58-2.01,223.96-2.04,191.21-.08,382.01-.33,573,0,57.64.1,115.48-1.04,173.1,0,16.95.31,33.97,2.97,51,2.1,20.21-1.03,37.05-.78,57-1.01,2.33-.03,16.52-1.27,17.02-1.97.26-34.28,1.51-68.34,1.48-102.6-.28-294.2-2.49-588.07-.14-881.85l-.82-282.18-2.1-1.93c2.15-.9,2.33-.79,2.02-3.5Z"/>
  <path d="M653.6,741.37c-20.34,1.95-41.83,18.22-39.5,40.5.31,2.95,5.53,13.3,7.47,15.52,3.1,3.55,13.28,8.26,18.01,8.04,3.45-.15,13.26-5.45,14.5-8.58.69-1.74-3.28-2.12-4.86-4.13-6.58-8.4,4.86-19.05,11.69-8.69,6.13,9.3-.68,23.12-10.54,27.12-20.89,8.48-45.4-9.74-47.27-31.31-1.6-18.39,11.61-38.53,19.16-54.8,2.35-5.07,3.42-10.69,5.96-16.04s13.79-23.66,17.83-27.17c10.88-9.46,30.39-14.79,44.49-15.51,13.13-.67,26.43.86,39.53.03l-1-72.99c-4.91,2.53-6.41,7.95-9.57,11.92-22.67,28.43-57.59,42.29-93.79,37.96-11.66-1.39-20.69-3.31-29.64-11.39l-1.85,1.15c-.54,19.61.2,39.31-.05,58.88-.48,35.89-1.02,72.12-1.13,107.94-.2,66.81,3.29,137.88,0,204.09-3.64,73.12-53.45,145.68-133.44,140.44-55.46-3.63-136.51-51.6-166.38,23.64-9.08,22.87,2.12,64.09,21.96,78.79,28.43,21.06,84.63,16.31,94.86-22.97,4-15.35,2.43-37.22-12.01-46.87-8.57-5.73-25.76-4.39-31.93,4.94l7.73-.78c10.5,8.9,1.64,27.18-11.63,20.66-11.82-5.81-8.15-21.22.42-28.36,19.44-16.2,45.15-6.58,54.86,15.09,6.29,14.03,2.44,37.27-5.56,50.21-2.28,3.69-7.6,7.38-7.33,11.67,8.17-6.8,16.31-12.67,22.92-21.08,22.32-28.4,34.06-83.09,83.63-58.46,3.84,1.91,12.76,9.41,16.25,8.41,1.74-.5,3.86-4.54,4.87-6.2,6.84-11.21,14.19-32.26,23.36-40.64,15.9-14.52,38.03-20.38,58.76-13.16,9.94-10.5,23.5-16.8,38.2-15.85,3.5.23,19.83,2.67,21.54,4.47,1.18,1.24.86,3.39.98,3.52.16.17,1.71-.94,2.57-.93,10.39.06,34.03,19.04,40.42,27.42,36.45,47.81,32.84,114.8-23.98,144.02-16.98,8.73-48.63,7.93-63.54-4.49-28.65-23.88-22.56-77.3,16.26-83.79,14.41-2.41,38,8.95,37.19,25.2-.12,2.39-2.52,4.48-1.43,6.56,9.88-8.31,11.09-26.01,4.92-36.91-10.82-19.12-32.15-16.58-47.74-27.26-4.44-3.05-19.53-19.52-21.35-19.69-4.03-.38-7.94,12.79-9.45,15.24-6.38,10.32-16.92,22.05-26.4,29.64-.88.71-1.14,2.33-1.74,2.72-3.11,2-14.74,3.63-18.73,3.28l19.74,8.77c10.01,6.64,18.57,23.88,9.75,34.2-2.9-6.37-9.03-1.5-13.5-7.49l5.86-4.13c-4.44-7.88-3.02-13.71-12.18-17.55-3.46-1.44-8.75-.54-7.69-4.83-4.55,1.77-9.58-1.11-14.49-1.08-7.02.05-24.88,3.89-31.5,6.59-5.32,2.18-9.74,8.26-16,8.5-.22,1.41,2.78,1.57,3.77,1.71,18.08,2.49,34.25,5.54,42.96,24.04,6.72,14.28,3.78,24.11-6.22,35.25-5.77,6.42-9.9,8.69-19,7.98-12.01-.93-29.11-14.74-22.72-27.7,6.48-13.13,24.25,1.2,13.31,12.07,13.45,17.23,33.2-1.69,29.67-18.63-.92-4.42-7.47-15.1-11.41-17.58-30.43-19.15-57.69,2.31-84.68,15.03-38.78,18.28-65.82,28.73-110.07,23.72-21.77-2.46-48.59-23.65-60.44-41.56-5-7.57-10.13-27.69-11.87-37.13-10.11-54.65,20.47-117.9,69.03-144.38,31.57-17.22,63.89-13.09,82.86-50.14,10.2-19.93,13.35-36.9,13.81-59.17.67-32.54,2.02-67.31.05-100.05-1.87-31.08-26.52-56.64-59.26-48.18-14.33,3.7-29.37,21.67-30.75,36.34-.21,2.19,1.13,5.15.52,6.37-1.59,3.21-6.04,3.41-8.21.65-8.98-14.97-21.23-28.92-25.27-46.22-3.21-13.77-3.16-40.02,1.44-53.41,14.94-43.49,48.07-72.32,95-75,9.61-.55,18.04,1.54,27.49,1.99.98-25.29-2.52-51.31-1.05-76.55,6.2-105.97,92.18-150.57,167.79-205.47,42.07-30.54,83.95-62.03,121.3-98.45,1.21-1.18,1.47-2.56,2.54-3.62,29.44,15.37,54.39,37.75,77.83,61.15,3.85,6.88,9.84,12.36,13.99,19.01,4.12,6.61,5.44,10.71,10.05,16.95,9.73,13.16,11.17,34.05,17.13,49.04,1.19.09,2.3-.04,3.38-.59,1.2-.61,11.13-9.27,13.04-10.96,46.15-41.08,91.46-83.34,138.23-123.49,2.37-2.04,12.62-13.99,15.27-13.78,17.05,16.26,29.41,35.88,46.47,52.27,19.31,18.55,57.14,45.73,83.62,50.38,15.98,2.81,32.34,2.53,48.33.18l1.92,9.19c-5.78,7.57-12.2,14.79-17.02,23.06-28.95,49.64-26.71,88.1-26.76,143.18-.13,150.09-1.23,300.59,1.37,450.55,4.84,14.1,13.04,27.69,24.55,37.45,4.68,3.97,21.44,16.55,26.99,13.98,1.45-.67,11.55-11.35,13.54-13.48,2.58-2.77,7.6-11.54,11.15-11.84,3.92-.33,11.81,11.82,15.16,14.32l-106.32,122.48c-1.05-.89-1.9-2.19-3.14-2.83-60.79-31.41-102.67-78.47-105.4-149.59-3.97-103.16.64-211.23.89-314.13.1-43.08-3.05-90.24.17-132.91,1.53-20.3,9.14-46.66,15.97-66.03,5.23-14.81,12.46-27.13,22.02-39.47-5.75,1.53-9.45-3.25-13.8-4.71-7.05-2.37-14-2.74-21.46-6.54-26.71-13.6-48.06-31.54-69.21-51.79-5.63-5.39-8.56-6.72-13.06-13.94-1.28-2.05-5.48-13.59-9.43-11.58l-20.04,19.04-1.98,94.51c1.73-1.79,4.94-6.79,5.53-8.96,3.12-11.47,6.84-22.76,12.3-33.7,2.1-4.2,12.51-20.73,16.82-21.13l2.68.91c7.08,7.95,19.52,12.63,21.65,23.88-3.82-2.64-17.33-12.39-21.42-12-1.9.18-5.25,3.27-6.51,4.79-18.06,21.82-29.11,70.7-31.05,98.72-.36,5.12.22,10.36,0,15.49,6-5.68,5.25-15.52,7.52-22.97,3.61-11.89,17.08-40.74,25.48-49.52,12.83-13.41,35.09-19.34,50.9-7.92,16.85,12.17,21.73,35.76,4,49.83-8.91,7.07-19.52,5.19-27.87-1.95-2.31-1.97-2.05-4.15-4.03-5.45-1.4,6.09-4.34,11.52-6,17.54-.45,1.61,1.07,2.94-2.01,2.45v-15.5c0-1.91,8.35-16.4,10.32-18.17,5.34-4.78,2.65,1.16,2.9,2.91.67,4.57,3.49,12.42,8.49,13.55,7.09,1.59,12.58,1,17.25-4.32,9.3-10.59,4.29-27.03-6.61-34.32s-21.68-7.53-33.26-.56c-16.14,9.71-24.35,31.48-30.36,48.64-16.04,45.77-16.73,87.88-16.46,136.05l1.39,2.76c2.93-.13,5.9.14,8.82-.05,18.61-1.26,48.9-5.7,53.06-27.94.56-3.01,1.44-13.31.71-15.73-3.31-11.04-17.28-19.35-28.49-16.05-16.19,4.77-1.12,11.08-.71,15.28.14,1.48-4.09,7.3-4.76,7.47-6.92,1.75-15.38-6.19-13.91-13.06,2.2-10.28,14.99-19.41,25.61-18.97-4.8-6.08-10.95-14.7-11.89-22.6-.59-4.94-1.31-30.59,3.51-32.27,1.01-.35,2.29-.05,3.38-.12-1.41,13.06-2.22,24.62,3.83,36.68,7.16,14.28,23.89,20.74,30.2,34.8,5.58,12.42,5.28,25.45-.32,37.74-6.11,13.43-10.72,27.18-17.52,40.48-10.65,20.83-20.21,34.38-42.5,44.5-2.39,1.08-8.61,1.75-9.53,4.47l-1.15,66.34,12.48-20.01c15.37-18.2,33.01-23.33,56.51-19-5.51-16.84-7.41-30.78-.02-47.51,3.8-8.61,19.28-16.95,16.79-4.17-.61,3.13-3.29,3.24-5.2,5.77-5.14,6.81-7.13,16.16-7.19,24.6-.19,25.28,21.68,34.82,24.52,59.94,3.73,33.09-25.21,64.16-53.47,36.01l-6.42-10.61v16.5c0,16.33,11.61,26.61,19.18,39.82,22.08,38.52,34.25,90.22,12,131.36-1.81,3.35-10.79,14.47-10.13,16.72,1.06,3.56,8.96.57,11.38.67,3.08.13,14.1,5.17,16.91,7.1,7.09,4.88,8.91,11.61,10.35,19.65.99,5.54,4.22,19.18-2.68,21.18,1.64-4.48-3.39-8.91-3.83-11.7-.28-1.78.96-3.81.91-5.8-.14-5.21-5.49-18.48-10.87-20.2-6.84-2.19-15.26-1.55-19.65,4.77-2.08,3-4.89,11.8-4.63,15.42.34,4.77,8.76,17.05,13.32,16.38,1.64-.24,3.51-2.5,5.74-1.85l-1.01,5.01c-5.05-2.32-6.49,4.04-12,2.55-16.25-4.4-21.28-32.78-5-41.08,1.27-3.02-8.74-2.63-10.25-2.24-3.62.93-21.05,14.4-24.29,17.7-4.74,4.83-7.46,13.75-15.45,12.04,4.51-17.56,22.98-24.94,35.46-36.02,20.17-17.92,30.9-43.2,23.26-70.2s-29.78-35.46-43.17-56.83c-2.53-4.04-10.53-20.46-9.51-24.34l4-1.05c1.9-1.29-.56-5.46,2.93-4.54,1.87,6.09,3.28,14.81,6.17,20.34,9.7,18.55,31.52,30.81,40.65,50.35l5.18,11.3c.03-2.79.12-5.57-.12-8.37-1.57-18.63-9.76-41.86-18.69-58.31-12.06-22.18-26.3-30.54-24.17-59.81.91-12.54,7.64-28.99,21.73-31.28,10.42-1.69,22.42,10.34,12.27,18.76-1.47-10.93-14.75-8.76-18.23.28-3.74,9.71,12.39,20.43,21.02,19.11,27.91-4.27,31.9-43.53,13.23-59.92-32.4-28.45-68.34,1.46-75.76,36.31-1.38,6.47-.5,12.74-3.33,18.67,1.28,35.38-1.34,71.11-.39,106.39.52,19.25,3.43,36.64,11.46,54.15,1.44.01,1.25-1.77,2.6-2.86,4.5-3.62,8.64-4.14,10.59-10.92,5.54-3.23,16.03,8.68,19.77,12.28-14.81,13.77-28.65,28.71-42.49,43.49-8.73,9.32-29.44,28.7-35.49,37.51-1.83,2.66-1.45,4.97-2.26,6.25-1.51,2.38-23.55,21.2-28.25,26.25-8.28,8.88-18.44,19.96-26.46,29.54-3.55,4.24-7.69,12.54-10.59,15.41-1.89,1.88-4.75,1.82-5.94,5.04-14.82-16.29-26.7-35.28-40.53-52.45-16.46-20.43-40.56-48-61.47-63.53-4.12-3.06-9.6-4.05-13.43-7.6-.56-2.37,6.9-7.6,8.9-9.93,18.04-21.09,20.7-31.76,24.04-58.96,8.98-73.32-.58-152.73,3.04-227.06l-1.55-3.45h-75ZM786.6,667.37h30c3.22-3.24.57-8.27.45-12.45-1.9-65.19,2.84-132.13.09-197.09-2.54-59.99-34.96-105-81.55-139.45-2.57-1.9-8.06-8.35-10.97-8.08s-2.83,3.86-4.5,5.6c-2.82,2.94-21.54,16.75-21.03,18.96,4.87,3.41,10.25,6.43,14.92,10.11,39.32,30.92,67.49,74.55,70.13,125.87,3.22,62.56-2.08,128.23-.54,191.07-.09,1.59,1.65,5.08,3,5.47ZM1163.75,1096.02c2.1-1.96,17.41-19.8,17.32-21.16-17.42-8.6-32.91-17.6-43.39-34.57-9.02-14.61-14.49-28.12-15.62-45.38-1.56-23.76.18-48.37.1-72.02-.45-131.19-1.7-261.4-.03-393.08.26-20.5-.01-37.37,5.26-57.66,6.12-23.58,14.81-47.1,28.51-67.3-.25-3.36-15.63-3.14-19.04-3.74-15.15-2.65-41.37-13.36-54.67-21.33-29.37-17.6-54.11-43.08-75.58-69.4-4.98,4.65-9.49,9.86-14.49,14.49-7.12,6.59-12.03,4.32-3.98,14.96,24.72,32.69,66.15,67.45,105.97,79.03,10.17,2.96,21.42,4.82,32,5.5,1.35,5.19-1.59,4.55-3.25,7.24-1.54,2.49-3.46,6.8-5.15,9.87-16.41,29.89-27.2,65.04-28.59,99.4.69,157.23-1.46,314.72,1.09,471.89,6.29,35.04,24.03,63.91,55.02,81.98,1.36.79,10.82,5.61,11.46,5.65,1.95.11,5.47-2.89,7.06-4.37ZM714.09,434.37c-4.3-10.69-11.33-20.93-18.96-29.53-8.1-9.12-29.05-28.23-40.3-31.7-10.29-3.17-22.2,11.91-30.71,16.24l27.01,4.47c23.46,8.86,47.03,20.7,62.97,40.52ZM656.75,496.72c4.06,4.14,12.3,17.34,13.9,22.6,1.3,4.26.01,9.99.46,14.54,1.9,19.11,18.43,21.25,34.49,19.51,7.54-.82,24.6-12.63,25.52-20.48,2.32-19.76-3.34-59.27-9.5-78.54-9.25-28.89-65.34-57.54-94.19-58.6-2.8-.1-6.56,1.08-9.65.8-20.12,22.74-12.84,59.86,4.33,82.31,11.43,2.55,26.37,9.43,34.64,17.86ZM616.09,479.36c.96-.83-9.05-15.26-10.04-17.45-5.22-11.55-6.64-25.34-5.85-37.94l5.4-20.6c-3.03,2.59-7.36,4.28-10.44,6.56-40.31,29.79-52.19,61.65-55.08,110.92-6.87,117.41,4.34,239.48-.95,357.05-2.11,47-8.55,77.3-43.03,109.97-24.49,23.2-54.36,30.82-83.74,44.26l-8.27,2.22c9.13,1.19,19.08,2.44,28.03,4.48,20.97,4.78,76.3,26.27,94.26,17.52,5.87-2.86,15.09-6.36,20.75-10.44,24.94-17.97,29.13-69.09,29.01-97l-.83-325.27c-33.49-34.9-44.33-84.51-9.25-122.81,12.75-13.92,31.57-20,50.02-21.48ZM899.75,406.49c-4.7.41-12.75,11.92-16.13,14.9-12.38,10.9-25.16,19.16-36.91,32.09-5.55,6.1-2.69,5.95-2.57,12.35,1.32,66.79-1.46,133.91.42,200.62l55.6.49.8-1.2,1.19-256.84c-.18-1.38-.8-2.55-2.4-2.41ZM514.1,478.38c-1.96-.46-2.37,1.01-3.41,2.08-11.33,11.73-23.81,37.43-26.49,53.51-7.57,128.59.16,258.08-4.21,386.79-3.6,17.26-9.12,34.09-17.72,49.28-3.07,5.42-6.69,10.61-9.16,16.33,11.85-10.94,23.14-25.18,29.18-40.31,5.71-14.28,10.81-33.87,11.8-49.2,3.42-52.68-.1-112.52-.02-166.05.09-58.58-3.18-122.82-.01-180.98,1.25-22.91,5.92-41.25,14.85-62.15,1.41-3.29,3.58-6.14,5.19-9.3ZM626.99,519.25l.42-11.7-10.34-18.65c-8.69-5.61-15.89-2.53-24.97-.52-.24,2.64-.05,1.62,1.5,1.97,12.49,2.85,21.97,8.3,25.27,21.75,1.48,6.03-1.77,8.35,8.13,7.15ZM618.1,485.38c3.83,5.05,12.54,16.32,13.05,22.49.45,5.36-4.18,11.9,2.46,14.46,13.58-14.28,4.21-37.07-15.51-36.95ZM641.09,528.37c1.74-5.07,8.62-9.34,10.25-14.27,3.22-9.8-2.32-20.13-12.23-22.73,2.33,6.65,5.14,12.97,3.76,20.26-.91,4.77-7.53,12.2-1.78,16.73ZM616.1,520.37c1.73-8.42-3.88-15.42-9.99-20.52-13.09-10.91-25.94-5.72-37.01,5.02,6.07-.14,11.16-2,17.53-1.54,3.72.27,6.82,1.76,10.46,2.03l-2.5-6.99c4.98,3.4,12.31,20.15,17.22,21.78,1.35.45,2.89.2,4.29.22ZM653.75,530.01c8.34-8.23,9.69-16.53,3.34-26.64l-1.77,11.71c-2.4,6.35-14.23,12.23-13.27,18.75.84,5.66,9.5-1.66,11.7-3.83ZM591.1,508.36c-1.55-3.07-8.29-2.24-11.39-1.88-14.18,1.64-24.64,10.6-26.6,24.89,5.64-3.9,8.95-8.32,15.76-10.73,3.1-1.1,6.68-.88,9.6-2.4,4.8-2.49,6.09-10.34,12.62-9.89ZM595.09,508.37c-3-.77-1.85,2.18-3.28,3.72-1.61,1.74-7.71,2.97-6.71,6.76.37,1.41,7.11,1.93,9.7,3.32,2.33,1.25,7.27,7.58,8.77,7.2,8.89-8.06,1.41-11.14-4.48-17.57l-3.98,1.57-.02-4.99ZM665.09,518.37c-2.68-.31-1.57.1-2,1.48-3.15,10.09-8.05,14.07-17.27,18.74-1.39.7-6.67.28-4.24,2.79,2.18,2.26,11.25.08,14.07-.96,8.44-3.1,12.3-13.72,9.43-22.06ZM581.1,521.38c-4.03.8-7.81,2.62-11.75,3.76-1.57.45-3.88-.2-5.04.45-.76.43-11.12,11.95-11.67,12.82-3.43,5.46-3.6,15.68-3.53,21.96,2.34.65,1.69-.61,2.28-1.28,4.07-4.59,12.81-13.23,15.74-17.19,2.19-2.97,3.83-8.82,6.54-12.46,2.17-2.91,5.55-4.9,7.43-8.06ZM574.1,537.37h19.5c.58,0,3.54,2.96,5.49,2,1.37-19.37-23.56-21.69-24.99-2ZM634.1,532.36c1.62-2.21-9.6-10.41-12.99-8.98l5.09,10.92,7.91-1.94ZM622.09,536.37c1.26-1.54-5.03-8.07-6.69-8.89l-5.29,3.4,11.99,5.49ZM605.1,540.37h14c.57-2.33-.47-1.65-1.27-2.29-4.79-3.84-10.62-4.43-12.73,2.29ZM635,535.46c-1.49-1.02-8.01,1.99-7.89,2.39,2.37,3.66,3.89,7.49,8.99,7.5l-1.1-9.9ZM640.1,544.37c-2.95,2.92,7.43,6.65,9.59,6.91,7.88.97,18.22-4.88,16.4-13.92l-5.94,6.61-20.05.4ZM575.1,558.36l22.89-8.63c-1.02-14.19-18.92-9.48-27.58-4.55-11.9,6.76-18.71,16.66-17.35,30.73.72,7.41,6.2,12.36,8.05,19.45l2.47-14.01c4.59-7.83,4.54-16.58,7.48-24.51,1.01-2.74,1.55-6.45,5.04-5.47l-.99,6.99ZM648.1,565.38c-13.53-3.12-18.65-12.72-22.49-25.01-3.33,7.17,3.22,12.81,7.49,17.5l-1.96,1.93c4.1,6.23,7.72,14.23,15.7,7.85.78-.63,1.85.03,1.26-2.27ZM617.1,542.38c-3.33.08-11.74.13-12.82,3.68-.52,1.71-.43,5.62,1.8,4.82l11.02-8.5ZM730.1,564.87c.87-4.11,0-14.06,0-19,0-.41,2.57-1.75-.49-1.49-2.09,3.89-6.27,4.26-8.8,5.95-5.08,3.39-9.11,17.79-19.65,15.98l-.96-4.36,6.9-3.57c-6.73-1.09-13.61,1.92-20.02.5-2.36-.53-11.03-4.73-12.53-6.46-1.6-1.84-3.58-14.23-5.95-2.05-5,25.58,25.47,31.53,44.5,25.51,4.06-1.29,16.12-6.91,16.99-11.01ZM618.09,546.37c-8.2,2.29-11.72,9.11-7.98,16.99l7.98-16.99ZM622.09,570.37c-.26-2.48-1.67-3.72-2.01-6.47-.7-5.68,2.06-11.05.53-16.53-4.18,7.53-10.66,19.88,1.49,22.99ZM651.95,555.21l-17.85-4.84c5.77,13.94,18.77,14.85,27.99,3.49-2.33-.52-7.24-1.06-9.34-.5-.8.21-.63,1.72-.8,1.85ZM636.1,571.36l-11.49-17.98c-3.91,7.55.43,23.29,11.49,17.98ZM582.11,580.36c1.83.43,1.94-.61,2.83-1.65,2.36-2.75,3.36-5.76,6.66-8.34,4.36-3.41,15.81-5.55,8.05-13.05-3.81-3.69-12.76-.37-17.09,2.01-12.31,6.8-16.53,23.5-16.55,36.53s13.67,19.91,21.08,28.5c-.41-2.9-2.86-4.67-4.01-7.47-3.94-9.55-2.27-15.49-2.99-25.01-.42-5.58-3.69-11.54-1.24-17.28.61-1.43.26-1.5,2.26-1.24l1.01,7ZM665.09,558.37c-1.92-1.36-7.42,7.71-8.05,9.47-2.67,7.39,5.35,19.25,11.13,23.96,13.04,10.63,26.5,12.64,42.49,7.62,2.03-.64,9.69-3.87,10.98-5.02,3.45-3.07,9.14-17,7.97-22.03-6.6,5.7-15.21,8.19-23.51,10.58-1.44.42-3.36-.46-4.04-.07-.87.5-1.58,3.03-3.58,4.35-4.83,3.19-9.94,2.68-13.14-2.37l1.76-4.5c-10.17.74-18.33-11.39-23.99-18.51l2.98,1.5-1-4.99ZM615.09,572.38l-9.48-4.6c-1.58-.06-11.06,4.02-12.46,5.14-13.42,10.68-11.87,41.97.4,53.5,5.5,5.17,15.68,8.05,23.03,8.97l-8.03-6.97c-7.34-6.94-7-17.39-10.38-25.62-1.51-3.66-8.99-8.04-3.09-12.42l1.01,4.47,2.03.06c2.52-6.31,5.05-16.99,11.59-20.41,1.99-1.04,4.9-.45,5.37-2.11ZM652.09,572.37c-11.22,1.93-10.46,14.79-7.93,23.44,4.55,15.54,30.64,29.75,46.01,26.13,8.59-2.02,18.6-13.08,24.92-19.08-5.88.13-12.73,3.58-18.5,3.59-3.08,0-5.81-1.11-8.95-1.14-9.8-.09-18.35,2.2-27.54-1.97-1.4-1.4.06-1.83,1.48-1.99,3.42-.4,7.5.92,10.52-1.49-10.88-6.05-18.75-14.65-20.01-27.5ZM626.1,577.38c-5.2.97-10.02-2.92-14.04,1.46s-9.36,13.71-9.97,20.02c-1.26,13.25,12.47,33.64,25.28,37.73,8.48,2.71,17.11,1.39,25.72.76l-10.69-3.8c-7.82-3.6-12.29-12.54-18.27-17.73-3.06-2.66-9.55-4.98-11.03-9.98s8.2,4.38,8.98,3.51c-.27-4.28-2.98-6.73-2.92-11.34.09-7.11,3.92-14.34,6.93-20.65ZM639.1,577.37c-17.98-.86-17.05,22.19-11.77,34.27,4.83,11.06,21.14,23.54,33.33,23.76,2.54.04,20.86-5.58,21.97-7.01.58-.74.61-1.1.47-2.02-6.08-.06-18.31-2.89-23.37-6.13-2.2-1.41-2.76-4.16-4.91-5.18-2.9-1.37-12.5,3.28-10.71-3.69-6.1,1.1-7.3-2.39-4.8-7.33.82-1.63,2.83-1.48,2.82-2.19-.01-1.47-1.92-2.86-2.54-4.47-2.84-7.35-3.57-12.48-.49-20ZM699.09,583.38c-3.16-.76-9.94-3-10.99,1.47.58,2.96,10,1.25,10.99-1.47ZM452.09,772.37c-.59-32.32-22.68-58.35-56.54-57.04-24.72.96-53.44,21.73-58.21,46.78-.68,3.54.42,7.31-1.25,10.75,1.81,2.13,1.54.31,2.1-.91,14.78-32,40.97-48.63,76.71-37.87,9.39,2.83,16.87,9.6,23.61,16.39l13.58,21.91ZM810.47,1062.01c3.52,5.56,7.27,12.34,12.12,17.37,5.46,5.67,12.48,9.44,18.03,15.07l3.06-1.01,22.39-26.56c-23.33-17.23-36.89-41.89-47.73-68.23l-1.27-17.73.02-236.02c-.13-1.03-.55-1.98-1.38-2.62-3.52-2.77-22.52.57-28.13-1.44l-2.98,1.52c-1.62,26.33.21,53.07.18,79.39-.05,51.39-2.99,105.85-.66,157.12,1.53,33.62,8.54,54.96,26.36,83.15ZM844.1,741.87v242c0,1.45,7.43,26.59,8.15,27.85,5.16,9.01,15.61,16.55,20.89,24.11,1.15,1.65.89,3.69,2.38,5.62s9.38,6.85,11.57,5.46c1.03-.66,4.39-6.34,5.99-8.07,4.42-4.78,23.07-20,23.11-24.95-6.44-13.58-12.91-25.87-15.09-41.01l-.13-229.87-.8-1.2c-16.42-1.12-33.1-.03-49.61-.39-2.54-.06-4.85-2.02-6.46.45ZM546.1,1075.38c-5.89.99-9.73,6.05-14.47,9.02-44.85,28.05-95.36-6.75-141.98-10.07-27.37-1.95-58.01,6.58-76.51,27.57-1.18,1.34-9.79,12.62-9.02,13.47,10.31-7.21,18.59-18.09,30.62-22.87,56.28-22.38,108.65,18.09,162.76,11.76,17.54-2.05,37-16.15,48.61-28.88ZM639.1,1110.38c-2.61-.35-4.51.63-6.7,1.79-23.38,12.33-28.93,38.81-43.47,58.53-4.16,5.64-9.17,8.93-13.83,13.66,8.82-1.42,17.83-13.6,22.63-20.86,7.39-11.18,15.47-28.29,23.93-38.07,4.59-5.31,12.61-9.84,17.44-15.05ZM653.09,1152.36l-1.9-22.6c1.53-2.82.99-19.23-1.59-19.37-2.22,1.86-10.21,4.36-10.31,7.24,4.87,12.55-2.33,29.52,13.8,34.74ZM720.1,1169.37v-16.5c0-.61-6.49-9.57-7.01-10.09-1.43-1.41-2.62-.46-2.81-.64-.76-.7-1.82-4.82-3.62-6.82-3.43-3.8-14.23-11.48-18.85-14.15-4.09-2.36-8.27-3.39-12.69-4.8.76,11.98-1.49,23.66-3,35.47l1.99,1.05,15.48-13.52c8.37,11.04,1.96,21.63-11.48,19.51l6.99-6.5-18.99,5.99,3.89-43.34c-.71-2.58-11.14-4.69-13.89-4.65l3.52,46.97c2.91,5.53,12.69.45,15.47,6.02l-6.99,1,11.52,3.89,1.48-1.87-3.99-1h5.99c-2.2,5.33,4.25,9.84,7.22,14.27,10.08,15.02,13.69,40.23-3.28,52.16-13.78,9.68-37.41-.97-29-19,3.42-7.33,8.18-2.44,14.06-3.93-11.28-7.95-20.03-9.56-32.7-3.71-22.39,10.35-24.51,44.88-8.2,61.6,18.89,19.35,51.88,15.36,72.23.43,32.66-23.95,37.68-65.02,22.18-100.82-1.46,2.72-2.97,7.59-3.42,10.57-.57,3.7.16,9.24-.48,12.43-1.29,6.46-8.26,13.11-6.61,20.99-8.15-8.26.37-17.41.74-26.78.35-9.02-4.31-19.78-9.28-27.19-1.79-2.67-6.74-4.29-5.44-10.03l10.02,4.47,8.97,18.53ZM636.09,1121.37c-1.33-1.47-7.97,5.23-8.98,6.49l7.5,6.49c2.26.42,1.38-.99,1.49-2.48.25-3.47-.18-7.04,0-10.51ZM590.11,1159.37c8.91-3.75,7.8-28.76,3.92-34.43-1.89-2.76-10.75-1.95-10.9-.08,4.22,11.02,5.59,22.86,6.98,34.51ZM611.1,1125.38l-11.99-2.01,3.5,13.99c2.96-4.57,3.76-8.75,8.49-11.99ZM571.1,1127.38c-2.19.1-4.39,2.13-6.01,3.48-14.27,11.8-22.12,35.56-30.98,51.5l3.96,1c2.98-7.82,8.12-13.91,11.9-21.63,6.11-12.51,9.06-25.38,21.14-34.35ZM580.09,1127.37c-.56-.67-5.56,2.73-6.06,3.42-1.92,2.63.64,17.59,1.34,21.8,1.01,6.14,3.11,12.62,4.24,18.78.77-.02,5.66-3.49,5.98-4.01,3.06-5.02-5.58-32.65-5.5-39.99ZM657.1,1162.36c-7.23-5.95-14.75-9.11-21-16.49-3.09-3.65-12.71-22.4-13.53-7.54,11.26,9.15,19.04,21.92,34.53,24.03ZM564.1,1183.36l11.87-6.6c-3.37-12.59-7.52-25.25-7.89-38.4l-8.02,9.55,4.04,35.44ZM557.09,1160.37c-2.34-2.84-7.28,14.49-8.92,15.46l5.52,12.6c1.27-.1,2.8-.4,3.83-1.15,4.52-3.25-.95-21.32-.43-26.92ZM506.73,1174.77c-7.94-4.34-17.26-4.25-26.05-3.31-.96.1-3.76.45-3.58,1.9,17.27-1.49,31.38,10.85,46.99,15.52,7.38,2.21,14.47,2.38,22,3.49l-39.36-17.59ZM494.1,1209.36l-14.48-31c-3.13-2.8-8.92.41-12.04,2-1.43,1.76,16.26,27.33,16.53,32.01l9.99-3.01ZM499.22,1208.24c12.41,1.27,6.56-13.44,3.28-19.77-4.32-8.33-10-8.56-18.39-10.1l15.11,29.87ZM548.1,1187.36l-3.97-5.52c-3.06-1.68-4.41,3.43-1.02,5.03,1.6.75,3.31.53,4.99.5ZM472.33,1204.14c-.62-1.08-.16-3.59-.98-5.53-1.27-2.99-7.78-9.82-9.76-13.23-2.84,3.33-3.35,7.75-5.3,11.69-2.62,5.3-2.68,4.29-4.62,10.29-1.26,3.91-4.75,7.03-1.58,9.99-1.75-.17-3.02.06-4.56.95-8.92,5.17-20.16,26.92-31.52,32.48l-9.91,6.57c3.76-.45,7.71-1.9,11.26-3.22,8.39-3.13,42.1-18.3,47.09-23.7.96-1.04.45-2.62.76-2.9.51-.46,9.21-.44,9.89-5.16-8.18,3.59-16.92-1.9-10.5-9.99l3.98,4.97,1.52-5.99c3.38,2.68,6.13,6.2,10.92,3.92.47-2.57-.72-5.17-2.1-7.25-1.46-2.2-4.37-3.49-4.6-3.9ZM512.08,1201.36l3.91-8.29-7.37-5.71c-3.63,2.91-.04,6.12,1.01,8.97.85,2.3-.76,5.8,2.44,5.03ZM493.09,1214.37c-4.87.53-12.59,4.04-16.69,6.8-1.29.87-2.74,1.12-2.29,3.2,5.2-3.39,11.68-4.59,17.04-7.49,1.4-.76,2.46.08,1.95-2.5Z"/>
  <path d="M1227.1,298.37c-2.66,3.38-2.99,6.41-4.97,9.53-27.71,43.62-78.26,47.93-117.95,16.89-13.91-10.88-22.82-26.99-34.57-39.43-9.09-9.63-9.49-8.44-21.98-10.02-3.04-.38-3.03-3.99-7.2.89-3.59,1.02-4.14-3.07-2.03-5.57,4.4-5.24,12.58-5.68,18.67-3.76,17.33,5.45,24.63,20.41,35,33.72,3.04,3.91,6.54,9.47,9.5,12.78,4.59,5.12,13.16,10.27,18.51,14.98.2-3.24-3.75-4.18-5.38-6.11-15.97-18.79-13.38-50.14,7.46-64.33,13.16-8.96,37.32-6.72,44.44,9.43,3.69,8.39,1.53,12.72.99,21,13.8-11.37,13.01-27.7,3.94-41.93-12.99-20.37-44.94-21.83-63.37-8.5-2.16,1.56-4.67,5.75-5.34,6.16-1,.62-2.77.19-4.27,1.22-1.6,1.09-4.76,5.75-6.1,5.98-7.84-3.52-3.34-7.91,1.31-11.75,25.23-20.82,62.21-27.55,83.74,1.91,11.07,15.14,11.87,35.23-1.89,48.93-9.38,9.34-35.09,9.31-31.84-7.83,1.66-8.74,8.69-10.35,16.31-8.2-5.14-15.82-20.04-16.17-33.23-9.73-20.8,10.17-15.32,45.3-.24,58.71,27.33,24.29,76.75,10.77,90.24-22.71,5.63-13.96,9.59-40.97,3.06-54.58-2.37-4.94-9.19-16.25-12.35-19.62-21.43-22.86-45.27-38.29-76.39-20.47-19.85,11.36-29.39,26.18-56.12,18.96-6.42-1.73-21.7-11.87-26.33-11.51-2.58.2-19.19,9.48-22.54,11.55-4.32,2.66-8.53,5.78-12.08,9.41,13.29-3.07,24.2-6.02,37.78-1.27,11.06,3.87,13.53,17.96,3.94,15.11-1.93-.57-4.66-4.91-8.72-6.32-9.96-3.46-18.11-2.5-28.03-.04-43.61,10.83-64.7,54.76-105.71,70.29-33.35,12.63-64.24,17.1-96.94-.58-7.24-3.91-16.81-9.78-17.33-18.67,7.38,2.42,13.39,8.24,20.33,11.67,1.34.66,10.51,4.68,11.12,4.71,3.57.19,15.5-3.18,19.24-4.72,31.7-13.02,39.57-53.28,7.26-70.61-7.93-4.25-13.68-2.44-21.93-.55l9.68,3.31c20.37,31.94-16.12,57.78-45.59,38.09-18.59-12.42-17.12-42.5-34.6-59.4-26.95-26.07-77.61-29.5-100.49,3.49-6.18,8.91-10.78,25.9-4.43,35.43,11.4,17.12,42.42,17.22,40.44-7.94-7.28.47-17.09,1.03-14.81-9.27.94-4.26,7.12-7.62,11.08-6.57,2.88.77,9.82,8.43,10.52,11.56,1.67,7.45-.17,18.42-5.26,24.32-9.48,11.01-23.36,9.16-35.96,5l-1.33,2.26c.39,9.96-4.47,19.46-11.41,27.05-4.88,5.33-8.55,7.14-15.83,7.66-1.14-5.64,5.11-6.21,8.49-9s9.83-13.36,10.41-17.59c2.55-18.63-9.72-31.3-5.22-50.22,1.6-6.71,8.41-22.03,13.27-26.73,2.75-2.66,7.25-3.74,9.03-7.45-5.22-.02-8.31,4.99-11.64,6.85-3.69,2.07-9.03,3.24-12.74,5.26-46.89,25.65-93.24,90.33-152.97,53.73-27.87-17.08-34.47-50.34-60.33-66.67-12.12-7.66-22.65-9.23-35.24-1.59-.93.56-8.07,6.07-8.75,6.75-4.27,4.31-6.8,17.19-6.35,23.17.14,1.83,4.66,9.46,6,11.01,1.42,1.64,10.14,8.29,12.07,8.92,9.31,3.08,22.84-6.72,27.14-14.75,1-1.87.9-5.34,2.27-6.72,1.05-1.06,4.66-1.53,5.44-.87.53.45,1.95,10.89,2.9,13.59,7.06,20.04,38,45.31,59.69,45.31h20.5c.45,2.72-.5,1.72-2.18,2.27-22.46,7.31-53-4.52-69.71-19.88-7.67-7.04-12.08-15.11-16.61-24.39-.58-.28-.86,2.99-2.2,4.06-1.45,1.15-15.27,8.4-17.03,8.7-11.04,1.88-27.63-.78-39.63.37-40.3,3.86-89.45,22.58-114.61,55.39-12.39,16.17-24.38,44.2-27.9,64.12-.6,3.38,1.36,5.33-3.12,6.36v-19.5c0-3.32,4.21-17.44,5.52-21.48.96-2.98,5.41-10.67,5.41-12.52,0-2.49-3.48-6.16-3.95-9.97-2-15.91-.52-29.75,11.01-41.77,3.7-3.86,9.75-6.3,13.53-10.75,4.27-5.04,5.39-11.92,9.06-16.94,9.99-13.69,28.14-15.63,43.43-11.07-7.13-9.61-12.54-18.07-7.78-30.27,1.65-4.22,3.56-9.18,8.78-7.72-1.36,9.86-6.68,11.68-1.87,22.37,5.17,11.48,30.07,26.63,42.37,26.63h33.5c-3.02-6.13-7.96-9.93-9.72-16.78-2.25-8.74.26-14.72,1.72-23.22-3.11.84-4.74,3.19-8.02,4.47-14.04,5.5-40.69,4.23-39.97-15.47.62-.72,7.81,5.39,9.31,6.18,26.27,13.67,53.73-23.14,86.74-15.74,25.44,5.71,28.61,19.84,41.53,38.47,6.53,9.41,14.07,18.18,19.92,28.09,5.62-2.35,1.03-2.83.49-3.7-8.68-14.05-5.56-35.7,4.48-48.31,8.51-10.69,24.58-16.06,37.92-12.89,20.63,4.9,21.77,20.21,37.7,31.29,5.95,4.14,5.94,5.76,12.88,1.61,4.1,7.63-6.32,6.78-11.26,5.77-2.92-.59-15.06-9.47-15.72-8.77.77,10.48-9.6,22.09-20.22,17.72-13.23-5.44-.17-22.99,10.21-12.73.59-10.2,6.82-10.66-2.47-19.02-17.6-15.83-46.22-7.7-49.44,16.61-1.87,14.13.38,27.7,11.98,36.85,10.85,8.56,37.22,10.78,50.17,6.3,3.32-1.15,4.14-3.5,5.78-4.22,7.3-3.19,9.27-2.94,17.08-7.93,22.68-14.47,44.62-34.91,68.58-48.42,26.76-15.09,73.62-19.93,101.54-6.89,16.68,7.79,29.28,22.43,35.29,39.72,3.78-26.03,23.38-42.06,48.45-46.56,35.5-6.37,78.23,8.91,86.06,47.55l6.96-22.52c2.88-6.54,8.79-15.13,16.22-16.8,1.73-.39,15.02-.05,13.33,2.34-3.97,2.45-8.28,4.1-11.99,7.02-12.28,9.65-14.08,21.38-17.05,35.95-2.88,14.14-3.78,28.48-8.97,42.03,1.83.17,2.24-1.77,3.1-2.9,19.65-25.7,30.37-67.92,58.84-84.16,14.89-8.49,38.6-9.72,54.27-3.17,4.57,1.91,15.54,10.48,19.71,10.21,18.08-8.11,37.38-13.51,57.09-15.98,36.77-4.6,69.16.52,97.5,25.47,41.75,36.76,56.6,114.78,30.95,164.05,10.42,28.59,3.73,52.63-13.53,76.39-16.35,22.51-32.17,40.68-42.13,67.87s-8.57,65.75,20.34,80.06c21.3,10.54,45.27-5.7,38.09-29.09-1.61-5.26-7.47-8.52-12.34-10.66-11.49-5.04-11.08,5.51-21.39,5.89.37-3.01-1.55-6.68,2.01-7.5l-2.01-1,4.99-3.49c-6.4-.7-9.68-4.53-10.76-10.75-.31-1.78-.88-12.84-.22-13.26,3.52-2.25,7.41,9.77,9.15,12.33,5.03,7.35,10.83,4.08,16.12,7.62,1.42.95,1.64,3.62,3.71,4.04-3.91-13.6-12.87-26.25-13.98-40.51-.64-8.22.29-24.77,3.94-32.04,2.74-5.47,8.88-9.72,12.03-14.97,7.88-.83.88,3.35-.83,6.17-9.71,16-7.96,41.44-1.85,58.56,7.45,20.86,29.27,36.75,17.58,61.17-4.59,9.59-14.94,17.32-25.48,18.51-9.8,1.11-20.45-2.54-27.9-8.89-.74-.16-.67,1.02-.48,1.48,3.99,9.65,17.79,22.31,24.5,30.5,26.57,32.41,34.68,59.32,11.48,97.32-.55.9-2.04.41-2.02,1.21,10.03,13.22,18.55,28.8,18.09,46-.12,4.34-3.97,24.62-8.71,25.41-7.3-3.15,1.87-16.33-5-21.84-4.92,1.28-9.94.5-14.84.94-10.38.93-12.51,2.91-23.07,1.04-2.63-.46-5.63.14-8.39-1.04-.11,3.57-3.39,5.1-4.89,7.65-3.03,5.17-5.49,15.88-6.04,21.95-1.96,21.57,24.5,51.55,47.14,48.14,19.78-2.98,26.69-31.29,6.21-38.42-4.26,3.06-7.44,7.39-9.12,12.35-.51,1.51,2.2,4.91-3.35,4.31-1.54-6.11-5.18-9.11-1.02-15.51,8.71-13.4,23.87-7.57,31.2,3.81,7.96,12.35,1.71,17.91-3.68,28.78-.52,1.05.47,2.45.28,2.75-.32.53-8.98,6.85-10.11,7.35-3.09,1.36-13.95,4.04-17.07,3.77s-7.2-3.28-10.61-2.47c15.03,15.54,29.1,35.92,38.52,55.48,6.2,12.88,9.05,21.84,8.52,36.57-.98,27.33-25.17,54.59-54.08,47.98-18.49-4.23-31.09-18.64-31.05-38.03.03-17.03,16.95-35.17,34.42-26.34l9.66,7.82c-2.05-4.49-.47-9.63-1.08-14.41-1.32-10.32-10.98-21.91-20.96-25.04-10.81-3.39-11.34-.31-18.94,6.45-1.33-1.35-1.42-33.15-1.05-37.53.35-4.13,1.13-8.77,4.55-11.46,3.24-.69,3.02,8.41,2.33,10.38-.46,1.31-2.31,1.33-2.61,1.82-1.75,2.83,2.45,11.16,4.33,13.73,5.6,7.67,15.63,7.91,23.13,12.87,8.37,5.53,17.31,21.8,18.31,31.68s-2.39,32.35-16.28,29.32c-3.75-.82-6.71-5.32-5.57-9.09,1.03-3.43,5.24-1.55,4.87-4.22-.51-3.64-7.05-7.42-10.56-7.53-4.29-.13-10.65,3.47-12.92,7.08-2.39,3.81-4.87,12.93-4.43,17.36,2.87,29,40.39,36.82,58.91,16.13,30.68-34.27-10.71-88.22-33.05-116-13.09-16.28-28.19-26.57-31.71-49.29-5.67-36.65,5.41-61.18,31.2-86.28,1.45-1.41,3.65-1.59,3.63-3.43-.02-2.71-7.13-7.8-9.62-10.5-23.66-25.75-33.04-61.43-23.8-95.83,1.06-3.94,8.12-17.01,8.06-18.51-.1-2.97-4.49-10.44-5.47-14.44-4.36-17.76-3.77-50.66,1.02-68.43,1.51-5.61,9.22-20.36,9.48-23.46.1-1.13-5.44-16.63-5.76-21.85-2.85-46.46,27.55-60.53,47.8-94.16,21.43-35.58,23.53-75.6,11.19-114.84l-6.01-14.48c5,13.97-1.48,26.62-2.01,39.99.44-.56,2.71-3.21,2.99-3,8.15,17.12,1.42,33.5-8.16,48.32-4.22,6.52-10.78,11.5-11.83,19.67,7.05,2.3,10.37-5.45,14.99-8.99.11,4.05,3.23,9.43,1.88,13.36-.83,2.42-8.58,3.19-11.08,3.93-1.6.47-2.74,2.09-4.49,2.51-8.56,2.03-11.15-5.08-9.23-12.24,3.41-12.72,19.1-24.83,23.71-39.29,2.95-9.25.89-15.79,1.23-24.27ZM1122.64,192.53c-3.09,1.32-9.38.24-11.05,3.83-.27.59-2.13,11.26-2.27,12.76-.16,1.74-.31,2.09,1.27,3.23,6.03-6.36,13.27-7.5,13.29-17.74l-1.25-2.07ZM1142.1,193.38l-14,.99.12,3.38,2.21,1.48,11.67-5.85ZM846.1,315.36c17.06-.58,32.14-3.01,45.9-13.59,19.18-14.76,24.32-30.64,22.09-54.88-6.13-66.62-119.62-71.47-123.99-7-.73,10.73,8.26,26.47,18.01,30.98,8.03,3.71,14.37,3.92,22.55.56,12.53-5.15,17.4-18.93,8.86-30-4.41-.97-5.26,11.55-16.42,6.45-12.75-5.83-3.31-20.05,7.61-22.4,11.1-2.39,22.77-2.22,32.75,3.05,19.26,10.19,21.42,26.98,19.64,47.33-1.51,17.22-10.17,26.5-24.94,34.06-3.87,1.98-8.94,2.53-12.04,5.45ZM1106.09,194.37c-2.53,1.29-13.36,1.45-13.88,3.57l2.9,19.43c2.46,1.19,4.66-2.8,5.48-2.79.61.01,3.32,3.74,4.38.12.73-2.47-.63-7.67-.46-10.66.19-3.24,1.8-6.36,1.58-9.68ZM1027.34,210.12c-2.82-2.76-2.84-7.58-8.54-10.95-2.05-1.21-15.88-5.96-15.69-2.29,7.66,5.81,13.19,15.16,18,23.49.97.67,9.43-6.13,9.97-7.51.84-2.12-2.61-1.62-3.75-2.74ZM1014.37,221.17l-16.28-23.35c-1.63-.83-11.97,2.64-11.98,4.05,7.6,9.1,13.11,20.17,18.99,30.5l11.98-9.51c.59-2.48-1.71-.95-2.72-1.69ZM1087.09,198.36l-10.95,2.05c-.45.53,2.31,12.71,2.88,13.53,1.26,1.79,9.47,6.01,11.07,4.43l-3.01-20.01ZM1027.1,199.37c-1.14,1.11,7.67,10.45,8.98,11.54l5-3.04c-.02-1.49-13.39-9.07-13.98-8.49ZM998.36,233.12c-.95-.8-1.33-4.44-2.41-6.11-.94-1.45-2.47-2.4-3.29-3.7-3.83-6.05-7.55-12.99-10.54-19.48l-8.57,5.53,15.56,34.01c1.95,1.65,10.01-7.81,12.97-8.5-.76-1.55-2.91-1.06-3.72-1.75ZM1072.1,204.36l-3.05.45c-1.01,1.83-8.75,3-7.94,5.04.75,1.87,11.07,8.53,11.99,7.51l-1-13ZM970.09,214.37c-1.53-1.71-8.39,8.51-7.98,10.38,4.27,9.8,7.03,20.32,10.9,30.23.39,1.01-.55,1.76,1.53,1.33l10.59-8.47c-4.91-11.16-13.07-21.3-15.03-33.48ZM958.08,231.37c-2.34-.52-1.6.34-2.22,1.29-9.7,14.77.28,24.44.24,39.7l8.04-6.44c1.14-1.65,3.73-3.99,3.84-6s-8.79-27.53-9.9-28.55ZM352.09,250.38c-5.75-.23-11.56-1.12-17.18-2.32-18.56-3.97-38.53-15.23-55.29-1.66-7.58,6.14-4.68,6.8-6.96,14.04-2.05,6.47-22.87,19.59-28.4,29.6-4.07,7.37-3.72,17.21-3.16,25.35,1.92.32,2.71-.31,4.06-1.44,5.8-4.83,12.49-16.87,18.92-23.08,19.2-18.55,44.87-32.03,70.79-38.21l17.22-2.26ZM948.09,249.37c-1.25.08-1.62,1.43-2.18,2.31-4.96,7.78-6.94,14.85-5.8,24.18l1.51,11.51c.92.16,9.22-9.07,9.49-10.54,1.31-7.19-4.47-19.62-3.01-27.46ZM937.09,272.37l-38.99,38.99c4.62-1.09,8.43-4.83,12.6-6.89,3.39-1.67,6.86-2.11,10.69-4.31,2.66-1.52,13.75-9.71,15.26-11.73,3.45-4.59-.92-10.78.43-16.07ZM1236.09,406.37c.41-5.74-.66-11.57-2.51-16.99-.33-.96-.13-2.29-1.46-2l-6.09,10.47,10.07,8.53ZM1233.09,421.36c-.97-3.18,2.22-6.85,1.11-9.54-2.19-5.34-7.88-4.97-11.79-8.34l-7.32,8.36,18,9.51ZM1227.02,434.3c.31-2.55,2.09-4.37,3.11-6.43.46-.93,1.7-.77-.03-2l-19.51-9.23c-2.12,2.01-6.83,5.18-6.56,8.21l1.07,2.03,21.93,7.42ZM1225.1,439.38l-24.5-9.12-7.48,8.62,26.49,7.6,5.49-7.09ZM1216.1,451.38l-25.35-5.9-4.65,10.88,22.48,2.02c1.45-.14,4.85-3.49,6.24-4.72.67-.59,1.92.06,1.28-2.27ZM1184.1,473.37h14.5l6.5-9.99-19.36-.87-1.5,1.5-.14,9.36ZM1186.11,495.37l9.5-15.01-1.05-1.98-10.03,1.92c-2.01,2.8,1.56,11.52,1.58,15.07ZM1185.79,600.67c-.4-.62-2.27-1.07-3.17-2.3-2.13-2.89-1.38-8.69-5.52-9,.85,2.5.68,5.67,1.47,8.02,10.45,31.03,37.97,45.68,51.23,72.77,1.69,3.45,2.83,7.26,4.2,10.85.55,1.45-.95,2.91,2.09,2.35-1.47-12.95-8.42-26.85-16.6-36.89-13.54-16.62-21.67-27.27-33.71-45.8ZM1195.09,637.36c-.25-3.03-3.56-3.63-5.44-6.05-1.33-1.72-7.3-12.94-8.06-12.92-5.44,4.93-4.05,12.02-7.5,17.97l20.99,1ZM1210.1,653.36c-2.85-3.12-6.51-9.67-10.74-10.75-7.26-1.85-17.93,1.64-25.25-1.24.43,3.58-1.69,11.51,2.69,12.8,8.67,2.55,23.91-2.25,33.3-.81ZM1223.1,669.36c-2.13-2.86-3.9-9.27-7.52-9.97l-39.47.98c.29,2.56,1.68,11.17,4.45,11.6l42.55-2.62ZM1238.09,776.36c.48-3.66-.44-6.75-1.28-10.2-8.52-34.86-43.93-52.08-59.25-83.75l-6.45-16.04c.7,8.32,4.14,18.35,7.24,26.24,9.68,24.61,33.73,38.22,49.18,58.82l10.55,24.93ZM1233.09,687.36l-5.46-11.02-2.07-1.02-42.47,3.06,4.67,10.03,45.33-1.04ZM1233.1,694.38c-13.28-1.17-26.76-1.78-40,0l7.68,9.81c7.15.41,14.68,1.96,21.88,1.25,6.6-.65,7.7-5.86,10.44-11.05ZM1233.11,704.38c-2.35,7.89-8.52,13.8-13.94,19.63l3.43,4.35c4.95-6.61,10.14-12.25,11.23-20.76.14-1.09,1.12-3.44-.71-3.21ZM1222.1,710.37h-14.5c-.57,0-2.68-2.17-3.5-.5l10.5,9.49c.89-1.21,8.87-7.77,7.5-8.98ZM1212.1,744.36l-6.36-4.88c-15.28,13.98-27.68,30.89-33.63,50.89,4.07-2.52,4.96-8.03,7.58-11.91,4.44-6.6,11.56-15.06,16.9-21.1,4.39-4.97,8.86-11.59,15.51-13ZM1225.1,760.37c-1.78-3.19-6.51-11.09-10.53-10.98l-13.47,11.49c.81,1.66,2.93-.5,3.49-.5h20.5ZM1232.1,778.36c1.2-1.23-2.61-9.67-4.72-10.78-4.27-2.23-27.43-1.79-31.68.88-1.14.72-9.13,11.38-8.6,11.89l45-1.99Z"/>
  <path d="M407.11,447.37c10.8,29.7,7.15,59.51-14.01,83.5-10.04,11.39-27.5,19.71-28.98,37-1.63,19.05,14.99,32.59,28.96,14.96l-6.82-7.11c3.89-10.87,16.04-12.72,15.94,1.15-.06,7.54-2.28,11.46-8.08,16-12.7,9.95-26.44,6.83-33.55-7.47-5.63-11.31-3.27-18.38-.47-30.04-8.63,3.34-18.17,6.4-27.45,7.04-15.55,1.07-29.48-2.02-44.54-5.03l41.31,24.18c29.06,21.18,34.23,52.86,6.71,78.33-3.72,3.45-5.41,4.31-9.01-.02,6.4-4.84,16.16-17.41,17.76-25.23,3.23-15.84-6.49-36.1-19.47-45.08-6.54-4.53-15.43-7.11-21.64-11.36-3.1-2.12-21.47-19.74-24.66-16.83,4.28,11.71,14.71,18.34,20.17,29.32,8.57,17.23,16.07,45.54,10.86,64.21-4.93,17.64-12.9,39.3-24.52,53.48-6.68,8.15-16.22,17.07-24.53,23.5,10.72,12.78,22.4,23.92,27.72,40.28,3.83,11.8,4.29,29.26,2.17,41.51-.57,3.29-3.23,8.63-2.89,11.11.26,1.91,9.59,17.45,11.2,21.89,1.14,3.13,4.36,18.29,5.77,19.23,3.08,1.14,6.4.07,9.53.47,22.47,2.89,81.23,23.47,87.27-11.75,1.61-9.35-5.95-27.69-16.73-22.76-8.17,3.74,8.24,11.74-4.77,14.28-9.54,1.86-13.9-8.17-6.75-14.78,10.44-9.65,24.22-7.58,31.31,4.67,14.17,24.5-9.08,49.82-34.81,46.32,29.62,21.97,37.27,67.41,16.41,97.9-29.26,42.75-91.04,41.02-125.43,78.57-7.27,7.94-17.91,27.43-10.45,37.49,5.12,6.9,7.25-5.24,8.45-6.49,1.69-1.76,5.85-1.13,8.01-2.48-.56,8.03-.55,16.29-10.75,17.78-23.27,3.4-18.62-36.44-15.75-49.79,4.79-22.26,12.52-28.73,29-43,2.02-1.75,5.15-1.24,4.5-3.98-15.46-4.86-25.88-15.33-32.87-29.64-6.22-12.72-10.13-29.63-9.11-43.86,1.62-22.46,19.67-63.4,12.17-83.2-2.32-6.13-5.19-11.16-12.19-8.75-7.64-10.86,6.02-13.51,14.03-7.09,7.81,6.25,8.53,15.76,8.02,25.06-.43,7.86-3.34,15.62-3.55,23.45,6.94-11.21,25.82-37.74,25.36-50.54-.25-6.97-7.96-8.39-12.2-11.61-22.29-16.95-36.17-36.47-32.4-66.09,1.1-8.64,6.2-16.12,8.7-24.31-7.46-9.5-11.16-22.93-11.99-34.91-1.95-28.14,9.14-37.75,20.58-60.5,1.51-3,9.31-19.73,9.39-21.62.54-12.94-7.51-37.93-15.92-47.94-2.69-3.21-13.14-8.37-12.56-12.6.25-1.8,5.89-14.42,7.15-16.78,1.5-2.81,10.57-15.6,13.03-16.03,13.5,10.19,25.99,24.21,42.92,28.87,20.01,5.51,51.69,5.34,70.11-4.77,27.12-14.89,44.88-43.13,42.32-74.65-3.29-40.48-53.65-78.44-89.46-49.49-16.61,13.43-11.7,27.97-11.53,46.98-13.33-10.78-9.85-29.44-2.38-42.89,14.73-26.54,56.5-25.25,79.33-10.55,19,12.24,28.78,35.14,56.47,31.35,8.07-1.11,23.21-17.66,27.07-16.92,4.09.79-.76,11.06-2.04,12.94-9.36,13.7-29.09,16.28-43.71,10.84-4.11-1.53-7.62-4.32-11.72-5.77ZM265.76,552.71c-1.58-2.04-4.84-4.2-7.07-7.43-3-4.36-3.73-10.62-10.05-11.94-2.08,5.28-9.49,16.64-7.02,22.01.74,1.61,4.94,4.6,6.46,6.54,8.27,10.57,16.61,27.53,16.92,41.09.09,3.71-1.99,8.59-.78,12.77l3.9,2.14c-.54,5.44-6.81,8.33-8.89,12.12s-3.12,9.61-5.61,14.39c-5.9,11.32-13.1,18.37-16.07,31.93-4.91,22.37,2.7,16.87,19.04,18.06,8.54.62,14.78,4.81,22.06-1.96,1.19-1.11,6.48-8.08,5.45-9.04-8.44,1.24-16.09,2.91-22.49-4.01-6.38-6.9-4.98-24.68,6.03-25.08,5.35-.19,9.01,6.71,8.47,11.49-.43,3.82-3.95,4.33,1,9.08,8.82,8.45,22.96-11.81,25.47-19.52,7.55-23.26-5.46-51.85-17.66-71.33-.87-1.39-3.75-2.86-4.44-3.98-4.82-7.81-8.83-19.72-14.71-27.33ZM255.1,721.38c-.25,2.46,2.94,6.3,5.36,5.83.94-.18,12.17-11.59,13.67-13.31,6.09-7.03,15.89-20.57,20.41-28.59,1.16-2.06,2.41-4.55,2.55-6.94-6.32,6.38-10.31,14.61-16.02,21.47-3.8,4.57-12.16,13.81-16.46,17.54-2.42,2.1-6.43,3.24-9.51,4ZM271.09,701.37l-31.99-3c1.73,9.53,9.11,10.59,17.5,10.98,7.01.33,11.83-.99,14.49-7.98ZM285.09,783.36c-1.09-5.81-3.18-12.58-5.51-17.98-7.3-16.94-24.29-29.77-35.46-44.54l-10.02-15.47c.59,4.58,2.26,10.01,4.43,14.05,9.03,16.78,24.06,28.27,35.99,43.01l10.55,20.93ZM259.1,714.38l-12.99-3.01c1.31,6.22,9.27,8.55,12.99,3.01ZM237.11,752.37c3.24-3.39,4.49-7.11,8.91-9.6l-1.93-5.39c-1.43.92-2.94,4.18-3.7,5.78-1.32,2.78-2.72,6.18-3.28,9.21ZM262.1,756.36c-3.2-3.54-10.57-11.72-15.57-8.06-1.1.8-4.23,6.07-4.45,7.56-.29,2.04.18,1.32,1.49,1.51,6.76.95,12.32-1.57,18.52-1.01ZM273.1,770.37c-5.34-14.55-20.23-7.71-32.02-7.52l-2.98,7.52h35ZM276.6,776.37h-34c-.24,0-1.98-2.03-2.51-.49l4,9c11.84,2.25,24.51-1.68,36,.49l-3.49-9ZM249.52,797.95c-1.79-1.95-5.02-7.77-6.94-8.57-4.05-1.69,1.89,6.66,2.54,7.47,9.54,12.02,22.38,20.66,33.97,30.52,1.04-1.2-2.43-5.68-3.35-6.64-7.49-7.77-18.55-14.45-26.22-22.78ZM283.1,800.37l-2.98-9.57c-.7-.43-1.31.57-1.52.57h-26.5c-.21,1.55,8.83,9,9.5,9h21.5ZM283.1,805.37h-16l13.99,15,2.01-15ZM288.09,832.37l-3.59,3.05,11.59,17.95c-.79-7.78-7.28-13.22-8-21ZM284.08,842.37l-2.05.61-12.92,23.39,20.56-12c1.44-2.72-5.78-8.5-5.59-11.99ZM293.01,859.42l-23.86,11.49-12.04,17.45c4-1.68,6.33-5.25,9.85-7.64,5.39-3.67,14.41-8.37,20.7-10.3,9.52-2.92,12.18,1.22,5.36-11ZM338.73,881.76c-26.63-14.69-61.92-4.28-81.6,17.14-4.8,5.23-13.73,16.29-14.94,23.06-7.55,42.07,6.5,70.33,46.73,84.16,1.3.45,2.63-.41,2.2,1.75-12.42,6.42-25.52,14.71-33.42,26.6-4.73,7.12-12.4,24.24-13.48,32.52-.32,2.45-.05,4.94-.1,7.39l6.55-14.93c25.03-31.48,65.74-39.72,99.67-57.33,43.67-22.67,58.09-80.97,15.27-112.73-2.49-1.85-7.86-4.82-10.49-4.51,4.94,5.91,9.79,10.96,12.72,18.28,5.32,13.25,6.02,35.83,2.19,49.46-.18.64-1.66.67-1.88,1.49-1.7,6.44-1.88,7.72-6.53,13.29-19.04,22.78-55.03,25-74.54,1.51-16.25-19.56-7.56-52.77,19.51-55.52,9.37-.95,18.05,4.12,20.85,13.16,4.15,13.37-9.5,22.34-20.29,14.29-6.83-5.1-3.94-16.29,3.94-17.45-5.93-5.47-13.06-.25-17.42,5.09-8.23,10.1-10.12,23.72-1.43,34.26,32.73,39.72,90.5-5.51,69.04-55.04-5.68-13.12-10.34-19.17-22.57-25.92Z"/>
  <path d="M772.1,1232.87c-2.14,20.19-13,26.67-23.41,40.59-.59.78-.63,1.94-.6,2.91l-3.99-1.01,16.49-33.99c11.1-38.28,1.88-79.38-22.98-110.01-16.44-20.25-31.33-33.67-54.83-45.17-13.49-6.6-47.72-9.84-61.65-5.29-3.05,1-13.78,8.23-16.02,2.96-1.35-3.17,5.17-4.06,7.52-5.46,2.04-1.22,3.85-3.34,5.76-4.24,4.46-2.1,9.89-1.85,14.71-1.79l-10.99-12.5c-14.91-23.16-7-51.89,8.58-72.41,10.18-13.4,37.28-33.36,37.33-50.71.02-7.87-9.01-21.82-16.88-23.9-10.06-2.67-18.3,5.87-25.03,12.03,4.99,1.04,8.47-.7,11.84,4.15,11.54,16.58-19.12,23.49-18.93-.15.1-12.31,16.53-23.24,27.88-24.25,17.3-1.53,31.69,22.17,28.96,38.01-2.23,12.97-23.45,30.26-32.18,40.82-15.51,18.76-29.08,39.42-18.76,64.6,5.31,12.96,15.02,15.8,24.68,24.3l1.5-2.97c-6.44-1.53-13.95-12.25-16.04-18.47-13.06-38.77,26.29-59.16,42.84-87.23,14.13-23.98,16.24-47.32,11.94-74.55-.3-1.89-2.33-12.46-2.71-13.11-.64-1.11-2.36-.34-2.83-.79-.57-.55-2.98-12.6-6.21-14.36l-1.46,8.55c-14.58,27.75-49.24,12.81-51.53-15.56-3.22-39.91,46.03-55.83,73.51-27.51,39.62,40.83,22.84,122.41-16,159.05-19.11,18.03-45.31,26.04-41.42,57.36,3.3,26.57,40.3,33.41,59.82,44.18,39.46,21.78,70.5,79.88,101.56,114.44,50.8,56.53,129.2,103.27,199.02,45.99,14.26-11.7,25.62-32.74,27.5-50.99-28.55,9.42-44.85-16.15-35.48-41.99,2.12-5.83,6.52-9.93,11.01-13.99,1.18-1.07,6.05-3.88,6.25-4.2.16-.24-.58-4.61.21-5.83-1.87.44-2.69.93-4.68.28-6.95-2.26-16.01-11.48-23.01-15.09-15.88-8.21-46.27-10.35-63.3-5.68-62.44,17.11-77.81,108.94-8.79,125.77,31.97,7.8,72.48-21.73,63.32-56.32-5.69-21.47-19.79-40.07-44.58-35.51-12.59,2.31-28.64,19.88-25.94,33.55,19.08-13.51,26.61,17.49,7.49,17.08-18.61-.4-17.59-30.72-8.91-41.99,21.19-27.53,65.88-18.97,76.14,13.69,7.25,23.08,3.25,52.36-18,66.45s-45.48,14.19-69.02,4.56c-3.85-1.58-6.4-4.89-9.7-6.3-9.59-4.08-24.95-4.01-33.52-11.48-1.8-1.57-12.25-16.82-12.35-18.47-.3-5.25,2.77-4.02,4.92-5.97,16.79-15.29,20.1-55.13,43.62-74.4,36.8-30.15,86.99-26.25,123.26,2.39,3.65,2.89,8.13,6.49,5.07,11.42,19.03-6.24,36.04,2.89,47.97,17.54,9.15,11.24,9.63,24.88,9.02,38.96-.66,15.12-3.34,23.52-10.47,36.53-6.25,11.41-13.31,19.86-22.52,28.97,6.81-3.26,14.11-7.87,20.31-12.18,16.38-11.36,31.48-23.49,48.37-34.66,22.06-14.59,44.78-28.08,72.84-30.14,19.37-1.42,49.95,9.86,61.51-12.49,5.33-10.31-1.99-25.92-14.52-23.52-7.16,1.37,3.55,10.88,3.54,13.53l-.5,1.48c-3.5,1.53-4.02,3.23-3.55,6.98-4.7.82-10.94-6.6-13.55-7.02-6.97-1.11-13.26,4.81-22.67,1.73-6.35-2.08-5.11-5.02-9.78-8.21,10.37-6.16,16.71-18.38,24.48-27.52,6.13-7.21,12.27-14.3,18.54-21.46,5.11-5.83,10.71-11.35,15.69-17.34l7.32,1.48c2.01,2.9-4.28,30.39-7.03,28.33-2.83-5.29-1.75-9.42-1.51-14.99-10.03,6.85-15.28,17.21-22.98,26.02-5.06,5.79-10.42,11.53-15.55,17.45-2.28,2.63-5.45,4.11-6.97,7.01.82,3.48,17.73,4.18,21.06,3.08,6.76-2.24,5.61-15.05,14.49-16.5,13.55-2.22,22.93,10.97,22.54,23.44-.4,12.86-15,27.38-28.1,26.5,30.31,23.2,39.85,61.37,8.01,88.5-24.19,20.61-59.22,14.93-71.18-15.84-6.67-17.17,4.44-42.92,23.73-45.61,5.13-.72,18.11,1.22,21.48,5.4,2.31,2.87,6.5,13.02,5.76,16.79-.27,1.38-5.16,10.7-6.08,11.45-7.32,6-21.6-7.52-13.65-16.14,2.9-3.15,6.9-4.54,10.42-1.55,1.77-1.58-5.25-6.19-6.43-6.57-12.33-3.98-23.09,1.79-27.11,14-10,30.39,22.36,50.33,49.04,38.04,41.63-19.18,27.04-82.79-16.61-87.36-30.71-3.22-57.78,7.59-82.93,22.8-7.54,4.56-14.05,11.17-22.44,14.09l18.98,4.5c17.93,4.71,25.11,35.33,6.01,42.98-10.5,4.2-28.77.32-25.99-13.99,1.53-7.87,10.49,3.27,12.94,4.04,5.85,1.84,15.24-1.43,16.04-8.14,1.22-10.14-4.63-15.55-13.44-18.46-24.54-8.1-51.26,18.3-72.23,28.88-15.61,7.87-51.65,19.94-68.79,21.21-38.08,2.83-81.69-11.4-113.85-31.23-35.13-21.66-60.99-53.88-86.2-85.8-1.19,1.1.54,3.69,1.05,4.95,4.38,10.93,9.51,21.35,13.47,32.53,6.31,17.79,9.87,41.58,27.27,52.22,4.34,2.65,19.41-.47,12.58,12.68-4.42,8.5-14.53.75-19.53-3.72-15.91-14.2-20.07-38.17-27.22-57.28-.48-1.28-.22-3.07-2.12-3.38-.63,8.17.85,17.48,0,25.5ZM672.11,987.37c5.52-4.21,9.39-10.47,13.4-16.09,22.35-31.29,31.71-58.89,26.48-98.31-2.58-19.46-17.85-50.13-39.52-52.48-9.99-1.09-25.48,1.45-32.22,9.53-13.83,16.57-9.96,42.72,13.61,46.13,6.73.97,15.13-5.83,16.05-12.55.99-7.22-5.75-14.34-13.15-13.91-4.12.24-4.53,4.27-6.13,3.66l-2.35-2.64c9.44-20.44,33.88-2.75,40.32,11.66,11.51,25.71,13.72,44.27,8.22,72.19-2.59,13.16-8.27,26.46-15.28,37.72-3.17,5.09-9.1,9.44-9.41,15.08ZM954.1,1276.36c6.41.62,12.93,1.66,19.42.93,51.06-5.75,98.8-53.53,87.28-107.12-5.96-27.74-39.47-41.09-57.7-16.3-8.48,11.53-8.47,28.68,6.31,34.68,14.69,5.96,21.1-2.88,23.7-16.19,1.95,1.17,4.36,5.73,4.77,7.73.46,2.25-.45,15.8-.8,18.75-4.01,33.97-36.38,66.82-69.22,74.78l-13.76,2.73ZM876.1,1223.36c-1.33-2.41-3.77-3.9-5.41-6.08-4.35-5.78-8.75-14.8-11.64-21.36-1.66-3.77-1.86-7.58-2.45-11.54-5.81,11.26-16.87,18.3-2.83,28.82,5.72,4.29,15.24,9.19,22.33,10.16Z"/>
  <path d="M1320.32,1036.16c12.3,5.31,11.4,22.43-2.86,23.14-16.49.83-14.83-17.24-3.28-23.61-2.92-13.97.4-28.22-.08-42.31-4.68.86-16.17,8.13-16.98,12.51-1.27,6.9.02,13.59.02,19.94,0,13.24-.37,26.54.17,39.84,7.91,9,17.31,16.96,23.52,27.32-2.95,46.02,1.45,92.81-.29,138.89-.56,14.87-18.58,19.59-25,31.44-4.71,8.7-6.62,24.05-1.99,33.11.64,1.26,4.72,7.05,5.54,7.46,2.5,1.23,17.2-.28,18.82-1.7.22-.19,1.99-5.2,2.01-5.49.05-.71-2.56-8.36-2.59-8.84-.04-.71,2.22-1.83,2.64-3.19,1.26-4.06-6.7-10.68-9.41-6.3-2.61,4.92,4.51,9.09,5.53,11.52.83,1.98-5.12,3.59-7,3.08-13.41-3.6-7.92-26.52,8.84-21.92.86.24,7.89,3.47,8.21,3.78.44.44,3.12,10.96,3.07,12.06-.08,1.69-1.61,1.41-2.01,2.26-2.49,5.32.7,3.86.87,4.82.88,5.16-7.26,14.62-12.07,16.78-6.11,2.75-16.2.76-21.4-3.39-8.9-7.11-9.81-15.98-9.49-26.49.46-15,1.9-20.85,12.48-31.52,4.02-4.06,14.71-9.94,15.45-14.55,1.73-42.88-2.09-87.28.02-129.98.32-6.48,4.12-6.97-1.56-13.36-5.36-6.03-14.77-13.31-19.4-19.6-3.66-4.98-3.77-16.33-4.05-22.95-2.3-53.02,1.77-107.74.11-160.93-7.69-1.98-8.03-9.9-5.14-16.2,4.68-10.2,24.27-5.21,19.63,9.64-.87,2.78-4.22,4.18-5.03,5.96-1.81,3.98-.4,37.97-.49,45.54-.16,13.1.11,25.82.05,38.94-.04,7.84-1.11,15.64-1.07,23.5,3.92-4.14,14.45-9.05,16.76-13.74,1.94-3.95.17-5.85.18-9.71.1-40.51.04-81.04.04-121.54-6.25,7.17-24.2,8.2-29.88.39-1.11-1.52-4.48-9.41-4.66-11.33-.88-9.05,3.47-12.04,10.28-15.81.82-.46,1.78.2,1.13-1.6-3.51-6.83-12.82-7.56-17.86-13.15-9.84-10.92-1.1-30.11,13.49-29.49l.5-1.99c-6.69-3.71-17.48-14.09-20.22-21.3-1.69-4.46-1.28-35.13.17-40.27,2.33-8.21,14.93-17.05,21.04-22.96-19.58-2.27-26.02-21.36-9.93-33.93,3.27-2.56,16.01-6.47,11.45-10.59-7.98-7.22-11.14-2.66-9.51-18.46,1.46-14.16,14.78-17.83,27.26-15.28,12.47,2.55,15.74,22.68,14.62,33.17-2.17,20.3-13.73,32.42-26.38,46.62-6.72,7.55-21.6,19.36-22.55,29.45-.5,5.29-.4,25.51,1.3,29.78,4.23,10.65,18.75,18.24,26.25,26.75,19.43,22.05,20.42,34.24,20.44,62.46.04,64.45-.11,128.91.26,193.34ZM1295.82,682.08c9.83-13.07,20.57-29.66,17.05-46.99-2.14-10.55-16.07-17.25-24.31-7.76-13.17,15.18,5.64,13.69,13.3,16.79.96.39,1.73.02,1.13,1.62-.4,1.05-8.36,11.74-9.38,12.63-2.68,2.35-6.74,2.88-9.43,4.57-17.49,11.02-4.24,26.69,11.64,19.13ZM1294.72,788.75c-9-5.81-17.35.66-20.68,9.06,7.75,11.21,22.73,13.99,28.06,28.08l-1.74.66.74,1.81c-2.5.32-4.4-1.34-6.94-.51-1.06.35-9.99,7.56-10.09,8.21-1.37,8.29,11.9,15.16,20.37,10.16.74-.44,7.88-6.39,8.15-6.85,2.55-4.35.04-18.58-1.35-23.65-2.2-8.08-9.46-22.4-16.53-26.96ZM1296.95,874.52c-1.68-2.74-11.71-.57-7.94,5.15,2.69,4.08,11.52.69,7.94-5.15ZM1314.73,1041.48c-3.41,1.14-1.62,10.34,1.85,11.68,8.35-2.06,5.63-14.18-1.85-11.68Z"/>
  <path d="M167.1,1031.87c1.06,7.16,9.51,9.11,6.75,19.76-1.93,7.45-14.05,8.99-19.05,4.8-.99-.83-3.33-8.42-3.26-9.53.02-.37,2.15-5.47,2.53-6.06,2.01-3.06,6.84-3.83,7.1-5.93-.3-7.69.14-15.4-.03-23.08-1.05-47.36-1.31-95.54-1.08-142.92.08-16.51-2.61-49.69,3.49-63.59,2.19-4.99,12.37-19.4,16.12-23.88,8.87-10.56,22.94-16.15,27.71-30.29,2.5-7.42,1.88-19.14.28-26.84-2.45-11.75-16.96-21.52-24.53-30.47-4.54-5.36-18.31-23.01-20.25-28.75-3.81-11.3-5-28.51-1.53-39.98,2.03-6.71,11.87-10.14,18.26-10.73,19.03-1.76,26.39,17.2,16.54,31.54l-9.04,5.44c6.86.39,21.42,11.15,22.77,17.74,2.88,14.14-3.45,20.79-16.76,22.76,9.53,13.67,20.77,17.59,22.04,35.96,1.54,22.2-2.06,39.24-23.04,50.06-1.01,1.79,5.23,2.17,6.99,2.99,8.99,4.19,12.22,10.14,11.02,20.02s-19.99,17.41-20,19.98c24.05,19.27,2.98,45.47-23.02,32.5v126.5c0,.35-1.02,1.32-.3,2.19.98,1.68,2.41,3,3.78,4.34,2.86,2.79,21.3,15.48,21.28,17.45,0,.53-1.58,1.55-1.67,2.96-.94,14.88,1.98,34.76,2.01,50.07,0,1.98-.79,9.14-1.31,10.79-1.58,5.07-22.9,18.44-23.73,27.27l.9,139c3.91,10.75,20.09,18.48,24.28,27.72,1.94,4.28,3.31,26.92,2.81,32.28-.92,9.86-13.92,18.42-23.55,18.53-9.2.11-19-7.04-19.57-16.59-.14-2.39.99-4.35.96-6.09-.06-3.37-1.26-7.73-.16-11.08,4.16-12.68,25.18-11.46,25.32,2.18.08,7.71-8.95,16.53-15.04,8.53,13.96-3.36,2.28-21.52-4.02-6.49,5,5.36.81,5.13,1.05,9.82.58,11.36,12.46,14.79,21.27,9.47,7.6-4.59,6.74-29.15,3.91-36.53-1.66-4.35-5.22-5.5-7.75-8.25-5.75-6.26-11.5-12.56-16.94-19.06l-1.13-148.51c8.63-10.79,23.34-19.02,24.63-33.92,1.35-15.69-3.4-33.06-.25-48.93-6.04-4.59-10.92-12.32-18.78-13.59-.11,1.03,2,2.07,2,2.49,0,10.3-1.4,26.57,0,36ZM200.81,665.64c-2.73-3.26-15.79-8.3-20.21-12.28-3.53-3.19-7.33-8.72-1.25-11.24,5.21-2.16,14.73.97,14.78-7.24.08-13.92-25.08-16.87-27.79-.78-2.11,12.55,2.58,28.52,9.35,39.17,5.45,8.57,14.23,15.28,23.9,8.08,2.98-2.22,5.08-4.36,4.31-8.24-.18-.89-2.63-6.92-3.09-7.48ZM190.94,828.54c-6.7,1.55-21.32-1.84-12.36-10.19,6.22-5.8,36.56-15.42,22.07-28.03-8.03-6.99-16.28-3.58-22.08,4.02-9.31,12.19-14.54,26.83-11.25,42.31,4.08,19.18,36.76,12.94,23.61-8.11ZM162.8,1041.49c-5.11,1.3-3.97,9.72.79,11.62,7.88-1.62,6.15-13.39-.79-11.62Z"/>
  <path d="M335.6,161.37c.97.04,1.94,1.85,4.5.55,3.07-4.06,7.66-10.1,12.96-11.17,6.8-1.37,12.95,2.31,15.81,8.34,3.57,7.54-4.07,17.73-11.4,18.24-8.23.57-11.6-7.06-16.32-8.52-9.33-2.89-21.05,1.03-30.52,1.6-32.44,1.95-66-2.46-98.54-1.04l2.89,3.55-1.98,24.95c.8,30.74.73,61.35,1.14,92.03.03,2.38-1.26,4.71-1.14,6.97.37,6.96,10.08,7.3,8.03,19.94-1.77,10.9-19.8,10.64-21.74-3.21-1.16-8.24,7.7-12.13,8.79-17.75s.52-24.69.03-30.99c-.09-1.16-.31-4.48-1.99-4.49-1.91,9.08-12.06,12.76-15.8,20.7l-1.3,47.78c-1.03,16.31,22.26,24.04,24.85,37.24,2.42,12.35.15,26.1.19,38.81.12,41.17,1.68,82.54,0,123.91-.25,6.15.91,14.37.05,20.07-.55,3.63-6.79-.27-9.01.46l3.08-3.46-.21-168.9c1.1-21.18-26.54-26.66-26.96-46.13-.28-12.88-.04-34.3,1.05-47.03,1.02-11.87,3.75-9.91,10.56-16.44,2.15-2.06,14.2-13.93,14.49-15.5l-.07-63.07c1.97-8.58-2.14-17.71,2-26.01l94.35.57c1.88-4.37,5.94-3.07,8.79-5.43l18.15-20.92c14.23-2.32,30.23.84,44.3-.63,2.4-.25,3.79-1.3,5.91-2.09,1.86,4.65,7.28,5.18,10.55,8.57,9.2,9.53,9.24,18.6,25.63,20.37l137.71.17c4.38-10.29,15.55-10.81,21.68-1.55s-7.59,22.78-17.58,15.58c-1.96-1.42-2.56-5.88-3.91-7.09-1.89-1.69-19.92-1.13-24.06-1.03-30.95.75-61.92.86-93,1-8.5.04-17.98,1.88-26.89-.04-12.86-2.77-18.54-19.88-31.87-25.12-6.52-2.56-35.48-2.85-42.51-1.11-7.42,1.83-14.49,11.54-19.19,17.31,6.14.19,12.36-.27,18.5,0ZM355.83,156.49c-5.7.85-10.2,10.1-2.78,12.42,13.93,4.34,9.37-13.4,2.78-12.42ZM561.34,171.12c3.49,3.51,10.66-.39,8-6.49-4.55-10.47-12.77,1.7-8,6.49ZM208.81,307.51c-3.83,1.06-4.18,8.95.83,9.86,9.53,1.73,5.59-11.63-.83-9.86Z"/>
  <path d="M1163.1,161.37c-5.3-6.15-14.52-16.23-22.74-17.76-6.46-1.21-33.52-.88-39.48,1.04-11.81,3.81-19.99,24.66-30.51,25.5-1.99.16-3.8-.97-5.78-.86-40.03,2.12-80.83,1.44-121.03,1.12-3.89-.03-12.54-1.93-16.25.17-.6.34-2.54,5.42-4.66,6.83-4.64,3.08-11.06,2.7-15.08-1-15.02-13.83,7.89-31.29,19.56-13.56l139.42.45,6.06-2.94,22.52-23.48,53.08-.08,22.41,22.57c2.8,2.11,6.62,3.47,10.11,3.89,26.5,3.22,58.82-2.14,85.93.07,4.93-.17,5.2,6.66,5.49,10.51,1.91,25.09-.32,52.72.01,77.99.37,2.03,6.58,9.68,8.25,11.24.94.87,2.7.98,3.64,1.84,5.4,4.98,11.35,8.22,12.83,16.2,2.2,11.85.29,36.53.19,49.8-.01,1.8.97,3.59.91,5.01-.48,11.92-22.56,21.37-25.81,33.01.8,58.29-1.25,116.71-.11,174.99.05,2.75,2.31,7.39-1.39,7.46-2.2.04-5.32-2.83-6.45-4.64,1.06-2.22,1.73-3.15,1.97-5.79,3.1-34.38-.11-78.78-.03-114.03.05-21.01.31-42.1-.57-63.08,6.9-13.66,23.06-15.47,24.56-32.93.72-8.34,1.33-40.93-.24-47.83-1.14-4.98-12.77-14.75-17.79-16.71v27.5c0,.87-2.25,3.06-1.53,4.55,1.08,2.23,9.13,5.47,10.32,10.66,5.29,23.1-31.59,18.03-22.31-.73,1.2-2.42,7.52-7.42,7.52-10.48v-126c-.88-1.43-1.99-1.38-3.45-1.55-23.17-2.72-54.69.7-79.09.09-9.16-.23-18.74-.62-28-1-4.6-.19-15.71-3.07-19.02-1.1-6.16,3.66-4.24,8.16-14.59,7.48-16.81-1.11-16.48-22.79-.1-25.21,8.55-1.26,12.27,4.41,15.22,11.36.7.43,1.32-.58,1.52-.58h24.5ZM1122.81,156.5l-5.74,6.4c.19,2.66,2.56,8.24,5.47,8.4,8.71-.92,10.39-14.16.27-14.81ZM920.66,166.58c0-2.91-2.36-5.27-5.27-5.27s-5.27,2.36-5.27,5.27,2.36,5.27,5.27,5.27,5.27-2.36,5.27-5.27ZM1272.84,308.62c-5.93-6.25-10.53,3.56-6.81,9.3,2.15.85,5.66.93,7.16-.96,1.5-1.94,1.22-6.68-.35-8.34Z"/>
  <path d="M691.6,1350.37c.94-.27,4.23-4.81,6.13-5.87,14.04-7.81,27.63,9.52,13.3,19.3-8.19,5.59-10.93-1.37-18.2-4.66l-171.3-1.7-18.4-19.6c-5.77-5.58-5.04-3.32-11.49-3.41-17.8-.25-35.86-.35-53.54.45-4.66,8.49-11.78,14.71-18.45,21.55l-2.07.93-127.03,1.07c-1.21.12-2.03-.43-3-1-1.5-.87-12.02-9.95-13.48-11.52-3.88-4.14-4.59-7.92-10.23-11.77-6.58-4.49-16.92-5.7-24.44-2.98-19.64,7.12-6.68,30.22,3.99,27.05.33-.1,5.33-3.74,5.5-4.04,2.43-4.17-3.67-9.76-4.73-2.22l-5.01-.62c-1.81-18.39,21.6-9.27,18.53,2.04-2.57,9.5-10.61,13.42-20,11.93-2.41-.38-5.27-2.69-7.25-2.72-1.75-.03-2.76,1.88-4.26,2.34-4.81,1.47-14.66-.18-18.07-4.04-7.06-7.98-6.47-21.66-1.79-30.83,1.65-3.24,9.46-15.81,13.36-9.72,1.63,2.54-2.29,5.1-3.59,7.49-5.07,9.32-9.77,17.05-1.96,27.03,2.91,3.72,12.01,7.64,11.8,1.82-.1-2.73-4.82-2.39-4.61-8.83.04-1.24,2.93-14.6,3.32-15.47,1.28-2.8,11.45-8.36,14.67-9.32,7.86-2.34,21.38-.32,28.16,4.44,3.75,2.63,7.86,9.48,11,12.51s11.32,9.92,15.12,10.37c39.63.62,79.54-1.37,119,1.04l26.23-23.85c18.6-.46,37.22-.12,55.83-.16,1.82,0,3.66-1.01,5.02-.94,5.48.25,21.41,22.49,29,23.84l130.4-.48,35.03-31.46,1.52,7c-6.17,5.43-11.4,11.97-17.5,17.51-2.09,1.9-7.09,4.73-8.53,6.47-.58.7-1.05,1.76.04,2.04.87.23,1.68-1.02,1.98-1.02,4.4,0,16.89.88,20,0ZM703.83,1349.5c-4.43.62-6.85,7.47-3.09,8.73,12.55,3.23,9.88-9.68,3.09-8.73Z"/>
  <path d="M811.1,1351.37l-3.5-5c-.98-.42.21,3.12-1.5,1.51-3.86-3.64-7.34-10.9-10.96-14.04-5.75-4.98-17.59-5.06-8.51-15.47l32.75,31.72,129.08,1c9.68-7.41,20.38-12.13,26.65-23.21l66.29-.3,25.23,22.77,121.03.07c5.61-.75,17.14-17.08,22.44-21.56,9.62-8.14,21.43-10.33,33.41-5.39s14.91,16.59,13.55,28.35c-.24,2.11-4.31,7.21,1.56,7.2,7.2-.01,11.03-16.52,8.95-22.61-1.9-5.57-12.8-11-7.94-18.06,11.36,5.04,18.31,20.23,16.24,32.28-1.62,9.48-14.76,17.41-24.06,14.54-1.55-.48-2.29-2.74-4.18-2.8s-4.66,2.88-7.67,3.35c-10.37,1.62-19.8-7.03-17.62-17.62.79-3.82,5.1-9.32,9.48-7.98,2.65.81,11.84,6.34,6.26,8.8l-5.27-.4-2.54,2.49c1.8,7.34,5.28,8.21,12.06,6.06,13.05-4.13,9.6-21.37-.48-25.94-22.63-10.25-35.45,13.82-49.18,26.29-41.99,2.23-84.76.29-127,.89-3.14-.52-9.98-6.08-12.57-8.43-6-5.46-9.64-14.85-17.44-15.56-17.94-1.63-37.93,1.93-55.93-.72-8.71,8.01-15.69,17.69-25.87,24.01l-129.24-.04c-11.08,3.2-24.45-1.56-35.06-.26-4.85.59-4.29,5.81-8.05,7.95-8.52,4.85-20.79-4.28-18.74-13.67,1.86-8.54,7.6-9.81,15.64-8.01,5.05,1.13,7.58,7.79,12.21,7.79h20.5ZM769.23,1352.5c2.1,15.31,16.5-.17,6.11-1.99-2.68-.47-3.83,1.04-6.11,1.99Z"/>
  <path d="M668.6,123.37c-.27.07-1.95,1.47-1.02,2.01l40.02,39.96.37,3.92c-1.54-.27-3.64,1.76-4.39,1.76-4.49.02-15.49-15.97-18.97-19.67-5.74-6.1-13.06-12.03-19.42-17.58-4.62-4.04-8.41-9.95-15.42-11.13l-119.06-.33c-.8,4.26-3.48,4.27-5.66,6.52-1.52,1.57-2.4,3.75-3.91,5.09-3,2.68-7.09,2.17-9.05,5.44,7.39-1.07,15.53,1.09,22.5,1.1,2.84,0,5.34-1.13,7.96-1.13,22.04-.05,44.12-.59,65.99,2.08.66-9.07,11.61-14.17,19.05-9.04,11.16,7.69,5.47,25.62-6.92,23.99-5.49-.72-11-8.45-14.53-9.54-4.83-1.49-10.99.66-16.05-1.44l12.07,15.42c13.12,2.91,27.8,2.46,41.39,2.55,4.92-.97,5.75-14.58,8.76-16.74,2.43-1.75,10.93-1.47,13.71.33,4.48,2.9,5.32,16.03,2.13,20.01-2.58,3.22-15.58,4.44-16.57-1.57l-6.35,4.47c-12.08-1.01-31.1,2.88-42.45.32-6.75-1.52-12.81-14.91-17.77-19.23-6.6-5.75-19-4.81-27.43-4.55-39.55,1.22-78.67,1.69-118.05,2.04-1.64.01-3.73-1.03-4.84-.81-1.83.35-7.35,7.47-12.29,7.54-.85.01-8.17-3.52-9.26-4.33-10.28-7.58.51-21.81,10.97-18.97,5.47,1.48,10.47,8.1,12.49,8.51,4.6.93,9.46-.95,13.94-1.03,18.27-.32,36.49,2.26,54.84.84l22.22-22.78,55.03-1.06c26.39,2.7,53.71-.01,79.96.95,5.19.19,13.09,2.34,17.98,2.15,8.62-.33,6.45-13.81,20.01-13.13,3,.15,10.5,5.01,11.3,7.77,1.15,3.96.57,10.69-2.15,13.94-4.09,4.89-10.96,5.92-16.57,2.77-1.9-1.07-7.65-7.42-9.58-7.42-3.72,0-12.11-.72-15,0ZM692.2,121.22c4.36,4.94,18.11,6.61,14.14-2.59-3.23-7.48-14.04-6.8-14.14,2.59ZM624.09,135.36c-13.53.16-6.8,20.25.97,13.45,6.18-5.4-.35-7.96-.97-13.45ZM425.96,138.51c-3.02-1.59-6.75-1.64-8.73,1.53.61,13.07,10.92,11.47,8.73-1.53ZM661.94,151.52c-5.52-3.21-14.76,13.79,1.1,10.78l1.95-6.29c-1.07-.63-2.81-4.36-3.05-4.5Z"/>
  <path d="M871.6,146.37c-1.76.5-5.05,6.23-6.55,7.45-5.48,4.45-11.32,2.42-15.96-1.93-10.19-9.54-.05-24.91,12.31-21.3,3.44,1,8.11,8.16,11.23,8.76l89.47,1.02-8.46-12.03c-3.47-3.24-9.28-5.58-14-6-24.84-2.23-55.78.41-81.21.66-8.97.09-26.73-2.56-34.57.64-.94.38-5.72,4.36-6.72,5.32-11.33,10.87-21.64,25.57-34.03,35.93-3.15,2.63-11.44,10.2-12.86,3.16,11.98-15.92,28.4-28.37,41.85-43.18l-16.41-2.53c-2.13,3.22-9.33,8.9-12.88,10.28-7.95,3.09-18.85-5.05-17.66-13.67,2.39-17.34,24.35-15.85,28.56-.52,4.3.04,8.63-.23,12.93-.11,9.34.28,17.65-.34,26.99-.9,38.62-2.3,78.02,1.45,116.95-.04,9.54,6.36,15.09,18.38,26.08,22.92l66.74.08c4.89-8.67,17.76-11.92,24.27-3.08s-4.56,19.55-14.82,16.82c-2.87-.76-5.14-4.48-7.37-5.63-6.97-3.59-44.59-.13-54.83-.08-23.56.1-46.68-1.29-70.05-2.03-6.47-.2-15.45-.62-21.48,1.5-10.01,3.5-15.85,21.25-26.49,22.51-13.68,1.62-31.19-2.16-45.03-2.11-6.03.02-6.8,4.83-13.98-.91-11.69-9.35.58-28.22,13.99-18.99,4.21,2.9,7.66,8.98,5.5,13.99,13.84-1.29,28.08,2.8,41.59.06l14.41-16.05h-17.5ZM783.88,123.15c2.79-1.97,2.03-14.74-6.34-9.84-1.25.73-5.46,6.22-5.48,7.58-.05,3.63,9.71,3.75,11.82,2.26ZM864.1,137.36l-10.87.14c-3.73,5.35-1.34,14.29,6.13,12.69s4.48-7.49,4.73-12.83ZM1055.86,138.55c-5.69,1.42-6.31,6.72-1.28,9.91,7.43,4.71,9.74-12.02,1.28-9.91ZM817.74,153.5c-2.48.83-1.92,5.81-1.19,7.92l6.59,1.53c1.51-2.27,2.69-5.55.9-8-1.1-1.97-4.38-2.09-6.29-1.45Z"/>
  <path d="M1322.75,164.72c4.11,3.62,8.65,13.67,8.41,19.14-.28,6.27-8.75,13.52-14.62,14.45-7.83,1.23-19.54-4.76-15.68-13.69,3.21-7.43,17.81-5.45,12.24,4.74,3.81.1,7.47.91,9.24-3.25,4.95-11.69-11.03-22.94-22.16-17.17-.43.22-6.83,4.82-7.13,5.15-4.21,4.57-3.87,17.74-1.15,22.98,6.07,11.68,21.84,18.34,27.73,30.27-.8,36.1,2.67,74.64.51,110.57-.29,4.86-.72,11.72-3.61,15.42-4.43,5.67-12.8,10.16-16.45,14.52-6.14,7.34-4.01,26.23-4.02,36.06-.04,36.86,1.12,73.95,1.12,110.94,0,9.39-2.22,21.5-1.1,31.04.89,7.54,11.69,8.51,7.26,19.23-4.73,11.46-22.77,6.18-23.3-5.26-.4-8.66,5.5-7.26,8.13-10.92s-.03-18.53-.1-24.01c-.66-49.01.58-98.07,0-147.08,1.02-8.35,13.2-20.05,19.52-25.48,1.94-1.67,5.15-1.69,5.51-4.49l.04-115.05c-1.25-9.03-18.32-17.99-23.88-26.12-12.64-18.44-5.62-47.32,19.34-46.77,4.78.11,10.49,1.56,14.15,4.78ZM1293.6,553.38c-2.94,2.26-7.16,6.87-2.92,9.9,7.35,5.27,8.67-6.28,2.92-9.9Z"/>
  <path d="M190.75,166.72c6.25,6.76,7.04,24.56,3.87,32.67-.76,1.94-7.28,10.48-8.97,12.03-3.19,2.92-9.31,6.08-12.11,8.89-10.54,10.55-5.54,18.72-5.39,31.52.22,18.69-1,37.43-1.09,56.01-.05,9.5-1.5,28.85.06,37.02,1.11,5.82,19.66,20.65,23.89,26.16-3.29,4.75-.05,10.13.14,15.82,1.66,48.82,1.42,103.21,0,152.09-.09,3-1.49,5.9-1.14,8.97l9.2,6.96c2.7,17.31-22.57,24.43-23.2,4.05-.24-7.64,6.37-7.18,7.14-12.96.36-46.02-.64-92.08-.1-138.1.12-10.42,3.27-22.24-.48-32.42s-20.42-17.78-22.24-27.76c-1-5.49-.2-13.87-.28-19.81-.26-20.05.8-40.74,1.09-60.92.21-14.52-.61-29.09.4-43.6,8.21-10.74,24-16.13,27.11-30.89,2.4-11.4-4.16-25.14-17.06-25.14-14.82,0-23.12,18.92-6.51,23.08l-1.86-6.4c.62-2.58,9.15-2.71,7.88-7.6,1.57-.38,1.6.28,2.42,1.08,8.61,8.38,4.31,23.12-8.65,21.69-20.26-2.24-19.62-34.85.17-38.32,8.94-1.57,19.2-1.13,25.7,5.9ZM183.34,563.11c2.76,3.11,12.59.89,9.27-5.75-2.81-5.62-13.65.83-9.27,5.75Z"/>
  <path d="M939.39,1339.07c-.88-.72-1.32-2.86-2.71-3.78-7.02-4.67-88.45,1.68-103.03-.97-10.8-5.82-17.47-17.43-27.16-24.72-35.82,1.75-71.98.32-107.93.72-2.59.03-5.06,1.03-7.91,1.08-9.8.2-13.4-4.42-22.05,1.96-8.81,6.5-13.73,19.44-25.26,20.74-30.88-.12-61.9,1.04-92.78.3-2.35-.06-4.49-1.02-6.82-1.13-5.04,14.12-22.7,10.25-21.69-4.46.85-12.37,16.53-12.67,21.66-2.56,32.9,2.51,66.63.48,99.83,1.04,10.65-1.65,15.76-22.33,30.06-23.94,45.81.21,91.99-.49,137.55.49,2.17,5.02,7.27,6.77,10.85,10.12,5.35,4.99,8.18,12.15,16.69,13.31,18.4,2.5,41.38-1.97,59.87.13l36.05-.04c5.94-4.64,6.15-9.99,15.78-7.79,7.32,1.67,8.57,11.78,4.94,17.51s-11.12,5.9-15.95,1.97ZM535.79,1326.65c-2.69-2.29-7.09.67-8.57,3.36.68,2.91,2.93,4.97,5.56,6.12,2.36.29,4.66-2.34,5.19-4.5.19-1.44-1.17-4.13-2.17-4.98ZM950.81,1327.68c-5.75-4.72-14.19,3.74-4.69,8.2,4.78,2.24,9.57-4.19,4.69-8.2Z"/>
  <path d="M1297.38,1191.12c14.78,9.23.86,27.25-12.2,16.67-4.6-3.73-4.92-7.02-2.57-12.42,1.32-3.03,4-4.12,4.95-6.05,3.19-6.51.38-13.27.5-19.4.18-9.29,2.68-23.26,1.02-32.02-.78-4.14-14.07-11.71-17.41-15.59-11.14-12.98-5.63-33.64-5.52-49.38.43-65.71-1.07-131.75-1.09-197.01,0-6.42-.81-46.27,1.28-48.3,1.86-1.81,4.69-1.62,5.71,1.31,2.51,7.22,1.14,29.96,1.09,38.99-.29,55.89-1.3,112.2-1.08,167.92.09,22.89-1.58,49.78,1.02,72.06,1.09,9.31,19.67,17.6,22.76,25.24.68,1.69,1.14,5.7,1.3,7.7,1.26,16.25-1.24,33.9.24,50.29ZM1296.95,1202.21c.86-1.83.03-8.16-2.9-7.45-3.84,1.76-5.77,6.29-1.24,8.46l4.14-1.01Z"/>
  <path d="M208.1,826.87c.58-2.37,8.19-.52,7.05,2.95.07,83.69.2,167.52-1.11,251.06-.28,17.93,5.68,28.15-8.9,43.03-4.09,4.18-11.05,7.35-14.02,11.98l-.81,52.87c.41,2.15,10.07,5.7,8.37,12.6-1.2,4.85-6.79,10.44-12.1,10.1-1.17-.07-7.83-3.92-8.49-4.61-5.73-6,1-14.41,4.97-19.02l-.43-53.53,25.45-24.45v-283ZM190.09,1195.37c-5.13.55-10.17,6.31-3.27,8.8,5.32,1.92,4.58-5.5,3.27-8.8Z"/>
  <path d="M848.86,1295.56c5.98-.87,9.48,3.55,13.25,7.29l221.46.54,25.04,22.96,51.98,1.03c3.2-.6,2.82-4.54,5.51-6.49,4.96-3.61,10.28-2.63,14.53,1.45,8.38,8.04-1.67,24.81-13.27,17.27-2.2-1.43-2.54-3.44-3.7-4.3-4.38-3.26-50.13.58-59.05-.95l-23.53-23.47c-23.03-.89-46.38-.53-69.53-.55-38.1-.03-76.71.12-114.92,1.09-6.73.17-32.27-1.28-36.1.9-2.04,1.17-3.53,5.42-5.13,5.94-5.53,1.78-12.11-2.11-14.39-7.3-2.55-5.82,1.07-14.4,7.84-15.39ZM853.97,1301.51c-2.89-1.67-6.45,4.6-7.74,6.54l4.51,5.24,6.23-6.6-3-5.18ZM1169.35,1326.62c-3.33,3.29,1.84,10.68,5.12,9.69,6.14-1.86,2.99-15.23-5.12-9.69Z"/>
  <path d="M1216.75,133.71c-8.7-8.4-11.41-10.57-24.11-11.39-29.7-1.92-60.38,1.03-89.99,1.09-27.93.05-55.09-.93-83,0-3.96.13-13.97-1.32-16.26-.8-5.22,1.19-10.84,13.92-20.93,5.4-16.56-13.98,8.99-31.55,19.08-10.98,1.65-.45,3.28-.74,5.02-.72,57.23.37,114.73-.5,172.01,1.09,9.26.26,22.45-1.33,30.98.02,2.25.35,2.95,1.21,4.58,2.42,13.27,9.86,18.48,29.24,40.51,26.54,25.48-3.12,7.95-52.01-8.95-26.95-3.64,5.4,4.18,2.79,8.19,4.6,5.98,2.7-.06,13.17-9.04,11.13-11.49-2.6-9.73-19.02-1.67-25.25,11.07-8.56,29.73-1.67,31.88,12.01,3.84,24.47-13.96,36.74-36.72,29.72-10.84-3.35-14.22-10.84-21.57-17.93ZM993.85,124.12c3.9-8.45-2.19-12.8-9.61-7.59-.12,5.19,4.22,11.13,9.61,7.59Z"/>
  <path d="M621.39,1316.07c-1.66-1.34-2.41-5.58-4.76-5.78l-216.08.03c-3.41.46-12.15,9.92-14.96,13.04-3.04,3.37-7.25,7.83-8.54,12-16.89-2.05-34.37-.65-51.49-.94-2.08-.04-4.34-1.21-5.94-1.05-3.04.29-5.56,6.02-8.22,6.8-9.91,2.9-17.35-4.34-15.08-14.09.76-3.27,6.97-7.53,10.3-7.77,7.24-.51,7.39,5.68,11.51,7.53,5.28,2.36,11.28.63,16.18.8,9.44.33,25.53,2.3,34.24.69,8.92-1.65,19.43-17.09,26.59-22.41,4.1-.29,8.35-1.33,12.42-1.58,65.62-4,136.09,2.3,202.08,1.08,9.95,1.23,12.33-13.4,22.84-7.91,7.47,3.9,10.15,12.14,3.66,18.41-4.1,3.96-10.07,4.94-14.75,1.16ZM629.08,1314.36l3.98-7.5-4.46-6.47c-5.03,4.68-5.73,7.69-1.58,13.35l2.06.62ZM311.97,1329.48l-6.38-2.84c-9.75,6.41,6.71,15.47,6.38,2.84Z"/>
  <path d="M223.27,130.17l2.23-7.9c1.53-2.22,10.45.78,9.59-2.38-3.54-5.86-13.17-8.77-18.91-3.95-13.78,11.58-2.46,29.91,13.45,30.47,18.72.66,25.31-20.79,39.25-28.77,45.66-1.98,91.91-1.71,137.77-1.33,9.45.08,65.46,3.03,69.05.15,1.21-.97,1.18-3.33,3.02-4.98,5.18-4.65,18.25-8.33,21.62.14,4.32,10.83-5.43,23.15-16.31,17.31-4.16-2.24-3.28-5.88-9.41-6.59-22.98-2.68-53.46,1.05-76.98,1.06-36.22.02-74.03-2.95-110.09-1.09-3.47.18-9.73.56-12.89,1.11-8.43,1.47-12.16,11.87-17.51,17.49-10.69,11.21-22.18,14.67-37.49,10.39s-19.64-20.75-13.07-33.95c6.73-13.52,25.64-14.92,33.96-1.94,3.99,6.22,2.1,15.2-4.43,18.47-7.44,3.73-7.71.29-12.85-3.72ZM494.02,114.44c-8.89-2.32-15.27,4.96-6.39,10.91l5.95-5.99.45-4.91Z"/>
  <path d="M220.83,1163.1c-1.37,1.33-5.57,1.79-6.32,4.72,1.31,33.66.29,67.4.55,101.09.02,2.61,1.07,5.05,1.09,7.91.05,8.91-1.56,17.64-1.05,26.55,38.14.7,76.41-.93,114.55-.05,3.91.09,7.65,1.71,12.02,1.09,6.23-.88,14.91-16.87,23.45-6.56,9.54,11.51-2.71,24.9-14.38,18.37-2.8-1.56-4.22-5.72-6.1-5.94l-130.08.12-5.32-1.19-1.18-57.4,1.1-13.91c.9-11.27-.95-23.04-1.1-34-.15-11.03.59-21.04.02-32.01-.07-1.24,1-2.76.8-3.92-.25-1.4-4.43-4.26-5.62-6.26-6.25-10.52,3.64-20.85,14.62-15.62,3.53,1.68,6.76,13.3,2.96,17ZM214.96,1160.23c2.66-1.67,1.6-14.34-6.39-7.89-6.52,5.27,2.48,10.34,6.39,7.89ZM355.76,1301.58c-6.32.57-7.15,10.3.77,9.78,8.82-.59,4.49-10.25-.77-9.78Z"/>
  <path d="M1266.1,1303.37l-1.01-159.49,6.56.44c2.97,21.62.32,43.7.41,65.59.12,26.55.53,53.24.08,79.99-.11,6.48-1.35,12.77-.14,19.37-3.41,1.1-6.64-.28-10.32.17-8.54,1.05-13.85,2.16-23.12,1.96-34.77-.75-70.37-2.39-105.01-.1-16.51,22.08-33.86-9.96-13.47-15.48,9.24-2.5,12.66,7.53,14.53,7.53h131.5ZM1117.35,1309.12c3.17,2.9,12.95.21,11.69-4.13s-10.7-2.79-12.45,1.35c-.34.81.22,2.28.77,2.78Z"/>
  <path d="M175.51,592.03c.21.38,1.53.24,1.5.77-1.13,4.04-3.74,11.66-8.43,12.54-11.8,2.23-20.1-4.09-15.21-16.22,1.59-3.95,6.22-6.57,7.22-8.78,2.36-5.21-.43-31.23-.51-39.45-.41-40.4,1.55-80.66-.06-121.03-.1-2.52,1.37-8.36.82-10.88-.33-1.49-5.8-5.87-6.95-8.91-1.76-4.65-.98-11.63,1.62-15.82,8.78-2.56,20.27-.34,20.52,10.71.2,8.69-9.08,10.84-9.51,13.85.21,4.88,1.5,10.24,1.64,15,1.37,45.8-.06,92.34-1.09,138.01-.09,4.09-.65,17.84.56,20.52.85,1.88,5.77,5.77,7.89,9.68ZM159.74,390.47c-6.49,9.08,8.56,15.5,8.94,2.88-2.34-1.61-6.07-3.83-8.94-2.88ZM161.81,589.56c-8.69,2.62,4.73,17.86,7.08,7.07,1.18-5.39-1.58-8.73-7.08-7.07Z"/>
  <path d="M1323.74,384.77c4.48,2.21,5.7,11.19,3.84,15.58-1.3,3.06-8.25,5.5-8.41,8.44,1.6,57.13,1.51,114.92-.15,172.11.38,2.43,9.44,5.93,9.16,14.98-.53,17.03-32.9,12.22-22.65-7.57,1.7-3.28,4.7-5.26,7.04-7.96l.57-169.53c-.53-3.96-5.8-6.8-7.27-11.73-.9-3.04-1.4-9.42.19-12.06.63-1.03,1.92-.41,2.66-.97.81-.61.85-2.12,1.99-2.53,2.76-.99,10.22-.14,13.01,1.24ZM1315.63,389.77c-7.38-.37-4.89,9.05.83,10.52,5.63-2.51,5.36-10.21-.83-10.52ZM1318.8,600.05c3.95-3.42,2.99-12.25-3-10.55-6.76,1.92-2.95,15.7,3,10.55Z"/>
  <path d="M283.09,1281.36c-4.86.23-7.07-5.53-9.97-8.52-11.62-11.99-26.22-21.86-30.04-39.47l-6.61,24.53c1.82,3.96,6.31,5.37,9.01,7.39s-6.47,9.06-8.89,9.18c-3.64.18-7.54-2.96-8.91-6.19-4.14-9.78,1.03-11.12,4.2-18.63,12.04-28.53-.78-36.3-2.65-61.91-.54-7.39,2.75-14.09-1.13-20.36,2.36.21,6.93-1.07,7.83,1.66,1.95,19.55,3.5,40.47,11.31,58.69,5.65,13.19,16.73,26.21,25.86,37.14,4.25,5.09,11.5,8.03,9.99,16.5Z"/>
  <path d="M191.1,999.36c-2.58-.4-6.49-2.97-6.98-5.51-1.1-5.68-1.5-16.15-1.64-22.15-.61-26.8,1.71-54,.67-80.87-.78-6.41-6.7-5.22-7.11-12.93-1.19-22.28,33.49-10.71,18.07,7.98-.92,1.11-2.93,1.58-3.5,2.5-1.8,2.93.43,8.14.53,11.46.41,12.8-1.11,25.39-1.08,38.09.03,14.59,2.7,30.35,1.11,45.02-.59,5.41-4.96,10.96-.07,16.42ZM187.59,872.82c-4.47.03-7.33,4.34-4.55,8.1,8.35,4.22,13.19-8.16,4.55-8.1Z"/>
  <path d="M202.09,1315.37c2.2,8.54-6.72,14.09-8.53,20.96-1.43,5.42-.32,12.57-4.49,17.51l-34.97,9.53c.36-11.55,9.03-20.91,9.48-33.02,12.71-5.5,24.61-12.61,38.51-14.98ZM191.09,1325.37c-1.08-1.08-8.62,5.7-10.09,6.4-2.85,1.37-9.98,2.14-11.94,4.06s-.46,5.4-1.17,7.83c-.61,2.11-6.08,5.47-4.8,9.69,5.15-1.05,16.94-3,20.46-7.03s1.7-9.88,2.98-14.02c.87-2.84,4.51-3.87,4.55-6.94Z"/>
  <path d="M186.97,119.5c3.51,15.28,13.17,28.17,18.12,42.87-12.92-8.62-28.85-10.88-41.49-20-.04-12.09-10.82-19.94-9.49-32l32.87,9.12ZM179.86,125.61c-5.71-1.95-10.42-6.2-16.76-6.24l5.54,15.95c3.25,5.67,9.87,5.51,14.38,7.62,1.67.78,9.26,7.19,10.07,6.42l-13.24-23.75Z"/>
  <path d="M1282.39,156.68c-1.83,1.24-2.93,5.53-7.26,1.19,6.45-11.92,13.35-25.03,15.44-38.55l1.11-.84c11.66,3.19,19.97-8.48,31.44-7.68,2.78,1.98-1.89,10.58-2.57,13.51-2.11,9.15-.54,17.77-10.75,22.25-6.14,2.7-22.83,7-27.41,10.12ZM1317.1,119.38c-6.96.73-12.75,5.83-19.96,5.04.64,3.65-9.49,21.08-8.03,22.95l19.57-8.92,8.42-19.07Z"/>
  <path d="M1315.85,1330.62l9.81,31.77c-2.69,3.63-19.01-3.68-23.12-4.97-4.4-1.38-9.34-.6-12.96-4.09.8-14.42-8.38-26.53-14.49-38.95l40.75,16.25ZM1296.74,1329.75c-1.58-1.02-3.55-2.63-5.12-3.42-1.19-.6-2.2-1.27-2.52.56-.17.96,2.86,4.56,3.5,6.48,1.27,3.79,1.09,10.57,3.47,13.53,2.07,2.58,16.45,7.88,19.09,6.03,3.48-2.45-1.49-6-2.3-7.82-2.43-5.51.53-7.54-7.07-10.93-4.33-1.93-5.01-1.82-9.05-4.43Z"/>
  <path d="M334.09,1161.39c.99,1.44-5.58,6.82-6.83,8.65-9.07,13.33-7.69,30.68.99,43.68,5.82,8.71,18.68,17.41,29.4,17.69,2.55.07,4.87-1.3,7.44-1.03l-1.45,4.75c-5.42-2.05-10.21.85-15.96.15-5.39-.65-13.36-5-17.6-8.4-18.53-14.91-21.58-37.69-10.16-58.18,3.57-6.4,6.27-12.48,14.16-7.31Z"/>
  <path d="M267.78,226.06c-11.2,13.16-36.02-5.91-21.71-21.22,13.25-14.17,34.55,6.13,21.71,21.22Z"/>
  <path d="M195.8,746.07c-.25.25-5.89,3.24-6.24,3.3-3.62.69-8.77-1.72-12.76-1.21l-8.45-8.02c-1.88-3.25,4.03-14.11,6.69-16.34s12.12-4.2,15.35-3.24c2.81.84,8.28,11.41,8.64,14.4.34,2.8-1.37,9.26-3.23,11.1Z"/>
  <path d="M736.84,123.6c13.68-2.18,20.95,10.71,15.75,22.76-4.38,10.15-25.03,5.18-28.02-5.96-1.99-7.42,5.08-15.65,12.27-16.8Z"/>
  <path d="M1303.83,723.64c2.6,1.63,8.84,14.61,7.07,17.53-2.93.68-3.41,3.53-5.43,5.06-3.71,2.79-12.07,4.56-16.34,2.62-1.23-.56-7.11-6.97-7.57-8.42-2.59-8.26,5.04-19.93,13.94-19.02.82.08,7.97,2,8.34,2.23Z"/>
  <path d="M730.44,1346.03c-5.17-5.21-6.57-15.37-.83-20.65,9.28-8.54,18.08-6.67,22.99,4.99,6.12,14.54-12.4,25.49-22.16,15.66Z"/>
  <path d="M1272.1,644.37l-8.07-1.63c3.48-11.87-1.51-28.58,2.01-39.94,2.5-8.08,16.98-21.84,25.04-23.99,4.17-1.11,11.26,1.87,8.59,5.61-.56.78-13.66,6.22-17.04,8.96-3.01,2.44-7.98,8.27-9.06,11.94-1.61,5.45-2.43,20.37-2.52,26.51-.06,4.44,1.19,8.19,1.06,12.53Z"/>
  <path d="M177.1,583.36c-2.28-2.37,7.82-5.4,10.24-4.81,2.02.5,13.1,7.25,15.1,8.98,15.52,13.52,11.39,24.94,11.62,42.39.09,6.44,5.27,18.5-5.45,16.45-5.09-.97-.81-6.97-.5-10.5,1.06-12.12.87-27.91-5.58-38.43-3.47-5.67-19.01-11.99-25.42-14.09Z"/>
  <path d="M494.94,1350.53l1.91,4.35c-5.66,7.73-17.55.07-25.08,2.65-1.95.67-3.87,6.07-5.73,7.27-13.15,8.5-27.72-12.9-13.31-20.31,8.24-4.23,13.96,1.16,19.9,5.85l22.31.19ZM457.84,1349.56c-8.07,1.68-1.42,11.72,2.56,10.7,5.81-1.49,5.48-12.37-2.56-10.7Z"/>
  <path d="M984.1,1350.37h22.5c.2,0,.82,1.02,1.52.57,2.11-1.36,1.53-6.67,7.56-7.55.79-.11,10.18-.16,10.85-.04,7.42,1.31,9.02,16.18-.54,20.41-13.22,5.84-12.84-3.38-18.61-5.18-4.23-1.32-25.21-.23-25.24-3.71l1.95-4.51ZM1021.6,1348.7c-5.54,0-7.11,8.01-2.07,11.73,7.08,5.23,10.81-11.73,2.07-11.73Z"/>
  <path d="M1302.4,710.08c-5.13-6.16,5.75-22.83,14.71-20.31,3.12.88,9.13,5.58,10.21,8.86,5.85,17.78-17.94,19.83-24.92,11.45ZM1312.74,696.48c-5.41,1.82,2.53,16.17,6.61,6.6,1.85-4.32-2.63-7.95-6.61-6.6Z"/>
  <path d="M160.87,689.57c6.36-1.53,16.73,4.88,18.02,11.54,3.48,17.96-31.78,19.06-26.1-2.56.89-3.38,4.65-8.16,8.08-8.98ZM172.06,698.43c-9.49-5.11-17.1.55-8.25,8.78,6.48,1.2,8.07-3.23,8.25-8.78Z"/>
  <path d="M174.85,759.62c4.39,4.09,4.05,11.86.68,16.67-8.03,11.47-26.6,3.44-23.21-11.22,2.06-8.92,17.01-10.61,22.53-5.45ZM160.35,764.62c-5.43,4.51,6.85,14.34,11.01,5.51,3.49-7.4-8.56-7.54-11.01-5.51Z"/>
  <path d="M1305.41,777.06c-11.11-13.26,3.82-26.13,17.64-17.14,7.84,5.1,6.51,14.33-1.03,18.87-5.54,3.34-12.24,3.48-16.61-1.73ZM1312.8,764.54c-4.28,1.3-5.56,10.21.72,9.84,8.06-.47,6.79-12.12-.72-9.84Z"/>
  <path d="M400.85,1318.57c2.8-.53,8.2.43,10.64,1.91,6.95,4.21,5.91,19.9-2.33,22.44-19.7,6.08-22.81-21.6-8.31-24.35ZM408.85,1334.12c.86-.82,1.19-2.6.83-3.79-2.36-5.36-8.63-5.03-11.46-.27-1.79,5.9,7.8,6.77,10.62,4.05Z"/>
  <path d="M581.85,1257.56c10.73-2.04,18,17.17,6.52,22.58-15.62,7.37-21.38-19.75-6.52-22.58Z"/>
  <path d="M856.84,349.6c14.66-2.54,18.89,20.19,2.78,20.83s-13.98-18.89-2.78-20.83Z"/>
  <path d="M1299.76,1109.03c-16.13,16.11-32.9-25.49-4.22-20.6,9.17,1.56,9.85,14.97,4.22,20.6ZM1297.5,1098.73c0-2.91-2.36-5.27-5.27-5.27s-5.27,2.36-5.27,5.27,2.36,5.27,5.27,5.27,5.27-2.36,5.27-5.27Z"/>
  <path d="M181.81,1087.58c24.04-5.47,22.37,27.88,1.26,22.31-9.68-2.55-9.88-20.35-1.26-22.31ZM185.81,1094.57c-1.68.5-4.88,4.45-4.55,6.15,1.38,2.24,4.32,4.92,7.12,4.49,7.73-2.05,6.03-13.21-2.56-10.64Z"/>
  <path d="M1070.8,1319.58c20.29-5.96,23.24,29.35,0,22.58-8.01-2.33-8.18-20.18,0-22.58ZM1074.81,1325.5c-1.78,1.28-5.23,3.73-4.6,6.16,1.21,2.08,4.68,5.22,7.18,4.57,7.17-3.82,4.6-9.85-2.58-10.73Z"/>
  <path d="M747.98,251.24c-11.13,2.9-25.95-8.12-14.39-17.88,11.32-9.56,20.72,7.76,14.39,17.88Z"/>
  <path d="M283.88,132.58c9.48-.39,14.56,14.15,4.96,18.03-16.92,6.83-20.09-17.41-4.96-18.03Z"/>
  <path d="M398.81,618.67c8.58,6.77,3.72,23.57-9.46,17.94-10.25-4.39-1.6-26.67,9.46-17.94Z"/>
  <path d="M1189.78,133.56c16.3-5.08,20.41,21.58,3.06,18.58-10.35-1.79-9.48-16.58-3.06-18.58Z"/>
  <path d="M1228.39,210.07c-3.55-2.82-5.29-7.67-2.74-11.65,6.78-10.59,19.59-7.12,17.21,6.22-1.19,6.68-9.69,9.23-14.47,5.43Z"/>
  <path d="M192.84,233.63c.99,1.19,1.39,5.3,1.08,6.98-2.44,13.43-24.34,8.76-18.32-4.25,2.22-4.8,5.57-6.99,10.96-5.95.69.13,6.04,2.92,6.28,3.22Z"/>
  <path d="M1293.61,229.79c11.12.34,14.74,18.07,2.9,19.56-15.31,1.92-12.31-19.85-2.9-19.56Z"/>
  <path d="M992.82,545.64c3.6,3.63,3.58,10.06-1.17,12.78-10.49,6.01-18.66-3.55-13.33-13.82,3.55-2.41,11.59-1.89,14.5,1.04Z"/>
  <path d="M669.87,1027.58c3.61,3.75,8.98,3.49,8.22,11.19-1.72,17.35-36.1-2.88-8.22-11.19Z"/>
  <path d="M1294.82,1224.66c6.25,5.09,3.13,18.09-8.01,15.49-14.8-3.45-1.96-23.61,8.01-15.49Z"/>
  <path d="M189.81,1224.58c14.09-3.22,16.46,10.62,5.87,14.86-12.8,5.12-16.6-12.4-5.87-14.86Z"/>
  <path d="M621.33,252.6l8.32-2.19c14.79,5.45,3.13,24.17-8.08,13.99-3.89-3.53-2.55-7.88-.24-11.8Z"/>
  <path d="M995.8,576.52c3.34-.79,9.88,4.37,10.15,7.52.18,2.04-6.52,7.19-8.43,7.36-7.48.66-8.49-13.28-1.72-14.88Z"/>
  <path d="M701.81,782.59c3.83-1.13,8.37-.39,10.14,3.51.97,3.62-2.82,7.3-5.55,9.12-5.26.12-9.25-3.76-8.12-9.12.35-1.21,2.31-3.15,3.53-3.51Z"/>
  <path d="M517.41,1015.08c-4.77-5.96,5.51-18.53,12.21-12.72,10.99,9.53-2.84,24.42-12.21,12.72Z"/>
  <path d="M278.09,633.37c-3.95-4.08-6.53-10.6-7.98-16l7.24,10.25.74,5.75Z"/>
  <path d="M591.68,291.95c7.01-6.01,8.98-18.07,19.45-8.87.16.65-.83,11.61-1.08,12.74-1.2,5.32-7.42,18.41-10.07,23.93-29.43,61.38-86.48,97.51-156.08,84.33-43.08-8.16-91.12-42.24-136.05-28.46-3,.92-15.05,8.02-17.76,10.24-29.52,24.27-32.18,80.88,1.69,102.33,19.89,12.59,43.88,13.12,59.3-6.32.05-2.44-10.84-1.13-13.24-1.74-.97-.25-9.98-5.4-10.77-6.23-6.72-7.03-6.86-23.1-.51-30.56,13.64-16,41.24-6.86,43.53,13.53,1.23,10.94.65,22.81-5.98,31.75-16.32,22-50.17,25.84-74.38,14.61-19.5-9.05-42.5-38.4-46.39-59.61-9.32-50.77,9.57-100.2,48.27-133.22,26.62-22.72,59.61-32.99,94.97-31.01,17.97,1,37.55,8.66,54.75,14.25,38.7,12.59,77.88,29.49,119.8,18.27,5.97-1.6,25.35-15.51,30.54-19.96ZM560.09,336.37c-3.89,1.08-7.01,4.16-10.7,5.79-62,27.32-111-6.64-168.9-19.69-31.22-7.03-61.31,2.84-84.92,22.87-4.72,4-9.58,4.51-11.47,12.02l14.32-10.17c13.17-6.89,40.58-17.17,55.19-16.89,32.06.63,65.84,20.31,96.66,27.4,37.06,8.52,71.86,10.29,103.33-14.32l6.49-7Z"/>
</svg>