<?xml version="1.0" encoding="UTF-8"?>
<svg id="Layer_1" data-name="Layer 1" xmlns="http://www.w3.org/2000/svg" viewBox="0 0 1437 1536">
  <path d="M699.27,312.86c.31,4.5,9.74,1.61,8.9,7.19-1.15,7.68-10.75,19.24-12.45,27.62-27.28,48.37-74.75,86.1-131.81,91.04-63.04,5.46-131.43-59.77-191.66-22.78-30.13,18.5-47.8,58.9-28.2,91.76,19.76,33.12,64.81,35.69,84.43,1.47-.12-2.28-10.96-.33-13.51-.46-17.13-.86-26-14.2-20.36-30.42,3.94-11.31,17.29-19.39,28.89-14.08,2.13.97,12.26,10.81,14.01,12.97,15.58,19.3.15,52.12-20.31,61.68-43.78,20.45-85.85-5.18-96.31-49.98-7.18-30.76.21-53.12,12.21-81.1,13.3-31.02,40.04-54.94,66.4-74.4.68-.5,3.69-.15,5.23-.81,28.13-12.2,49.67-18.65,81.22-16.75,59.18,3.55,122.71,55,181.32,21.41,6.59-3.78,15.03-9.76,21.06-14.91,3.32-2.84,6.16-6.61,9.51-9.49l1.42.04ZM650.36,368.78c-8.89,2.19-18.17,8.11-26.76,10.7-56.82,17.15-101.85-16.02-154.35-23.97-37.87-5.74-65.4,5.6-94.76,28.68-2.55,2-6.93,1.49-5.92,5.56,8.73-5.69,18.21-9.61,27.65-13.81,3.25-1.44,7.66-4.83,10.28-5.71,70.13-23.77,125.55,35.66,195.11,23.23,18.8-3.36,34.68-12.23,48.76-24.68Z"/>
  <path d="M1054.86,402.53c-1.63-.46-4.29-4.48-4.55-6.44-1.6-11.96.98-27.69,1.1-39.98.21-20.68.32-41.56-.01-62.05-.06-3.9-1.88-8.21-1.05-12.45-.53-.7-12.19,9.6-14.06,10.42-2.3,1.01-18.55,4.47-18.81,7.04,1.82,5.84,7,9.9,9.92,14.99,5.99,10.46,8.16,26.54,2.53,37.57-2.3,4.51-6.18,5.74-8.58,8.69-8.28,10.18-13.2,18.87-9.68,32.43,4.84,18.65,27.97,24.84,33.69,42.76-5.61,2.29-5.23-2.53-7.29-4.7-4.44-4.68-14.12-10.13-19.24-15.24-7.19-7.18-11.3-16.53-17.48-24.5-10.52-13.56-24.41-21.83-27.73-40.23-4.77-26.37,8.1-46.89,28.1-62.48-.53-6.29-1.26-14.77-.11-21,.82-4.4,8.58-20.82,11.74-23.96,3.77-3.75,2.85.5,3.52.24l5.5-1.99c1.06,3.18-4.71,6.92-4.91,7.56-.9,2.84,2.73,4.47,2.92,2.92l.98-3.49c-1.38,8.92,3.05,6.44,7.38,9.11,6.92,4.27,12.58,13.97,21.56,10.82l-.09-32c-7.04-.11-14.16-.34-21.22-.18-65.83,1.46-132.22.78-198.27,0-16.11-.19-62.68,2.84-74.59-1.77-14.64-5.67-22.23-22.42-20.06-37.26,4.06-27.69,23.75-39.43,50.53-34.87,17.02,2.9,31.44,30.06,15.15,40.05-18.48,11.33-34.49-15.44-12.79-21.62,5.71,3.66-1.25,12.25,0,14.83,2.56,5.25,13.54.42,13.5-6.44-.01-1.77-3.77-11.49-5-12.91-2.45-2.84-13.57-7.99-17.35-8.43-11.83-1.38-25.31,5.15-31.72,14.94-11.37,17.36-6.54,46.16,17.76,46.62l196.42-.04,23.01-21.62c24.49.15,49.38-1.34,73.67.79,1.15-8.14,9.2-11.16,16.62-8.18,15.3,6.16,3.66,26.57-11.65,19.59-3.33-1.52-4.73-5.34-6.41-5.54h-71l-12.7,15h80.94c.38,3.35,1.94,6.89,2.03,9.87.16,5.18-.11,11.23.01,16.9,1,46.58.13,92.8-.05,139.45,48.08-.25,96.31.27,144.44.04,2.09,0,4.18-1.17,5.91-1.02,7.26.6,3.62,7.74,3.5,12.42-1.02,39.26.84,78.68.07,117.95l16.32,21.5v-95.07c2.8-5.54,6.96-4.08,10.64-.36.52,2.2-1.55.95-2.3,2.71-3.12,7.33-.73,11.59-.65,18.22.22,19,.04,38.05,0,57.05-.01,5.85-1.54,12.48-.06,18.73.2.84,4.28,2.2,4.08,5.14l-4.06,3.54c5.34,2.81,16.36,13.97,17.78,19.71,1.33,5.38,2,17.77,2.25,23.73.34,8.25-2.6,34.7.08,39.89,2.01,3.88,5.3,3.31,4.91,10.08-.88,15.48-24.82,6.41-18.44-5.39,1.15-2.12,4.47-3.79,5.49-5.52,1.74-2.96-.07-10.18-.1-13.98-.11-12.99,1.54-31.88.05-44.05-.82-6.72-7.7-14.48-13.01-18.46,2.59,28.76.1,57.7-.05,86.49-.02,2.86,1.11,5.54,1.06,8.92-.06,3.61-1.39,14.56-5.66,15.36l-4.36-2.36c5.6-6.13,2.99-10.47,2.96-16.93-.12-25.34,2.66-58.64-.07-82.87-.15-1.3-.61-3.58-1.38-4.61l-14.37,16.61c-2.7,23.84-.53,48.59-.5,72.66.01,11.44.34,22.77.46,34.13.27,24.45-8.22,60.94,29.28,60.38,39.03-.59,54.7-54.67,14.1-66.49-3.57,2.13-11.84,9.77-8.56,14.18,3.01,4.05,5.1-2.67,7.78-3.41,6.97-1.95,5.29,8.97,5.22,12.79-12.16,3.64-27.55-8.96-18.93-21.43,16.07-23.23,43.96,2.62,45.96,23,3.3,33.77-35.98,60.3-65.82,43.84-6.9-3.81-16.77-24.87-16.77-24.87v-324l-1.5-1.5h-147.95ZM1069.81,205.01c-.87.12-2.8,1.12-3.25,1.85-1.35,3.28-.66,10.52,3.96,10.05,6.03-.61,5.96-12.81-.71-11.91ZM1040.09,271.84c-3.91.02-4.59-3.48-7.25-5.25-2.99-1.98-9.14-2.87-11.75-5.29-.64-.6-1.7-5.77-4.55-6.41-2.46-.55-5.91,9.57-5.3,11.82.61.97,8.29,2.52,9.82,3.66,1.71,1.27,1.78,4.13,2.12,4.39.15.12,1.51-.76,2.23-.57,3.25.84,5.44,2.1,9.1,1.6,1.21-.17,7.28-2.18,5.57-3.95ZM1012.09,270.84l-1.98.49c.37,2.27-1.12,11.98,1.53,12.49l12.46-4.01c.75-3.15-3.27-2.28-5.22-3.26-2.21-1.12-6.56-3.34-6.79-5.71ZM1049.9,277.66l-1.31-4.82c-12.22,11.5-32.76,12.02-46.36,21.58-4.64,3.26-13.38,13.22-17.07,17.91-.93,1.18-5.19,6.15-4.02,7.47,4.1-1.1,5.16-5.53,7.33-7.66,13.58-13.35,21.19-15.87,38.41-22.04,8.38-3,15.7-7.46,23.02-12.43ZM1030.09,338.78c1.49-13.87-6.76-22.51-13.84-32.62-1.27-1.82-.93-6.35-4.62-5.35-5.66,1.53,6.01,9.7,6.94,11.03,3.11,4.41,8.07,13.52,9.3,18.68.65,2.74-.96,6.93,2.23,8.26ZM1019.1,320.79c-.26-10.13-9.79-10.16-16.49-14.66l-8.49,7.19,1.68,2.3,23.3,5.17ZM1022.1,337.78c-.48-3.87-1.03-8.64-4.63-10.85l-27.02-9.01-9.29,11.38c.69.98,1.29,1.31,2.47,1.5,9.21,1.5,20.8.99,29.71,3.27,3.56.91,5.53,2.62,8.77,3.71ZM1026.1,337.78c.21-4.31-.59-12.03-5.99-12.98,1.68,3.45,2.68,7.01,3.89,10.64.52,1.56-.88,2.86,2.1,2.34ZM1024.1,350.77l-3.68-9.8c-10.3-1.5-20.61-3.7-30.92-5.05-4.45-.58-8.77,1.18-12.35-2.13-.55.78.25,14.82,3.94,14.54l43.02,2.44ZM1016.1,354.51c-1.38-1.18-31.86.62-35.96-3-.24,4.88,3.99,8.3,5.66,13.03l23.64-.2,6.65-9.82ZM1008.1,387.75c-.57-6.85.43-12.69,3-18.98-5,2.84-4.21,10.41-3.99,15.5.05,1.22-.76,3.71.99,3.48ZM1007.11,369.53h-16.99c4.18,7.81,9.87,14.66,15.98,20.99-2.15-7.39-3.23-13.95,1.01-20.99ZM1210.97,537.16c.57,12.44-.42,25.03,0,37.48,3.78-3.28,15.69-13.85,15.98-18.56.37-5.89-11.12-16.46-15.49-20.41-3.06-.24-.51,1.03-.49,1.49ZM1253.9,651.55l.64-3.5c-10.2-8.19-16.34,3.11-.64,3.5Z"/>
  <path d="M321.09,832.46c-8.12,1.45-16.69,17.55-16.52,25.44.12,5.33,4.61,15.18,9.78,17.27,5.29,2.14,19.15,3.15,21.22-4.22-.42-1.98-10.44-.1-8.97-9.92.98-6.55,12.4-7.11,15.03-3.9,7.75,9.46.19,25.93-11.53,27.33-15.37,1.84-29.22-4.34-31.23-20.79-2.24-18.4,3.52-29.38,19.7-37.7-15.92-14.92-22.99-36.17-14.18-57.15,3.29-7.83,8.44-16.72,18.18-16.29-1.22,9.41-5.47,13.1.2,22.29,8.51,13.8,22.6,19.93,34.25,29.7,33.1,27.77,43.69,70.5,37.4,112.3-4.57,30.38-19.49,56.33-42.85,76.05,11.33,8.32,21.55,21.34,28.14,33.8,2.72,5.15,4.59,11.82,7.04,16.94,1.29,2.69,4.85,3.65,3.76,7.72-2.3-2.29-2.19-2.91-5.41-4.03-36.54-12.69-71.36,5.35-93.48,34.53-4.95,6.53-17.41,26.54-20.26,33.71-1.35,3.4-7.4,26.54-7.73,30.24-2.33,26.21-4.05,52.68,7.79,77.12,1.47,3.03,3.65,7.06,6.17,9.31-3.62-7.1-1.47-10.99-1-17.5.26-3.59-.26-7.05.27-10.72.5-3.49,3.29-7.48,3.49-9.4.3-2.99-2.91-5.82-1.31-11.44,1.43-5.02,15.59-6.91,18.11,1.05,2.31,7.26-6.2,8.52-5.57,15.04l-5.98-4c-8.15,30.95,3.51,58.84,25.27,80.64,17.45,14.32,38.46,21.86,60.22,27.23,8.4,2.07,16.68,3.77,25.42,3.06l-1.57,6.05c-4.86-.38-9.99.37-14.81-.17-17.23-1.93-35.96-7.82-51.46-15.49-18.01-8.92-36.94-25.86-58.31-23.12-6.37.82-15.31,5.16-17.35,11.71-.98,3.15,1.75,5.47,1.57,8.45-.38,6.22-10.83,8.43-11.87,1.01-1.34-9.6,2.71-16.09,9.88-21.94,13.21-10.78,21.93-6.92,37.26-4.23,6.49,1.14-3.68-6.77-5.28-8.74-13.88-17.22-27.08-44.28-32.72-65.22-10.56-39.25-9.5-77.31-.81-117.22,6.04-27.74,22.64-55.24,30.57-82.36,1.77-6.06,2.09-14.34.49-20.55-1.4-5.45-10.13-12.32-15.89-12.88-2.13,2.93-4.88,5.22-8.61,5.93.46,1.74,3.7.87,5.74,1.74,4.97,2.12,3.88,7.58,2.36,11.66-12.08,2.33-16.51-3.96-13.89-15.7.72-3.21,6.75-7.45,9.75-8.24,16.73-4.4,28.98,10.51,29.05,26.06.07,16.36-13.23,43.45-19.53,59.4-2.44,6.19-7.05,12.67-7.48,19.99l6.45-10.02c1.19-5.69,5.16-13.45,8.34-18.65,9.17-15.02,24.93-30.43,38.7-41.26l.4-2.39c-19.89-14.45-21.78-44.73-9.76-64.91,18.75-31.47,78.01-38.66,65.32-84.66-7.62-27.64-30.02-32.18-47.02-49.91-7.11-7.42-12.15-15.22-11.49-25.99-1.57.71-3.21,4.16-3.78,5.7-7.88,21.18-.43,38.62,16.28,52.26,3.18,2.59,8.02,3.43,10.49,7.51l-1.49,2.48c-4.57.56-10.68-.77-14.99,0ZM308.61,941.39c6.2-6.82,12.11-14.12,19.5-19.96,16.59-13.13,39.52-20.6,52.41-37.53,9.95-13.07,6.23-20.15,1.01-34.44l-2.5,16.97c-11.9,28.73-45.3,34.07-62.86,57.06-3.6,4.72-8.3,11.88-7.57,17.9ZM383.46,914.33c3.12-9.65,6.03-19.77,4.08-29.9-8.71,11.17-20.18,19-32.96,25-1.39,1.41.06,1.82,1.47,1.99,9.08,1.06,18.38,1.24,27.41,2.91ZM379.24,930.09c1.03-1.15,3.66-7.76,3.25-9.07-.5-1.6-4.15-2.07-5.7-2.34-6.11-1.08-22.25-3.72-27.7-3.28-6.23.5-9.26,4.66-14.49,7.03l.49,1.99c12.58.5,25.03,4.57,37.1,7.95,2.25.5,5.55-.59,7.06-2.27ZM374.55,937.4c-15.04-2.07-30.06-7.17-45.51-8.53-5.22,1.42-9.37,4.98-10.44,10.52l46.41,9.96,4-2.01,5.54-9.94ZM351.27,986.06c9.14-8.27,23.12-25.93,28.46-36.99,1.36-2.82,7.18-17.77,5.8-19.67-5.91,6.43-9.05,15.71-14.35,23.11-19.03,26.61-49.87,40.06-71.55,64.36-11.93,13.36-23.07,30.59-29,47.44,7.36-8.83,13.41-18.78,21-27.45,18.65-21.3,40.23-33.25,59.63-50.8ZM363.56,953.39l-49.96-8c-.5.43,2.85,11.17,3.77,12.71,2.34,3.9,5.86,1.83,9.71,2.28,7.64.9,18.72,3.96,25.94,2.9,4.07-.6,7.44-6.98,10.54-9.89ZM308.31,954.38v15.49c0,2.78,12.03,14.52,12,18.49l8-4.51c.09-3.24-9.27-10.49-11.44-13.54-3.29-4.62-3.98-10.34-6.32-14.65-.64-1.18.03-1.67-2.24-1.27ZM348.57,968.38c-2.69.06-27.05-3.37-26.99-.5.76,4.02,4.78,3.69,8,3.5-.58,2.25-3.87,1.09-2.99,3.97l7.5,3.69c4.03-1.14,6.53-5.03,9.56-7.14,1.55-1.08,4.38.44,4.92-3.52ZM380.25,1033.62c-.62-.74-2.22-.98-3.16-2.3-9.16-12.91-15.48-26.56-30.16-34.88-12.89,7.26-.77,9.82,5.12,14.93,6.88,5.97,14.1,13.14,14.71,22.76l14.79,4.2c.11-1.67-.2-3.39-1.3-4.7ZM337.57,1004.35l-12.97,8.98c6.96.29,14.2-2.72,20.97,0,.55-3.55-4.46-1.65-6.46-4.02-.91-1.08-1.19-3.52-1.54-4.97ZM305.6,1031.32c4.65-.57,9.84-2.85,14.53-3,11.75-.38,24.1.37,35.98-.94,1.51-.17,2.48-.1,3.43-1.55-6.9-11.66-16.86-7.44-27.47-6.51-4.04.35-9.29-.67-12.96.03s-10.95,8.87-13.51,11.96ZM254.63,1158.26c1.16-7,1.87-15.23,3.45-22.04,10.56-45.37,43.68-93.81,93-100.87,2.7-.39,12.7,1.7,9.48-3.53l-62.33,6.64-10.61,13.37,5.93.55,1.05,5.93c-4.26,1.05-10.04-2.64-13.56-.06-1.16.85-7.19,9.59-8.45,11.53-2.17,3.33-4.59,7.91-6.49,11.5-3.68,6.93-8.72,15.04-8.48,23l-2.98-2.99-2.97,25.5c1.71,9.5-.24,20.61.96,29.97.18,1.37.75,3.14,2,1.49Z"/>
  <path d="M1203.31,1266.53l2-247.99c-8.96,1.52-18.15,2.94-26.97,0,.41,2.54,1.74,4.49,2.34,7.15,2.43,10.73,1.72,34.8.37,46.07-1.45,12.1-9.56,13.82-14.84,23.64-13.14-2.84.18-10.14,3.95-15.54,6.11-8.74,3.5-15.1,4.18-24.81.87-12.48,3.22-19.31-1.24-31.78-4.68-13.12-12.57-17.88-10.49-33.94,2.49-19.14,27.63-27.77,38.15-10.74,5.28,8.55,3.34,23.72-9.45,20.95.49-2.45,4.21-2.04,4.98-3.74,7.64-16.88-19.02-27.18-27-7.79-3.98,9.67,4.26,19.33,12.7,23.36,6.68,3.2,12.48,2.07,19.67,2.16l1.63,2.02c-.07-1.6.42-2.84,1.42-4.09,2.35-2.93,9.85-7.39,13.61-11.38,4-4.25,7.46-10.56,11.44-14.55,3.75-3.77,10.86-6.47,12.29-11.7,1.78-6.51,1.5-11.67-2.34-17.21-7.86-11.35-15.3-8.29-24.33-15.66-3.52-2.87-10.32-11.47-11.02-15.97,1.49-33.38-2.23-68.79-.05-101.93,3.98-60.73,84.49-39,83.01,7-.53,16.53-9.31,30.68-26.02,35.02-11.23,2.92-21.51-7.28-22.05-18.07-.58-11.76,19.66-14.78,23.08-3.98-.4,3.97-7.46,3.9-10.45,3.4l-2.11-3.87c-9.9,9.06,5.54,19.76,15.01,14.02,9.69-5.87,18.01-20.94,15.43-32.32-.16-.72-1.57-.76-1.87-1.5-4.62-11.15-10.8-20.97-21.76-27.03-7.87-4.35-28.63-3.45-35.32,3.58-12.9,13.57-8.6,27.64-8.93,44.78-.29,15.31-1.06,30.59-1.08,45.92-.01,8.05-1.37,32.49,2.01,38.07.75,1.23,7.09,7.37,8.52,8.47,10.6,8.16,20.54,5.33,25.94,21.04,5.8,16.85-1.07,23.11-12.43,34.49v1.23c5.26,2.37,8.69,9.46,12.49,14.13,2.23,2.74,5.64,3.29,6.51,8.52l-.89,95.13c7.93,1.74,6.95,11.11,7.01,17.56-4.9,4.69-14.76,3.72-18.8-1.75,1.29-3.77-.1-7.98,1.07-11.72,1.1-3.52,5.07-3.62,5.61-6.5l-.22-90.62c-5.38-5.87-6.93-14.58-15.78-15.7,2.32,3.48,2.77,10,3.04,14.45,1.26,20.88-2.68,43.9-1.08,65.07.59,7.81,6.77,15.07-5.99,14.02-2.23-1.41-.02-6.5.07-9.01.98-27.85-.65-55.95-.25-83.82l-3.77-2.7-13.76,20.66c-.06.9.74,1.56.74,1.83v249.71c-.98-.32-2.17,1-2.5,1h-31c-.17,0-2.42,1.04-2.59,1.66-.34,1.7,1.09,3.25,1.09,3.84v29l-1.5,1.5h-79c-.74,0-9.77,5.99-10.9,7.1-7.2,7.08-5.82,17.51-18.09,17.96-9.21.34-6.22-2.24-10.52-6.57-4.22-4.24-21.51-18.93-26.47-19.53-75.32.19-150.79-.63-225.97,1.07-10.25.23-30.11-1.8-38.83.17-2.88.65-15.23,8.89-17.73,11.27-13.49,12.83-10.65,35.6,2.04,48.01,4.14,4.05,17.8,9.04,23.39,8.51.73-.07,9.28-3.44,10.12-3.96,2.26-1.38,9.99-10.49,10.99-13.01,2.59-6.55.86-11.82-2.35-17.69-6.66-12.14-18.92-16.03-31.16-9.32,7.25,5.55,8.26,19.59-3.48,19.06-9.42-.42-11.15-11.78-7.73-18.79,1.61-3.29,10.25-10.07,13.77-11.23,12.81-4.25,25.56,2.75,33.32,12.57,2.61,9.63,9.23,14.48,5.36,25.11-1.7,4.66-14.64,19.97-18.86,22.14-3.77,1.94-21.73,1.63-26.09.35-9.09-2.67-21.77-18.28-23.85-27.15-5.55-23.74,7.33-46.26,30.75-52.39,9.07-2.37,13.04-.67,21.27-.63,77.52.35,155.04.02,232.53-.54-2.66-3.34-7.06-5.15-9.99-8.01-5.14-5.03-10.03-15.11-16.55-17.44-12.66-4.52-43.64-3.1-56.43,1.47-9.53,3.41-12,9.61-23.48,10.52-6.45.51-16.59.45-23.08,0-12.95-.88-21.12-8.92-32.44-14.05,9.27,18.11-14.18,29.53-20.9,10.7l5.38-6.69c4.76,1.83,2.16,10.15,6.87,8.86,5.17-1.41,4.93-12.09-2.07-13.66-12.91-2.89-25.76,4.57-37.52,8.05-36.65,10.85-83.19,23.78-119,4.47-7.23-3.9-19.69-14.44-6.78-19.73,6.11,13.43,24.08,19.49,37.77,21.74,18.4,3.02,41.29-1.75,59.45-6.03,21.42-5.05,53.87-20.73,74.3-14.72,12.84,3.77,23.01,13.11,36.94,14.05,5.15.35,19.39.75,23.83-.25,3.32-.75,10.84-6.6,14.71-8.29,14.4-6.31,38.79-6.89,54.48-5.48,19.04,1.7,19.83,12.61,32.04,22.96,12.24,10.38,33.08,17.32,46.43,28.56,2.32,1.95,4.63,8.1,5.62,8.36,6.62,1.76,6.91-10.79,9.44-13.39,1.28-1.31,17.39-11.52,18.48-11.52h73.52c1.01-9.57-.31-23.46,2.02-32.48.37-1.43,2.16-3.52,3.48-3.52h29.48ZM1247.57,1116.35l-1.5,2.27c1.35,2.14,4.1,8.61,7.35,7.64,4.3-3.86-.68-11.41-5.84-9.91Z"/>
  <path d="M508.42,1051.64l-.97,1.92c9.1,2.01,21.11,6.34,29.24,11.05,1.21.7.1,2.74,2.74,1.95l.99-1.99,1.51,4.99,1.48-3.99c-1.17,4.87,2.65,5.63,4.02,7.74,9.95,15.29,14.68,28.54,7.11,46.51,4.28,5.38,11.2,9.34,15.2,14.97,6.64,9.34,8.93,22.67,7.39,33.95-.48,3.5-6.23,21.6-7.74,24.99-.61,1.36-3.17,1.41-4.52,2.72-8.21,7.98-2.4,10.99-1.46,19.51,2.63,24.01-16.38,60.62-38.07,71.87-3.57,1.85-19.86,6.83-22.91,5.1-1.96-1.11-.15-1.69.74-2.29,5.13-3.39,11.66-4.34,16.94-7.04,5.03-2.57,24.69-20.8,25.17-25.84.19-1.95-2.94-3.43-4.35-4.33-6.7-4.3-14.24-7.73-21.5-10.97-.44.39,6.13,8.53,6.84,9.64,2.7,4.23,6.5,10.71,7.42,15.57.25,1.33,1.86,1.96-.75,1.75-6.66-5.6-10.67-15.05-15.68-22.3-2.77-4.01-7.45-4.95-4.83-10.66-15.11,19.24-31.79,32.79-54.69,41.74-34.41,13.45-64.92,11.06-97.88-5.58-55.02-27.79-65.1-87.71-56.01-144.31,6.6-41.08,49.77-68.55,88.98-49.56,31.45,15.23,36.62,60.91,8.17,81.76-15.82,11.6-46.57,7.73-53.67-12.28-3.36-9.47-2.3-25.79,7.81-30.58,28.24-13.36,30.91,38.54-1.61,21.88,2.15,25.15,37.38,25.27,50.4,7.93,21.97-29.27-1.73-68.33-36.74-67.51-77.82,1.83-76.46,132.3,13.69,124.41,34.79-3.04,60.92-31.99,66.35-65.56.63-3.89,1.98-17.41,1.04-20.56-1.48-4.94-11.65-.47-10.74-10.07,1.11-11.69,16.01-11.64,17.76.14,6.91,46.75-19.88,95.93-69.4,103.05-30.01,4.32-53.81-6.4-70.57-31.12-.82-1.21-5.83-12.65-7.75-10.73,2.02,15.09,3.5,32.75,9.6,46.86,31.71,73.43,132.56,82.85,183.29,23.62,15.91-18.58,20.09-44.49,5.41-65.42-6.48-9.24-21.12-16.19-32.41-15.04,1.6,3.1,5.06,3.58,7.53,5.95,14.58,13.9,13.31,41.78,4.3,58.34-8.78,16.14-30.77,33.56-49.33,35.62-3.46.38-7.4-.54-10.77.22-1.98.45-3.68,2.46-5.87,3.12-12.25,3.67-18.76-9.8-9.55-14.53,9.14-4.7,9.46,2.41,16.18,3.23,12.27,1.5,32.67-8.03,41.51-16.49,15.88-15.2,26.13-51.92,4.51-66.49-1.2-.81-17.29-8.24-12.94-11.02,24.11-12.31,52.59,1.8,59.64,27.28,2.45,8.83.59,15.93,2.75,24.74.85.77,15.33-10.25,18.98-9,.16-4.02-3.81-4.7-6-7.49-11.25-14.29-19.76-32.89-11.88-50.86.83-1.89,9.55-14.99,8.88-15.59-3.04,1.01-17.41-7.1-16.98-9.48,1.73-2.59,4.44,1.29,4.01-2.51h.97c-.13,5.51,9.39,6.53,14,8.49,3.58,1.52,9.48,5.2,13,6.1,2.08.53,3.84-.76,3.98-.62.13.13-.03,2.23.95,3.55,1.16,1.58,4.43,2.52,5.96,4.05,5.01,4.97,9.49,11.42,14.59,16.39,1.66-1.14-1.1-2.85-1.7-4.29-10.38-25.03-25.57-26.33-47.66-36.29-10.37-4.67-20.67-12.72-30.61-18.36-1.25-.41-1.99.25-1.47,1.47,2.02,4.69,17.44,15.28,21.97,19.01-3.31,2.72-13.32-5.52-15.92-8.06-1.42-1.39-6.38-8-7.86-10.13-17.05-24.44-17.38-57.47-2.36-82.92l6.15-8.32c-1,4.74-3.97,8.18-5.49,12.98-.85,2.67-2.26,8.02-2.41,10.65-.59,10,15.09,20.69,23.86,23.4ZM481.49,1041.33l-1-3.99-1,15.98,1.98-1.99c-1.74,12.62,3.28,6.5,9.5,3.89,2.4-1.01,5.4.73,7.48-3.4-4.69-3.7-11.87-5.16-14.08-11.45l-2.88.96ZM514.45,1056.32c-7.35.86-25.15,1.01-30.32,6.9-1.66,1.89-.52,9.12.87,11.08,1.17,1.65,1.06.58,2.14.19,6.51-2.35,12.39-8.04,18.65-11.36,3.47-1.84,9.31-1.32,8.67-6.81ZM533.44,1067.32c-5.52-1.17-9.52-6.49-15.47-4.07l-29.46,15.09c-1.25,1.8,5.26,10.23,7.32,9.88,3.57-3.63,7.61-6.49,11.96-9.09,4.81-2.88,15.03-8.03,19.91-10.07,2.04-.85,5.27,0,5.74-1.74ZM521.45,1076.31l-22.96,14.48c2.69,1.05,8.14,6.96,10.28,6.39,1.44-.38,2.97-3.26,4.95-4.13,7.55-3.32,15.7-6.19,23.08-9.9,1.63-.82,7.71-4.73,7.71-6.35l-6.7-6.34-18.35,8.83,2-2.98ZM549.43,1093.29c-.45-2.43,1.58-12.21-2.31-11.85-3.95,1.43-6.96,4.55-10.63,6.4-6.29,3.18-15.75,6.32-21.37,10.61-1.12.86-2.05,1.05-1.65,2.83l10.07,4.56c3.84-3.92,9.79-4.92,13.81-7.14s6.83-7.86,12.08-5.4ZM543.32,1113.16c2.02-5.6,6.04-10.51,5.11-16.86l-19.96,12.49,11.72,4.29,3.13.09ZM549.42,1118.27c2.88-7.13,6.36-12.79,5-20.98-1.73.46-.89,3.71-1.75,5.73-1.62,3.81-4.97,7.58-6.07,11.94l2.82,3.31ZM542.44,1131.28l-5.01-1.55c-9.3,8.38-15.9,20.85-11.96,33.51l5.46-15,11.51-16.96ZM557.43,1143.24c.15-4.23-6.61-8.83-10.27-7.83-1.85.5-11.81,11.87-10.71,12.84l20.98-5.01ZM569.42,1158.24c-3.5-2.14-3.93-9.79-7.45-9.94-7.15,3.21-20.25,2.48-26.75,5.96-1.17.63-5.46,8.36-4.76,8.97,13.21-.09,25.29-6.66,38.97-5ZM568.42,1162.24c-10.29,2.63-23.73,2.14-33.46,6.01-6.33,2.51,1.21,5.55,4.99,5.99,4.63.54,18.03-.39,22.75-1.23,2.42-.43,4.39-2.04,6.6-2.93l-.88-7.84ZM555.43,1221.71c.57,4.84-.41,10.54,0,15.49l2.92-7.58c-.06-3.87.42-8.13.12-11.95-1.61-20.13-14.07-29.54-27.52-42.43-.76,2.51,3.28,8.56,5.07,10.92,8.89,11.69,17.49,19.13,19.42,35.54ZM570.42,1176.25c-2.72-.6-1.71.8-2.47,1.98-1.48,2.27-2.62,4.51-4.49,6.53-3.46,3.73-11.62,6.59-6.53,12.44,7.34-4.27,10.4-13.43,13.5-20.95ZM563.42,1177.24c-2.6,1.43-20.99,1.33-20.96,3.49l9.47,9.49c.35-2.51,13.33-11.12,11.49-12.98ZM521.45,1217.2c3.18-.73,5.33-3.63,8.31-5.17,2.1-1.08,15.37-5.18,14.66-8.3s-5.24-.4-6.66.31c-5.6,2.81-12.21,8.47-16.31,13.15ZM535.44,1217.2c5.19-.4,9.19,2.96,13.48,5.04,1.11.54,2.35,1.4,2.48-.51.07-1.15-4.39-12.31-5.45-12.39l-10.51,7.87ZM520.32,1220.22c-2.41-2.09-3.6,6.55-3.72,7.76-1.28,12.48,7.52,10.4,16.92,14.5,2.45,1.07,4.33,3.08,6.76,4.23,1.41.67,3.61.15,5.01.98,2.11,1.24.82,5.32,4,4.5-.42-2.43,1.98-6.79.8-8.8-2.11-3.59-19.51-8.93-24.14-11.33-2.49-1.29-3.55-4.91-7.64-3.86v-2.99c.4-.41,9.57,1.03,11.01,1.48,5.44,1.7,13.69,8.79,19.48,9.51,2.44.3,2.62-6.36,1.23-7.74-.68-.68-16.5-7.93-17.45-8.05-3.25-.43-9.15,1.92-12.77,1.81l.5-2Z"/>
  <path d="M1248.95,1223.71c.05-.7,1.6-2.02.99-3.5-1.38-1.71-11.35,11.78-12.19,13.28-16.7,29.95,6.48,60.53,38.18,61.66-6.99-12.17,2.72-31.57,16.61-32.87,11.14-1.04,29.7,7.72,32.13,19.61,5.19,25.43-8.92,39.81-32.55,44.95-9.63,2.09-26.24-1.36-34.51-6.86-3.26-2.17-5.35-6.61-9.66-6.82,9.03,13.43,29.43,26.17,46.24,22.75,4.94-1.01,11.41-10.61,16.73-7.29,4.78,2.99-3.14,7.48-5.97,9.05-19.5,10.86-43.48.48-57.54-14.48-5.2-5.54-20.25-31.87-21.33-38.63-2.74-17.24-3.39-44.17,7.89-58.85,3.26-4.24,13.84-9.97,15.47-13.52,2.02-4.38-4.05-19.83,4.03-22.92,3.99,4.47,3.54,11.25,3.49,16.94,6.66-2.78,10.12-4.74,10.99-12.49,2.46-21.96-2.08-48.73.05-70.91.23-44.35-.41-88.83-.38-133.03-8.29-5.39-8.15-8.42-7.59-17.84.31-5.2,1.66-8.6.8-14.96-2.8-20.88-19.44-33.42-27.6-50.35-6.51-13.5-12.56-43.83-12.29-58.74.04-2.36,1.02-4.55,1.08-6.91.27-11.56-2.69-21.46,5.11-31.87,8.65-11.55,39.71-6.32,34.84,12.34,5.8-5.46,5.31,6.76-.11,5.55-.57-.13-8.94-5.4-9.84-6.1-3.15-2.43-6.97-10.4-9.75-11.23-5.67-1.69-12.94,1.74-15.05,7.3l2.62,2.98c-5.89,5.77-2.87,11.62-2.81,17.95.17,15.8-2.64,28.62,13.95,37.02l-2.91.55c-1.18,2.97,2.26,6.84-.58,8.92l-4.51-6.97c-1.59-.28-1.07,1.32-.79,2.28,1.84,6.3,7.73,14.15,10.65,20.34,6.81,14.43,10.31,24.25,18.96,38,5.53,8.78,3.73,15.57,4.61,25.38,16.77,2.24,22.43,17.08,5.55,24.95l3.04,10.44c-.74,61.96.72,123.95.01,185.95-.04,3.44-2.11,6.94.44,10.45,6.77-4.27,13.5-7.07,19.97-12.01,10.15-7.75,16.61-15.55,14.45-29.39-1.94-12.46-21.87-12.65-18.77,1.78,1.41,4.24,7.43-.59,7.77-.31l3.14,3.54c-2.35,8.41-14.14,5.19-13.07,16.41l-3.94-8.54c-.06-11.71-5.25-26.06,10.94-28.44-1.93-2.6-3.22-5.12-4.28-8.2-9.69-28.22-1.12-69.62-4.69-99.24-.64-5.32-5.92-8.72-6.11-14.96-.55-17.65,23.25-12.98,21.86,1.7-.61,6.38-3.6,9.45-9.83,10.36.64,20.62-.59,41.37.03,61.95.4,13.43-.36,28.4,7.19,39.75,2.93,4.4,8.73,8.92,11.66,13.32,1.55,2.33,7.16,13.5,7.19,15.79.03,2.45-2.61,10.87-3.82,13.23-4.55,8.85-13.78,15.58-21.88,21.09-3.67,2.5-16.58,8.81-17.31,11.67-.15.58-.36,2.48.5,2.5,2.57-2.82,12.69-10.71,16.03-10.95,4.52-.32,15.04,3.57,16.99,8,1.07,2.42-2.18,15.46-3.51,18.47-1.96,4.42-5.45,6.28-7.02,10.46,10.39-.22,7.61,11.15,9.43,17.05.74,2.39,3.68,3.31,3.55,5.93-5.67,3.23-13.26.2-14-6.57-.49-4.56,6.67-11.18-3.36-10.32-13.33,1.14-22.83,10.68-27.38,22.63-1.97,5.17-2.69,20.21-9.63,12.17-4.93-5.7-8.58-15.92-8.58-23.39,0-8.68-.62-18.48,0-26.98ZM1268.6,970.48l-3.52,8.19c8.09,9.11,17.68-7.91,3.52-8.19ZM1294.77,1021.19c1.74-1.1,2.28-10.17-4.26-9.8-8.65.49-2.17,13.86,4.26,9.8ZM1274.93,1218.71c-.23,7.81.17,15.68,0,23.48,7.48-7.36,26.68-12.24,27.07-25.48.11-3.88-3.45-13.72-8.42-13.28-.9.08-15.95,6.69-16.63,7.3-3.05,2.72-1.95,5.4-2.02,7.97ZM1258.92,1262.18c2.91-5.66,8-9.81,8.92-16.57.55-4.03.44-37.96-.92-39.39l-11.74,9.61c1.27,13.9.71,27.93,1.76,41.86.09,1.15.31,4.48,1.99,4.49ZM1240.26,1298.85c2.58,3.18,21.29,16.08,25.43,18.03,21.34,10.03,56.43,1.77,53.09-27.11-2.07-17.88-29.17-28.04-37.04-10.28-6.86,15.47,5.08,5.18,8.76,4.7,12.17-1.6,11.54,16.96-.21,17.93-2.43.2-9.11.15-11.82.08-15.79-.36-30.51-6.26-41.93-17.12l-7.57-11.9c-.18,1.74-.03,3.34.46,5.02.94,3.19,8.78,18.12,10.83,20.65Z"/>
  <path d="M1125.9,521.79c1.91,2.98-2.14,7.12-4.36,8.85l-3.14-3.87c-3.98-1.35-5.62,3.69-6.11,6.62-1.6,9.7,4.59,21.39,7.04,30.46,25.91,96.03,20.15,189.94-29.27,277.09-25.63,45.19-64.21,79.26-105.92,109.43,9.19-1.85,22.58-2.61,20.9,10.42-.26,1.99-3.28,6.61-.93,7.57,1.47-8.92,8.38-15.03,13.42-22.06,5.39-7.51,7.46-13.94,18.5-16.48,27.17-6.25,44.95,20.12,76.23,11.27,36.39-10.29,31.02-78.08-16.46-69.43-10.88,1.98-17.35,18.06-15.27,27.81,1.49,6.97,9.79,12.75,16.54,13.92-7.1-17.04,18.24-25.32,13.76-3.71-2.16,10.41-16.13,11.2-24.12,7.59-13.41-6.04-17.73-18.92-12.79-32.53,8.31-22.92,29.88-24.3,50.14-16.32-8.07-18.23-7.5-34.56-.48-52.94.94-2.47,7.43-15.83,9.13-16.07.42-.06,5.85,1.09,6.11,1.28,4.89,3.51-4.43,13.1-5.97,16.07-15.95,30.77-2.71,45.44,8.39,71.96,9.16,21.87-.24,45.15-20.51,56.82-12.2,7.03-24.06,4.62-34.52,12.32l3.88,5.49-9.91-.92c-3.43,17.42-14.22,29.24-33,23.87-.3-3.08.27-6.25-.16-9.34-1.28-9.14-4.19-23.58-6.35-32.63-.31-1.3-1.76-6-2.5-6.51-3.42-1.62-6.02,1.55-8.84,2.76-1.77,3,4.13,15.94,5.31,19.78s2.18,12.82,3.65,15.34c1.63,2.81,5.9,1.62,7.81,4.15-4.6,9.81-13.93-4.46-18.96-7.99,2.58-1.31,4.65,3.4,6.5,4.5l-8.99-31.97-9.51,17.52,6.01,5.45c-10.58-5.34-13.66,2.69-20.66,7.83-11.13,8.17-23.61,7.04-36.51,9.46-18.57,3.48-38.28,11.04-54.77,20.17-18.56,10.28-34.24,23.96-41.47,44.53l-5.42-.1c1.5-13.06,10.86-26.27,18.96-36.39,30.29-37.85,64.82-46.63,102.63-72.26,122.88-83.28,169.01-222.29,131.32-365.62-3.29-12.53-11.99-30.12-11.19-42.82.42-6.75,7.88-12.8,14.53-12.56,1.13.04,7.14,1.77,7.39,2.17ZM1054.33,980.1c1.06,1.03,3.59,1.51,5.03,1.12.9-.35,1.79-.99,2.22-1.86,2.08-4.22-5.72-29.29-7.24-35.73-.64-2.7.69-6.96-2.96-8.03-2.71-.79-6.41.1-9.29-.2,1.94,12.11,8.4,23.7,8,35.98l1.98-1.02c-1.43,2.34.64,8.17,2.25,9.74ZM1073.74,965.06c4.29-6.59-5.61-21.63-11.18-25.65-1.35-.97-2.64-2.24-4.48-2.01l9,38.97c3.57-1.46,2.42-6.04,3.72-8.78.75-1.58,2.46-1.8,2.93-2.53ZM1075.07,944.4l4.98,10.54c10.66-2.78,1.43-9.99-4.98-10.54ZM902.19,1001.34l16.32-9.15c18.2-7.61,38.7-15.84,58.36-18.58,3.53-.49,7.44.64,9.97,0,3.56-.91,12.12-5.61,12.38-9.72.53-8.3-8.5-8.18-14.58-7.94-15.37.6-60.03,26.84-73.37,36.99-2.98,2.27-6.68,5.51-9.07,8.4Z"/>
  <path d="M162.31,1293.16c11.7-1.49,20.02-1.27,29.45-9.02,9.76-8.03,12.05-15.95,12.56-28.41.63-15.22-4.71-25.8-17.02-34.52,2.43,20.9,2.84,41.11-11.5,57.94-4.04-2.54-2.82-6.49-3.99-9.98-3.45-10.31-11.25-23.83-21.81-28.16-18.59-7.63-8.75,11.4-9.68,12.17-9.49-2.8-5.02,8.33-12.26,5.79-6.62-2.32-1.47-6.16-.4-9.96,1.74-6.16.32-14.28,7.69-17.32-1.42-3.4-4.34-4.41-5.8-8.19-1.56-4.05-.49-8.85-1.69-11.31s-4.99-1.13-2.68-5.1c3.54-6.09,10.1-9.99,17.14-9.94,7.93.05,11.92,5.31,17.69,8.88.86.53,2.58,2.13,3.31.69-12.46-9.93-39.33-23.5-44.19-39.76-2.67-8.93,3.07-21.69,9.19-28.23,7.92-8.48,12.43-10.67,13.91-24.06,2.94-26.56-2.02-57.82.16-84.89-.89-6.75-10.03-4.43-7.8-16.7,2.17-11.99,23.03-11.6,22.39,4.62-.34,8.66-6.98,7.62-7.64,11.14-1.62,27.25,2.19,56.98-.01,83.93-.8,9.8-4.21,18.14-9.99,25.99,10.65-.54,15.69,10.61,13.94,19.94-.37,1.98-2.19,3.54-2.53,5.48-.41,2.39,1.06,6.09-.42,9.06-3.27-2.07-7.17-2.32-5.99-7-5.09,2.52-14.16-6.66-8.01-10.54,3.12-1.97,9.9,7.73,11.04,0,1.01-6.86-10.15-15.94-15.88-8.79-16.3,20.34,13.83,41.49,30.83,47.33l2.05-29.44c-2.91-48.08-2.51-96.38-.33-144.23.49-10.9-.88-21.56-.66-32.53-15.01-5.84-8.33-25.62,7.43-22.62,5.39,1.02,7.5,11.5,6.07,16.02-1.5,4.76-6.06,4.6-6.59,11.39-2.76,35.37-.13,78.77,0,115.01.09,25.81.19,51.94.98,77.87.09,3.11-1.32,7.12-.93,9.94.68,4.9,6.4,8.76,9.97,11.58.62-5.56,3.24-10.43,1.01-15.98,11.48,3.16,4.67,15.18,7.51,21.96.63,1.5,9.16,7.87,11.45,10.54,8.79,10.22,12.25,21.52,13.05,34.91,1.51,25.23-8.15,49.33-27.01,66.01-13.5,11.93-31.62,21.04-50.2,16.2-3.05-.8-12.04-6.3-13.33-8.69s1.93-4.1,3.95-4.01c5.64.25,9.67,5.95,13.32,6.78,14.81,3.37,34.88-6.45,45.26-16.77-9.35,3.34-20.34,9.93-30.53,10.01-3.62.03-19.66-3.3-23.43-4.53-9.34-3.05-20.83-19.09-21.08-28.97-.35-14.18,13.64-32.54,28.56-32.56,6.37,0,23.48,7.51,23.48,14.57v16.49ZM169.46,980.14c1.53-2.45,2.57-8.54-1.28-8.84-5.62.71-7.48,6.16-2.2,9.36l3.48-.52ZM150.97,1016.21c0-2.74-2.22-4.96-4.96-4.96s-4.96,2.22-4.96,4.96,2.22,4.96,4.96,4.96,4.96-2.22,4.96-4.96ZM163.69,1244.2c-1.73-11.05,5.5-24-4.07-32.4-14.77-12.97-34.88-4.35-23.74,12.75,4.63,7.1,17.66,9.57,24.12,14.59,1.63,1.27,1.29,4.4,3.69,5.06ZM178.68,1265.18c2.12-14.17,5.59-34.46,1.95-48.41-.68-2.63-8.68-8.58-10.44-8.53-1.92.06-.81,2.19-.79,2.74.51,14.37,1.25,28.99,2.76,43.24l6.52,10.95ZM154.4,1275.48c-1.94-2.17-9.34-4.97-12.32-5.22-20.69-1.68-29.33,25.74-16.86,39.9,22.44,25.49,76.78.46,79.45-30.51.21-2.45,0-2.26-1.28-.28-2.13,3.28-3.83,6.54-6.69,9.32-8.02,7.77-26.47,13.68-37.44,12.42-1.87-.21-3.49-1.94-5.05-1.91-3.44.08-5.18,5.4-11.45,1.4-13.44-8.58,2-22.57,8.96-13.95,2.32,2.87.85,6.86,3.97,6.51,2.83-4.93,2.52-13.42-1.29-17.68Z"/>
  <path d="M777.38,1018.34l2.98-6.99c-1.12,13.25,4.87,14.42,14.35,19.13,7.99,3.98,13.57,5.48,20.67,10.29,7.51,5.08,15.17,1.06,11.46,16.54-5.96-3.26-12.07-9.07-17.8-12.18s-11.61-4.09-17.62-7.36c-5.18-2.83-12.31-7.6-15.56-12.43-2.17-.42-1.52,1-1.52,2.51,0,20.65,18.55,28.32,35.75,32.22,3.24.73,8.52.13,11.58,1.45,1.44.62,1.27,2.32,2.44,2.76,3.85,1.46,11,.7,15.46,2.29,2.98,1.06,12.9,7.17,15.67,9.31,13.19,10.2,20.53,27.89,21.08,44.38,6.2-7.47,6.53-18.55,11.16-27.3,6.18-11.68,22.78-32.22,33.88-39.07,4.52-2.79,22.96-13.85,26.47-6.6-2.42,9.85-10.7,23.07-6.12,33.07,1.63,3.55,9.66,10.75,7.09,14.94l-5.39,1.86-11.13-20.36c1.64-2.15,1.66.12,2.28.79,1.08,1.17,7.3,10.09,8.7,8.71-3.37-8.16-12.56-12.98-9.53-23.03,1.11-3.69,6.84-6.96,6.04-10.94-3.63,2.97-8.13,4.46-12.03,6.96-20.13,12.93-36.83,39.63-43.45,62.48,2.48-.64,3.94-3.2,6.31-4.68,3.43-2.14,7.93-3.81,11.72-5.31l-.03-3.48c7.3,1.92,15.94-.32,23.44,1.03,6.49,1.17,20.35,12.27,23.94,18.03,19.45,31.18-18.41,66.42-43.88,44.88-12.22-10.33-8.68-36.05,6.55-40.46,5.33-1.54,16.74,4.65,17,11,.53,12.84-18.04,12.19-16.06-1.52-5.19-.53-5.41,4.81-7,8.3-.29.62-1.84.57-2,1.39-1.21,5.99,5.67,16.2,11.3,18.51,21.03,8.62,33.23-10.19,30.43-29.43-1.11-7.59-11.19-20.66-18.73-23.24-11.09-3.79-21.64-1.1-31.33,4.64-21.29,12.62-18.38,29.1-27.15,48.8-8.05,18.09-19.3,33.75-32.95,48-2.99,3.12-6.42,5.5-9.5,8.49.93,1.6,2.24-.37,3.09-.9,4.77-2.97,10.02-6.21,14.62-9.37,10.97-7.55,23.93-20.83,36.33-24.62,30.35-9.28,60.16,32.43,34.82,54.8-17.23,15.21-43.7,3.26-39.45-19.47,2.15-11.5,17.21-20.77,18.52-8.36.78,7.41-4.66,2.17-7.54,4.32-4.17,3.11-4.96,10.95-2.29,15.44,9.54,16.04,31.8,5.31,32.27-11.84.4-15.02-13.15-28.45-27.9-28.96-13.93-.48-29.55,17.67-40.79,24.65-11.99,7.44-37.38,17.32-51.13,21.82-23.64,7.75-44.05,11.77-69.04,10-1.79-.13-3.23.27-4.43-1.55.03-.87,7.09-4.27,8.56-4.47,2.6-.35,4.7.75,6.75.6,45.7-3.32,88.54-20.65,112.4-61.28,17.25-29.38,29.33-68.4,7.01-98.57-25.13-33.96-85.27-12.6-67.55,31.57,4.2,10.47,16.44,14.74,27.14,13.66,6.4-.64,12.02-6.91,14.62-12.41.11-2.05-12.68.66-12.84-8.99-.2-11.93,18.26-12.92,21.76-.94,5.81,19.88-19.42,36.35-37.46,29.44-5.5-2.11-15.59-10.23-18.88-15.1-10.86-16.06-2.29-47.43,15.71-55.11,3.52-1.51,8.49-.77,10.71-3.77-3.73.38-11.09.17-14.31-1.23-1.41-.61-1.41-2.26-2.45-2.76-8.87-4.23-14.01-7.05-20.05-15.68-9.19-13.14-9.61-24.08-5.15-39.3l1,1.99c3.12-1.45,4.54-4.73,5-7.99,1.63-.27.94,1.35.99,2.47.22,4.55-.03,9.03,1.01,13.51Z"/>
  <path d="M471.49,469.7c-.47.45,3.86,7.45,4.47,9.01,16.7,42.99-6.89,67.99-27.27,100.6-7.24,11.6-15.05,29.52-5.04,41.64,2.8,3.39,8.34,4.55,10.8,7.19,3.02,3.25-3.09,4.52-5.44,4.53-9.55.04-14.4-6.72-16.97-15.1-3.31-10.81.96-25.96,6.46-35.45-2.04-1.32-4.73,2.1-6.95,3.04-4.55,1.93-10.53,3.41-15.5,3.51-3.95.08-9.61-1.86-12.5-.54l-12.5,18.48c-7.68,8.6-17.91,15.65-29.04,18.92-14.71,4.32-39.95,3.88-50.41,15.55-11.64,12.98-15.68,32.48-5.84,47.81,10.79,16.81,33.98,23.99,50.72,11.07,6.31-4.87,7.97-12.23,8.68-20.1.95-10.52-5.84-21.17-17.09-21.37-13.15-.23-6.33,12.89-12.78,18.76-3.76,3.43-8.71-6.53-8.62-10.08.43-17.93,25-21.54,35.94-11.15,4.74,4.5,10.27,14.57,10.57,21.2.98,21.35-16.72,40.15-38.6,37.33.79,4.02,4.98,5.15,6.99,7.49,6.54,7.63,17.32,31.49,12.22,41.18-4.86,9.23-5.1-11.1-5.45-12.97-5.19-27.52-21.26-29.62-38.21-44.74-17.78-15.85-22.34-36.73-11.4-58.31,7.06-13.93,20.63-18.47,27.41-33.55,2.88-6.41,1.52-11.03,2.56-17.44,1.62-10.01,6.22-16.76,12.88-24.09-8.97-1.85-15.77-3.21-23.9-8.07-6.9-4.13-18.18-13.84-5.65-18.38,4.93,14.07,20.46,18.5,34.06,19.95,9.66,1.03,11.53-.4,20.94,3.04,11.11,4.07,22.32,7.86,33.02,12.95,3.91-14.78,18.52-29.04,34.93-22.95,5.13,1.91,7.46,10.27,13.51,7.46,2.74-1.27,15.44-22.87,17.17-26.8,14.71-33.4,8.09-72.28-24.84-91.44-23.02-13.39-59.18-5.25-67.76,21.81-4.36,13.76,2.29,23.56,6.48,35.97-1.22,1.53-12.77-13.14-13.51-15.96-2.04-7.77-.71-23.77,2.99-31.05,9.22-18.11,33.64-26.53,53.04-24.98,34.13,2.73,59.76,49.82,95.64,33.75,4.54-2.03,6.22-8.78,10.25-11.71l4.34,4.68c-7.42,26.88-42.13,18.27-60.8,9.3ZM424.53,563.64c-.18,2.81,2.73,4.6,3.54,6.94.66,1.91,0,5.63,1.38,6.62,2.85,2.03,8.44-2.69,10.63-4.58,2.53-4.81-11.86-10.02-15.55-8.98ZM405.69,581.48c7.26-.77,14.57,2.53,20.81-2.35-2.78-1.72-6.46-15.26-9.46-14.49-2.72,5.36-6.99,9.71-12.07,13l.72,3.84ZM381.56,608.6c1.58,1.77,6.87-6.05,7.07-8.48.28-3.33-4.22-19.68-6.69-21.38l-16.38-8.1c7,11.43,12.93,24.88,15.99,37.96ZM351.57,571.64l19.46,42.85,5.47-4.3c-1.58-6.24-10.42-36.78-15.63-38.37-2.65-.81-6.46.14-9.3-.18ZM347.56,574.63c-2.24-2.01-7.53,7.39-7.81,8.74-.56,2.63,6.44,13.18,8.04,16.53,1.47,3.08,2.74,5.82,4.2,8.79,1.23,2.5,3.56,11.26,6.04,11.55l7.53-1.65-18-43.97ZM392.55,594.62c1.88,1.41,5.31-6.06,5.99-7.47l-12-6.51,6.01,13.98ZM337.57,590.62c-5.26.66-4.49,8.87-3.22,12.73.87,2.65,11.06,18.71,12.83,19.03,1.33.25,3.69-1.22,5.39-.79l-15.01-30.97ZM334.57,613.61l-2.26,1.27c.49,7.71-1.35,3.84-4.22,5.62-.81.5-5.48,5.26-4.49,6.1l16.98-2-6.01-10.98Z"/>
  <path d="M226.2,963.73c-4.2,4.92-17.7,18.05-17.33,24.06.29,4.7,5.98,6.77,8.52,9.53,1.64,1.78,2.52,4.32,4.05,5.94,4.63,4.9,12.99,8.84,13.4,16.58-.63,68.86.87,138.32-.04,206.82-.08,5.93,1.54,21.16-2.09,24.89-4.51,4.63-5.58-1.87-5.9-5.82-1.32-15.98,1.16-36.26,1.07-53.06-.33-57.94-1.52-116.29-1.47-174.38-4.95-5.9-9.41-14.21-17.54-15.93.88,4.02,1.85,9.38,2.04,13.44,1.08,22.85-.38,46.23-1.08,68.95-.09,3.03,2.61,6.9-.2,10.3-13.25,2.39-5.32-4.38-4.71-9.21.93-7.3-1.01-15.18-1.12-22.04-.24-14.43-.19-29.42.03-44,.1-6.61,2.35-13.38.03-20.45-5.13,2.8-6.53,7.73-9.14,12.33-.85,1.5-2.81,2.57-3.32,3.67-1.08,2.35-1.03,32.02-1.14,37.63-.36,19.16,1.18,38.69-.39,57.72,4.53,4.87,10.59,9.24,6.42,16.48-8.67,15.09-28-8.05-12.92-16.93.89-29,.58-58.34.57-87.46,0-4.54-2.36-5.96.95-10.96,1.02-1.54,14.44-16.91,15.42-17.55,2.13-1.39,4.23-.95,6.57-.94-4.19-3.53-6.03-9.33-9.46-13.02-5.33-5.75-11.91-8.39-13.27-17.71-2.78-19.02.17-47.44-.22-67.74-.09-4.61-2.97-8.57.94-12.97,3.48-3.92,8.02-2.77,11.01,1.03.35,3.25-4.84,1.87-5.05,3.05.07,22.31.09,44.62.11,66.93,0,2.04-.99,3.89-.94,5.85.2,8.41,7.96,12.25,10.9,19.59l3.92-8.55c-.49-11.79-.01-23.2.09-34.85.07-7.59,1.12-46.81-.55-50.51-.87-1.91-5.52-4.05-5.33-6.33.28-5.33,15.77-8.3,15.85-3.22.04,2.79-3.59,4.36-4.06,7.99-2.92,22.14,1,53.47.1,77.05-.13,3.42-1.7,6.83-1.03,10.45,1.55-.18,1.55-2.28,2.93-3.55,4.73-4.33,10.09-7.18,13.51-13.48l.28-138.11c-5.73-24.31-39.42-29.56-55.67-12.23-6.93,7.39-14.41,22.34-12.79,32.7.46,2.95,6.7,13.82,8.75,16.25,9.09,10.77,32.65,4.85,24.47-5.5-4.16-5.26-10.44.59-12.46-.44-2.48-1.27-3.4-5.97-3.01-8.57,7.34.61,12.85-3.52,18.99,2.49,3.72,3.64,5.11,9.53,3.55,14.55-.97,3.11-10,10.3-13.09,10.89-7.42,1.41-19.76-4.73-24.97-9.91-8.54-8.49-12.83-22.3-8.69-33.73,4.48-12.35,15.99-29.76,29.19-33.77,13.48-4.09,26.66-3.75,38.32,4.69,10.81,7.82,14.82,21.43,15.7,34.26,2.22,32.49,1.44,77.15,0,110.01-.3,6.88-.8,16.81-4.39,22.58-1.58,2.53-3.09,2.79-4.29,4.2ZM185.4,1117.46c-1.23.37-2.68,1.69-2.54,3.13,5.63,15.36,13.04-6.31,2.54-3.13Z"/>
  <path d="M185.34,219.2c24.11,26.42,32.24,71.24,24.86,105.63-1.96,9.12-5.8,15.55-10.42,23.47,7.67,5.39,10.98,14.81,3.54,22.11-1.5,1.47-3.98,2.05-5.64,3.86-3.77,4.08-7.66,9.8-10.6,14.55-3.59.79-6.03-2.65-4.76-5.78.85-2.09,14.68-9.86,12.31-13.23-3.49.88-7.1-6.05-7.59-6.12-4.21-.67-12.8,8.38-14.91,12.02-1.88,19.13-1.47,38.33-1.49,57.56-.04,39-.55,78.66.42,117.71.25,10.15,5.51,11.52,6.55,18.22,1.35,8.62-2.44,20.68.87,28.09,4.39,9.85,13.99,19.29,19.35,28.64,11.14,19.41,23.1,55.83,18.58,77.88-.75,3.67-3.19,7.64-3.67,11.32-1.13,8.64,2.65,17.19-6.75,23.23-6.85,4.41-14.96,4.04-21.87.22-7.39-4.09-14.95-14.26-11.35-22.93,1.66-.41,3.29-.23,4.87.44.66.28,11.51,7.46,11.98,8,1.38,1.58,3.14,8.03,4.75,8.46,7.47.01,16.01,1.85,15.33-8.48-.14-2.1-1.82-5.06-1.71-6.05.1-.9,2.24-2.33,2.88-3.78,4.64-10.51-1.07-24.5-4.92-34.47-.88-2.28.05-4.17-1.82-7.17-2.97-4.75-10.74-3.91-14.45-8.54,3.06-2.21,11.66,5.05,13.93,3.47,3.07-9.83-5.94-22.8-10.77-31.62-9.15-16.71-24.59-33.92-20.17-54.29-11.55,6.62-20.87-5.12-15.88-16.4,1.39-3.14,5.88-7.26,6.65-10.33,1.78-7.03.2-18.6.2-25.7,0-21.17-.98-41.99-1.01-62.95-.05-31.78,2.24-63.22,2.04-94.99,10.74-13.85,28.99-18.79,35.85-36.1,9.17-23.13,6.54-66.43-16.16-81.51-6.84-4.54-20.28-9.11-28.23-6.85-16.14,4.58-24.26,21.42-19.16,37.25,1.56,4.82,11.4,13.44,16.15,13.64,9.25.39,19.66-5.12,19.62-15.36,0-1.64-1.77-10.12-4.1-6.9-1.15,7.26-7.58,8.23-12.91,3.87-6.32-5.17-.54-16.98,7.63-17.2.5-.01,9.2,2.44,9.63,2.69,1.13.66,4.83,6.4,5.25,7.99,6.61,24.9-11.11,36.12-33.54,29.05,1.85,4.6,2.58,8.35,1.9,13.41-.87,6.47-10.14,21.33-1.9,25.05l10.97,1.5c-7.74,2.42-17.09,5.65-21.05-4.41-4.19-10.65,7.31-18.77,6.01-30.94-.57-5.31-3.7-5.78-5.77-9.27-10.63-17.92-10.96-39.21,7.51-52.13,4.05-2.83,8.47-2.35,8.22-5.7,15.05-5.42,30.88.3,41.61,11.48,2.67,2.78,5.07,8.3,7.45,10.54,1.18,1.11,1.24.11,1.02-1.02-2.99-15.22-19.32-34.74-34.92-38.03-11.08-2.33-18.72,6.48-31.48,4.49-10.74-1.68-13.16-16.25-5.52-22.38,17.33-13.91,44.07,1.08,56.58,14.79ZM174.69,217.88c-13.8-4.66-33.65-22.2-44-3.51,4.38,10.73,17.97,2.18,26.67,1.87,4.66-.17,9.57,1.95,13.95,2.53,1.06.14,3.64.85,3.38-.89ZM192.92,364.53c7.58,7.64,17.39-13.57-1.11-5.63-.62,1.02.22,4.73,1.11,5.63ZM165.33,566.75c-2.45.82-1.92,5.84-1.19,7.94,11.24,7.09,8.94-10.52,1.19-7.94Z"/>
  <path d="M503.25,194.53c2.28,2.61,9.42,10.32,12.06,11.51,1.65.74,7.32,1.42,9.46,1.57,19.68,1.4,44.51.26,64.23-1.03,3.69-.24,9.85.73,12.82,0,.96-.23,1.69-3.34,3.78-4.47.9-.48,11.64-3.6,12.25-3.44,11.74,7.28,10.21,26.8-6.34,22.46-4.1-1.07-8.94-6.13-12.44-6.6l-85.34.03c-4.44-.85-11.06-11.88-14.63-14.65-2.96-2.29-5.61-.76-6.31-5.38h-138.7s-6.07,6.28-8.49,8.86c-7.76,8.31-15.61,15.11-26.79,18.18-24.78,6.8-43.64,5.13-68.39,0-34.82-7.21-67.1-34.45-62.74-73.18,2-17.78,26.95-19.48,24.86,3.88-1.34,14.97-7.25,21.47.24,37.98,3.23,7.13,18.94,21.02,26.44,22.53.94.19,5.51.87,5.42-.92-7.15-2.69-13.54-11.17-16.47-18.01-5.93-13.85-5.9-25.62,2.46-38.49,2.04-3.14,10.55-12.34,13.73-13.26,2.2-.63,13.14-2.15,15.75-2.26,5.42-.23,29.14,5.12,34.95,7.09,4.92,1.66,15.34,9.38,18.28,9.8,4.13.6,6.99-10.4,8.25-5.34.87,3.51-4.83,10.35-8.48,10.58-4.7.29-12.61-5.9-17.52-7.57-3.88-1.32-8.01-1.54-11.96-2.52.68,7.24,5.59,13.15,4.88,20.37-1.01,10.39-11.01,20.96-21.64,21.34-14.86.54-26.05-21.26-12.45-27.45,3.47-1.58,10.84-.48,12.01,3.43,2.68,8.96-.94,8.78-7.36,12.21-.99.53-1.91-.54-1.42,2.07,9.15,3.5,16.26,4.89,21.8-4.67,3.55-6.12,4.23-9.51,1.67-16.29-10.03-26.56-46.4-17.09-48.5,10.43-1.6,21.02,5.64,27.74,23.13,36.91,25.25,13.24,60.44,14.72,80.81-7.92,4.21-4.68,12.71-15.81,12.71-15.81h136.22s-16.39-18.23-21.7-19.43c-7.92-1.79-24.61.12-33.81-.17-3.16-.1-7.69-2.24-10.45-.53-.97.6-1.38,2.67-2.48,3.51-3.88,2.99-7.19,3.34-12,2.96-24.75-1.97,1.23-40.27,13.09-13.9,15.99-2.84,32.27.38,48.41.37,1.4.43,11.73,10.04,13.59,11.9,3.06,3.05,15.86,16.29,15.86,16.29l66.76.04c6.2-15.66,28.03-10.77,23.38,6.22-2.05,7.5-7.95,7.86-14.78,6.29-4.77-1.1-6.6-5.55-10.4-5.55h-57.72ZM201.68,138.92l-3.02.67c-1.64,5.63-5.98,10.5-5.88,16.71s5.37,20.86,8.38,26.6c.75,1.43,2.01,4.43,3.5,4.98-1.76-8.01-2.63-16.26-2.03-24.52.49-6.73,5.82-18.16-1.89-21.59l.93-2.84ZM412.5,157.96l-8.87-.94-.62,6.84c4.55,5.13,9.97-.17,9.49-5.9ZM573.91,185.33c-10.16.03-6.22,12.88,3.83,9.39,5.04-3.05,1.09-9.4-3.83-9.39ZM617.29,215.77c1.49-4.03,1.24-8.46-3.4-9.9-1.37,1.97-1.57,3.39-4.36,3.09-1.46,5.72,2.69,7.51,7.76,6.81Z"/>
  <path d="M235.52,387.53c-.46,1.83-.9,3.52-1.05,5.45-3.39,43.02,2.69,90.42-.01,133.9-10,23.13-33.69,27.35-29.83,56.94,2.48,19.01,23.22,13.99,29.68,30.28l.15,113.66c-3.82,14.26-14.36,27.32-29.68,29.29-25.39,3.26-47.03-12.34-53.93-36.5-4.48-15.67,8.31-39.37,24.65-42.75,5.94-1.23,9.03-1.06,13.95,2.15,8,5.22,4.78,7.09,7.62,11.41.51.77,2.08.8,2.32,1.11s-1.01,7-1.3,7.92c-1.44,4.57-11.59,7.67-15.82,6.75-6.99-1.52-3.13-6.67-3.72-11.79,5.12,1.15,9.44,4.96,14.98,3.99-2.26-11.97-7.55-17.99-19.99-12.49-23.59,10.44-16.92,44.05,1.06,56.9,14.57,10.41,48.75,8.19,51.81-14.02,3.17-22.94-.17-49.77-.53-73.03-.18-11.56,2.56-30.01.57-40.76-1.5-8.13-13.45-9.73-19.27-13.7-14.75-10.08-5.68-27.58-11.82-39.15-1.77-3.33-5.68-6.68-7.66-10.33-9.2-16.99-4-43.87-4.13-62.83s-1.88-39.29-1.09-58.96c.18-4.41.47-15.26,1.26-18.73.44-1.94,1.86-3.41,3.29-4.69,1.14.97,1.96,2.23,2.28,3.7,3.69,16.95.25,41.24.17,58.69-.09,19.43.5,38.63,1.09,57.96.13,4.38-1.12,8.66-1.07,12.07.08,5.86,10.37,13.69,11.52,20.45,2.14-3.47,3.21-6.81,5.99-10,5.71-6.54,17.38-13.37,19.27-22.7.62-3.07.9-10.23.95-13.74.24-18.83-.87-38.07-.77-57.03.34-65.69,2.22-131.65.27-197.6,2.3-5.25,6.48-12.4,12.5-13.49,7.89-1.42,22.77-1.72,30.53-.02,1.09.24,3.27,1.35,3.71,2.3.8,1.76-1.18,1.52-1.97,1.96-10.13,5.71-23.01-1.74-33.98,3.04-1.71,1.28-2.87,11.21-3.05,13.93-2.13,30.89.51,65.58.08,97.02-.07,5.25-2.35,10.52.17,16.22.43.59,2.52,1.14,3.35,1.15,19.63.33,41.16-3.24,60.81-.84,3.75.46,9.65,2.68,6.08,6.91h-69.45Z"/>
  <path d="M1248.93,238.49c-2.62,3.74-5.71,8.27-7.79,12.68-1.21,2.56-2.6,5.83-2.81,8.67,6.13-7.34,10.18-13,19.09-17.38,10.44-5.13,20.95-7.49,31.57-1.81,19.35,10.33,25.02,30.3,16.78,50.17-2.71,6.52-8.64,10.85-9.39,18.61-1.29,13.45,13.44,15.2,5.78,31.75-4.26,9.2-8.44,4.36-15.87,2.59l6.02-3.45c10.9-8.91.29-14-.97-22.08-.86-5.52.34-11.92.93-17.43-6.54,6.15-26.11,2.39-30.39-5.07-3.03-5.27-3.92-20.62-.99-25.83,8.04-14.32,28.96-2.39,22.46,8.48-2.02,3.38-13.09,3.61-14.98.87-1.26-1.83-.17-5.03-2.06-5.42-.59,8.86-2.66,15.84,6.27,21.19,1.99,1.19,8.58,4.6,7.73.8,2.75,2.9,6.91,1.18,10.03-.45,24.87-13,5.99-64.15-30.73-44.72-28.92,15.3-33.61,54.84-21.49,82.83,7.05,16.28,22.86,26.72,37.19,35.99l-.07,187.73c.69,5.18,7.32,7.78,7.14,14.94-.32,13.24-21.68,14.72-22.69,1.36-.77-10.12,7.84-11.12,8.67-17.3.32-52.99-.17-106.12-1.04-158.95-.11-6.85,3.28-18.76-1.43-24.56-1.51-1.86-4.33-2.4-6.08-3.92-2.6-2.26-4.92-5.15-7.49-7.39-.73-.64-.54-.98-2-.6,3.44,3.79-4.29,8.23-3.93,10.35,4.12,4.68,10.77,10.87,8.85,17.54-6.57,1.6-5.79-3.37-8.48-6.85-1.29-1.67-5.12-6.33-6.44-7.55-3.83-3.54-9.85-4.95-11.52-10.46-1.92-6.32.41-4.82,1.93-7.1,3.28-4.91,3.51-5.95,9.58-8.44-2.86-3.55-6.59-7.21-8.78-11.19-8.18-14.86-5.96-64.83-.69-81.25,4.75-14.83,21.84-40.54,35.15-48.79,12.4-7.69,36.44-13,45.74,1.87,3.73,5.96.03,15.52-6.39,17.5-9.7,2.99-13.61-1.55-21.06-4.02-12.98-4.29-28.12,5.81-35.33,16.09ZM1258.94,220.85c6.04-.66,10.25-5.39,16.48-5.99,11.51-1.1,21.42,10.87,31.22,1.52-5.04-15.86-20.93-9.39-32.4-4.69-4.88,2-11.93,5.3-15.31,9.16ZM1244.86,357.86c-4.68-3.19-12.46,1.01-8.97,6.23,3.13,4.69,10.57-1.29,8.97-6.23ZM1267.64,567.81c-4.83,1.5-4.16,7.82,1.87,8.76,11.09,1.73,7.37-11.62-1.87-8.76Z"/>
  <path d="M391.54,297.31c-.12,1.18-.92,5.82-1.21,6.78-1.26,4.21-9.84,6.54-13.78,6.7,1.08-2.05,3.07-3.1,4.2-5.29,3.38-6.53,3.71-44.34,3.87-54.18.11-7.04.07-20.79.07-20.79l79.8.38-15.51-16.09c-22.59-.68-45.45,1.31-67.88-1.1-6.99,5.42-8.95,11.58-19.08,7.35-11.93-4.98-4.12-24.54,8.33-22.68l9.7,9.14,70.72.2,24.27,21.8h201.7s22.52-16.59,21.49-27.05c-.49-4.97-4.35-15.69-7.03-19.96-9.7-15.43-39.88-20.85-50.21-3.52-2.88,4.83-6.49,15.3.4,18.36,7.53,3.34,6.81-2.19,10.96-5.98l-4.94-4.09c-.72-3.4,9.77-6.23,11.99-2.74-.38,11.18-1.57,22-15.56,20.34-2.77-.33-9.7-5.27-11.17-7.31-.54-.75-2.09-6.11-2.21-7.28-1.39-12.69,12.78-26.74,24.85-28.95,45.07-8.23,69.02,56.08,26.47,75.44-64.92-.16-129.21.96-193.82,1.15-28.64.58-64.93-4.43-92.97-1.14-1.45.17-2.57.12-3.45,1.55-1.42,18.87,1.9,40.43,0,58.96ZM366.28,205.02c-6.07,1.66-3.96,12.38,1.72,11.89s5.53-13.87-1.72-11.89Z"/>
  <path d="M1183.31,497.77c-1.36-10.06-11-21.53-12.79-30.27-1.03-4.99-.75-21.29-.23-26.82s1.72-4.67,7.02-4.5l.21,28.25c12.44,23.43,20.5,54.34,6.22,78.83-5.49,9.41-12.78,12.15-12.48,24.57.22,9.03,4.8,10.05,8.26,15.86,5.29,8.89,5.77,34.3,2.85,44.32-2.9,9.93-14.53,20.22-15.08,31.99l9.17-3.85c13.67-3.53,20.55,7.71,17.3,20.3-3.47,13.46-19.08,16.14-22.46,1.09l8.49,4.01c3.94-1.14,8.81-6.18,8.52-10.46-.34-5.15-4.18-8.95-9.39-8.55-4.92.37-7.97,3.95-9.88,8.23-3.46,7.77,5.53,28.45,7.99,36.58,12.7,42.08,26.33,83.5,9.28,126.9l-.91,114.25-2.59,1.47c-4.08,0-2.31-12.25-2.51-15.56-1.6-25.69-1.93-53.1-1.61-78.96.08-6.38-.24-18.59.68-24.15.92-5.55,4.58-13.03,5.68-19.36,3.54-20.3,1.75-38.23-2.38-58.17-6.34-30.65-28.76-74.71-19.11-104.53,2.56-7.92,12.92-21.67,13.79-28.27.7-5.31-.83-28.92-3.2-32.94-1.9-3.24-5.69-5.39-7.35-9.67-7.1-18.37,1.77-28.65,14.5-40.55-7.05-.61-12.33.29-16.22-6.8-4.46-8.13,1.48-17.79,10.62-16.7,2.84.34,4.77,2.94,7.61,2.98-.59-6.14.8-13.58,0-19.53ZM1181.86,524.82l-9.39-4c-8.53,11.13,8.13,17.75,9.39,4Z"/>
  <path d="M254.31,891.92c.71-3.73,5.59-10.05,7.2-13.79.92-2.13,6.33-16,5.79-16.69-6.23,4.36-18.84.64-20.73-6.74-2.4-9.35,3.56-20.2,14.02-18.02,1.81.38,7.17,4.89,6.72,1.3-3.81-11.84-9.7-23.58-13.75-35.24-12.64-36.4-13.33-61.45,3.9-96.56,6.31-12.85,11.3-14.09,10.89-30.16-.12-4.9.11-15.14-.32-18.83-.54-4.71-14.81-23.83-17.43-33.38-7.2-26.24-2.31-52.04,11.89-74.48,3.31-5.23,9.29-10.07,9.85-16.13.47-5.11.74-22.4-.26-26.82-1.43-6.32-10.68-7.48-11.77-18.21-1.53-15.15-1.52-48.76,0-63.93.15-1.51,1.03-7.18,2.5-7.5,2.63.21,3.85,3.53,4.25,5.73,3.36,18.67-2.43,45.41.33,64.63,1.23,8.55,10.27,10.39,11.67,17.31,1.1,5.4.78,22.77.26,28.79-.99,11.58-13.99,22.14-19.2,32.77-5.21,10.62-9.11,25.14-4,36.33,4.58,10.02,13.84,9.58,15.98-1.42,1-5.12-3.8-7.59-4.81-12.23,11.06-6.27,14.21,11.88,10.19,19.67-4.8,9.31-14.82,6.82-23.18,4.3,1.67,5.42,2.75,11.16,5.11,16.36,2.87,6.33,13.26,19.2,14.63,24.35,1.14,4.29,1.1,33.87-.22,38.28-.79,2.63-6.55,10.69-8.4,14.59-13.45,28.35-18.73,50.33-9.85,81.52,7.49,26.32,26.17,51.26,17.46,78.99-2.57,8.17-11.68,20.98-12.69,27.28-.82,5.14.88,9.34.98,13.89s.98,26-1.81,27.54c-1.5.83-3.64.31-5.23-.02v-43.47ZM258.4,843.68c-10.88,1.76-4.33,18.17,6.15,12.17,8.43-4.82,2.84-13.63-6.15-12.17Z"/>
  <path d="M672.99,1294.52c2.49,2.3,4.57,6.54,7.32,9.17,7.8,7.45,15.8,11.71,21.21,21.76,10.99,20.42,3.1,43.64-16.88,54.46-23.6,12.78-51.8-5.97-48.19-33.2,1.3-9.82,14.21-24.63,24.4-25.57,4.08-.38,15.63,1.07,19.2,2.79,6.64,3.2,12.88,20.89,6.79,26.2-8.8,7.67-18.95-3.46-15.27-9.79.56-.96,7.96-4.03,5.81-6.72-1.69-2.11-9.91-5.33-12.63-5.4-7.81-.18-22.13,14.13-22.1,21.61,0,1.72,1.37,3.05,1.67,4.86.92,5.53.57,10.04,5.54,14.44,17.32,15.35,40.37,4.62,47.97-15.02,9.71-25.11-18.17-43.56-35.14-56.81-2.89-.25-14.78,15.98-18.12,18.82-15.31,13.05-34.08,25.88-52.49,34.17-8.29,3.73-16.69,5.01-24.65,8.82-5.58-11.46,2.9-8.61,11.2-11.27,21.89-7.03,52.66-28.59,69.23-44.7,5.3-5.15,8.7-11.86,15-15.96,2.59,3.57,7.05,4.48,10.13,7.33Z"/>
  <path d="M180.72,326.84c5.01.96,4.77-6.9,3.76-10.33-.49-1.68-8.12-8.36-8.77-7.7-.84,3.66-2.45,6.74-2.88,10.63-1.51,13.43,3.13,15.87-8.65,26.32-13.61,12.07-34.62,14.89-35.37,37.66-.48,14.41,14.2,19.63,18.91,5.36-5.57-1.12-6.56-5.92-11.98-.01l2.09-8.88c7.31.69,4.75-.67,7.42-4.06,1.88-2.38,4.05-4.66,5.96-7.03,3.78,4.72,3.56,10.05-1.48,13.47,9.89,8.85,1.87,20.15-9,22.98,5.35,7.89,7.53,16.94,8.42,26.34,1.81,19.1,1.05,45.89.61,65.65-.1,4.39-1.96,9.15-1.02,13.93.86,4.36,7.55,3.78,8.73,10.24,2.66,14.59-13.34,21.71-21.2,9.22-6.86-10.9,5.72-14.17,6.51-20.4.46-3.63-1.05-6.69-1.1-9.99-.37-24.1,2.98-52.16-.07-75.88-1.93-14.95-19.47-22.53-19.94-37.08-.92-28.65,16.83-29.77,34.39-43.63.98-.78,7.27-6.69,7.67-7.32,4.36-6.87-.17-22.85,5.47-28.51,2.71-2.72,10.62-6.07,14.04-4.06,7.4,4.34,8.31,14.6,7.33,22.43-1.23,9.76-9.49,10.98-9.84.66ZM148.4,519.99c-.93-.86-2.55-1.16-3.64-1.89-3.09-.4-5.52,8.46-3.1,10.13,7.4,3.26,12.55-2.86,6.74-8.24Z"/>
  <path d="M474.39,266.53c1.5-.42,3.52-4.67,4.9-5.83,3.41-2.87,8.7-6.04,12.29-9.17h99.34s14.31,14.15,21.57,17.69c11.97,5.83,18.01-1.56,28.9-4.87,1.48-5.27.84-10.51,7.02-12.97,18.94-7.52,22.11,22.9,2.54,20.37-2.36-.31-4.47-2.05-6.85-1.73-3.88.51-12.38,8.3-18.72,6.82-1.89,1.9,6.59,4.56,7.73,4.75,15.23,2.54,33.9-3.34,47.59-9.9,8.99-4.31,16.86-13.28,27.62-10.35-2.49,2.25-5.38,5-8.06,6.93-18.7,13.47-53.15,27.27-75.57,16.75-11.38-5.34-19.06-12.8-27.77-21.22-.9-.87-5.98-4.25-5.98-4.25l-97.06-.8-15.14,12.8-55.86.16c-2.39-.56-1.29-5.16.04-5.16h51.48ZM656.22,256.99c-2.79-4.4-16.2,8.69-1.85,8.4,1.67-1.03,2.78-6.93,1.85-8.4Z"/>
  <path d="M1290.35,370.54c-1.16,5.17,1,4.28,2.9,6.59.7.84.71,2.85,1.28,3.23.97.64,5.15.15,6.79,1.23l.03,2.92c-12.71,1.18-12.47,14.62,1.44,12.93,7.29-.89,8.06-16.34,4.87-21.62-2.38-3.94-8.63-11.67-12.29-14.78-9.41-8-26.58-14.69-29.35-27.62-1.68-7.86.7-20.34-9.16-22.82-4.92.1-3.83,10.53-3.44,13.93l3.97.04-3.06,10.94c-4.94,3.24-6.94-12.42-6.99-15.41-.15-7.59,2.17-13.2,8.08-18.08,1.31-.65,9.79,3.35,11.47,4.54,10.21,7.28,1.73,21.8,9.64,31.33,9.03,10.89,30.63,16.67,37.02,32.93,10.15,25.82-15.26,34.09-19.13,53.22-3.19,15.78-1.45,46.73-1.1,63.94.15,7.43,2.53,15.17-.01,22.92.16,2.81,3.46,2.66,5.02,4.06,3.6,3.25,6.66,10.58,4.08,15.01-7.39,12.7-26,5.82-20.49-10.5.9-2.68,5.94-6.17,6.22-7.66.2-1.08-.84-3.89-.82-5.84.14-19.23-3.15-59.63.07-75.98.43-2.17,2.36-2.78,2.79-4.21.68-2.3.02-5.47.64-8.35.99-4.56,2.73-8.28,4.56-12.48-.05-2.66-9.09-5.01-10-9.99-.58-3.2,1.11-6.02,1.09-8.96-.04-5.44-3.99-13.49,3.91-15.48ZM1294.77,527.51l-.76-7.43c-5.74-7.45-14.61,12.81.76,7.43Z"/>
  <path d="M804.64,250.67c.46.28.61,1.76,1.22,2.29.94.83,2.66,1.5,3.08,2.2,1.34,2.23.46,6.26,2.46,8.35,1.42,1.48,12.02,5.98,14.09,5.96,3.68-.04,9.06-7.62,11.58-10.48.78-.88.69-2.59,1.25-3.22s6.97-4.2,8.22-4.37c18.1-2.42,41.68,1.88,60.39.1,6.06,1.12,12.71,13.16,17.18,14.02l60.16-.08,1.47,2.63c-1.44,2.55-4.62,3.2-7.31,3.51-18.13,2.08-39.87-1.61-58.4.08l-15.08-13.14-55.21-.75c-1.5.17-9.59,7.32-11.09,8.87s-2.4,4.19-4.11,5.96c-11.25,11.62-18.66,17.61-36.29,15.14-17.42-2.44-34.84-11.09-49.07-21.37-.86-.62-8.26-5.52-6.72-6.85,10.35-2.13,16.56,5.85,24.44,10.26,13.56,7.6,40,16.63,53.74,7.07.88-.61,1.86.17,1.32-2.24-4.72.99-9.75-4.79-13.67-5.03-2.3-.14-4.29,1.81-6.96,2.06-6.94.67-16.84-5.5-14.4-13.42.11-.35,3.58-5.99,3.86-6.23,1.8-1.55,12.2-2.33,13.85-1.33ZM795.41,264.68c4.6,3.63,10.55-3.3,6.86-7.35l-3.54-1.45-2.56,1.38-.76,7.42Z"/>
  <path d="M465.23,814.36c-4.06,1.79-4.18,6.17-9.92,5.18v2.99s7.08,0,7.08,0c2.14,6.37-3.92,7.72-5.51,11.04s-.4,7.97-4.57,10.48l-.02,1.45c4.29,1.52,5.61,7.43,11.09,3.02l-.47,7.09-9.14,4.56c-3.33-1.96-5.06-5.08-6.02-8.65-2.62,2.97-3.59,7.46-4.81,11.23-.68,2.11-1.65,9.11-1.95,9.56-.2.3-5.88,2.83-6.6,2.98-7.58,1.55-6.88-4.16-8.79-4.48l-10.66,4.69c.52-3.98,10.25-7.42,10.89-8.2.56-.68.28-3.13.95-4.56.77-1.63,2.65-1.94,3.31-2.99,7.68-12.19,13.43-28.43,18.95-41.93,1.28-3.14.39-8.38,4.25-8.27l2.62,6.07c8.14-.29,5.17-11.17-.13-12.07-4.58-.78-12.03,1.44-14.36,5.73-3.03,5.58-5.65,17.94-8.3,24.77-2.59,6.67-5.8,12.95-8.58,19.49-4.09,9.6-3.48,19.45-18.23,14.01.27-6.12-.65-8.67,3.6-13.51,5.29-6.02,5.14-2.5,9.33-3.66,3.74-1.04,9.43-20.34,9.82-24.83l-7.06,2,3.89,6.3c-.23,2.73-3.7,3.46-3.91,4.38-.6,2.6,1.16,10.11-4.5,10.27-3.9.11-4.78-4.09-6.65-5.41-3.11-2.21-7.04-1.01-9.92-6.22-1.3-2.35.64-9.25,1.9-11.58,3.17-5.83,16.15.73,14.63,8.24,3.49-2.16,1.29-5.11,1.71-7.28.83-4.26,5.35-9.9,6.33-12.75,1.22-3.58.14-11.16,4.57-13.52,2.59-1.38,5.49,4.52,7.73,5.5,3.33-1.46,5.23-4.89,9.18-5.69,10.68-2.18,17.73,4.62,18.26,14.58ZM429.53,812.48c5.67-.34,6.91-5.67,2.48-8.99-4.1,1.03-3.07,6.04-2.48,8.99ZM434.51,813.53l-4.96.04c.53,3.94-2.56,6.38-3.04,9.96h3.96s4.03-10,4.03-10ZM435.16,866.65c-3.65-2.48-8.32,8.54-.11,5.02,6.59-2.82,4.34-10.94,5.73-16.26.92-3.5,8.13-12.27,9.1-15.91.39-1.46-.63-3.06-.34-4.3,1.11-4.6,3.77-8.58,2.75-13.73-5.76,4.55-1.91,14.38-7.98,17.49l1.99,2.47c-2.12.24-3.43,1.15-3.02,3.53l2.02.98c-5.08,5.02-8.23,10.48-10.98,17l2.98-.51v5.99c-2.65.92-1.73-1.49-2.15-1.78ZM413.47,829.49c-2.82.08-11.23,3.47-8.5,7.03l10.55,2.93-2.05-9.96ZM414.16,855.5c-1.76.5-4.32,7.46-3.21,8.98,2.65,2.51,9.26,0,9.62-3.59.72-2.5-4.54-5.92-6.41-5.39Z"/>
  <path d="M1325.25,771.52c.52,2.34-.34,1.6-1.29,2.22-4.57,3-28.65,11.42-34.15,11.79-9.66.64-9.96-2.53-17.31-4.75-8.84-2.67-20.83-5.39-29.97-7-2.08-.37-4.14-.33-6.23-.28v-2.99c5.34-.39,10.8-1.25,16-2.49,8.81-2.11,28.34-10.36,35.45-10.59,10.4-.35,26.94,11.58,37.48,14.1Z"/>
  <path d="M201.68,772.49c-13.06.35-24.4,6.06-36.45,10.03-11.73,3.87-14.49,4.08-26.72.69-8.2-2.28-16.83-6.23-23.75-11.2,0-.88,12.03-7.13,13.98-7.98,4.58-2,16.97-6.58,21.47-6.59,6.09,0,11.01,3.71,16.69,5.38,6.64,1.95,13.63,3.82,20.36,5.62,4.66,1.25,11.16.77,14.41,4.06Z"/>
  <path d="M1186.99,1092.29c-.88,11.74-3.24,21.46-1.99,33.47,1.22,11.71,4.73,12.97,7.5,21.47,4.1,12.57-5.24,25.28-18.5,25.02,2.5,3.74,3.88,8.32,4.72,12.75,1.69,8.88,2.89,22.54,3.31,31.66.24,5.25-.11,10.63-.18,15.89l-4.85,1.65c-2.9-15.64-2.04-32.78-5.26-48.22-.68-3.26-1.88-7.76-3.24-10.75-4.53-9.98-13.18-16.06-7.99-28.98,2.68-6.66,10.58-11.34,12.48-2.02-16.03,3.79-3.35,26.82,8.93,17.44,8.63-6.59,2.11-13.04-.43-19.43-3.82-9.63-5.09-37.42-.86-46.85,1.64-3.65,2.12-3.44,6.34-3.11Z"/>
  <path d="M385.55,165.91c-3.83,6.52-10.53,5.63-15.39,1.02-7.18,10.47-19.62,7.54-29.57,2.96l.98-2.53,6.01.55c-.83-4.45,1.5-6.34,4.5-8.98,1.94,2.2,3.75,3.99,2.49,6.97,13.62,1.91,10.18-12.83,1.05-15.53-8.48-2.5-15.37,1.09-19.87,8.2-2.71,4.29-3.04,9.43-4.98,14.01-7.68,18.08-16.68,14.71-34.16,16.31-2.17,17.49,12.18,7.34,21.99,8,.73,9.74-18.78,10.77-24.49,7-9.5-6.28-.89-14.36,1.66-21.83,5.31-.58,15.82-.47,20.38-3.11,12.32-7.15,9.17-30.85,27.62-35.34,12.23-2.98,18.8,2.85,26.33,11.28,2.02,2.26,3.25,6.52,5.92,8.07,2.45,1.43,6.74,1.46,9.54,2.96Z"/>
  <path d="M169.69,151.91c1.06,7.67,2.13,17.24,5.13,24.35,5.2,12.3,19.39,22.34,25.48,33.48.84,1.54,3.87,5.86.86,7.11-1.61.67-2.55-3.85-4.52-5.45-9.81-7.97-33.42-24.56-45.13-27.82-3.55-.99-7.23-2.05-10.79-.69l-7.3-24.2c-2.9-7.64-11.11-15.6-9.69-23.77,2-1.46,38.72,20.29,45.95,16.99ZM173.69,186.88c-4.01-9.66-9.94-18.04-9.42-29.05-3.82-1.25-7.49-1.27-11.52-2.48-6.05-1.81-10.39-5.19-16.03-7.44l9.24,26.73c8.83,5.26,19.48,6.06,27.72,12.24Z"/>
  <path d="M720.15,1335.34c4.01,2.29.84,12.16,1.37,16.03,2.31,16.93,15.08,25.39,9.08,44.53-1.2,3.83-3.58,6.1-4.81,9.18-2.02,5.05-.97,12-7.46,15.01.12-2.44-2.74-3.49-3.47-5.04-1.09-2.3-.95-5.65-2.35-8.64-3.25-6.95-8.48-12.26-8.26-20.8.2-7.95,9.32-22.34,11.23-31.83.69-3.44.74-17.87,1.91-18.6.41-.25,2.19-.18,2.78.16Z"/>
  <path d="M1073.77,1285.88c1.33-1.65,1.43-16.23,8.05-9.46,4.94,5.06-1.02,13.86-6.06,16.93-18.58,11.31-37.34-8.23-25.87-26.87,5.86-9.52,16.47-9.32,26.66-8.29,15.8,1.6,26.17,19.09,44.99,20.97,6.63.66,15.91-1.12,21.95.04,6.67,1.28,1.35,6.66-2.2,7.74-25.55,7.79-38.15-9.95-56.84-18.66-9.36-4.36-22.87-6.5-29.2,3.56-7.64,12.14,10.53,23.93,18.52,14.04Z"/>
  <path d="M705.56,169.66c-5.43-8.84,6.16-26.31,9.49-34.51,1.07-2.63-.41-6.09,3.76-8.22l11.23,23.73c.81,2.35,2.58,16.8,2.1,18.49-1.05,3.66-7.18,11.85-8.88,18.17-1.6,5.91-.84,12.94-4.46,17.54-2.94.68-3.11-9.59-3.78-12.19-.78-3.02-5.79-20.27-6.67-21.35-.72-.89-2.44-1.1-2.79-1.67Z"/>
  <path d="M1246.96,542.65c-2.69-7.59-.12-16.01.03-23.44.72-34.32-1.03-68.86-1.12-102.97-.01-4.37,3.02-12.15,7.59-7.51-.3,35.32,2.06,72.18.53,107.48-.23,5.33-.68,16.3-2.09,20.89-.74,2.41-1.84,5.67-4.93,5.55Z"/>
  <path d="M202.66,1160.25c-4.9-.24-4.02-6.63-7.48-8.97l-7.28,11.31c4.61,12.89,18.96,16.16,23.3,29.61.58,1.8.21,5.49.57,5.93.19.23,2.99.42,4.25,1.23,7.28,4.62,6.51,17.25-1.91,18.81-14.01,2.59-20.5-11.43-8.6-19.58-1.38-12.68-13.58-16.44-20.37-24.3-6-6.96-6.61-18.01,1.01-24.05s22.26-1.48,16.5,10.02ZM205.93,1205.45c-4.9,5.19,5.12,9.71,8.67,4.17,1.05-3.54-6.74-6.21-8.67-4.17Z"/>
  <path d="M1231.08,1199.1c14.45,6.03.92,29.17-10.13,16.63-7.29-8.27-.94-11.06,2.43-16.59,2.58-4.24,5.02-10.78,8.14-14.84,5.3-6.92,16.16-12.69,16.48-22.59.36-11.35-10.3-6.2-14.54-.48-6.53-11.43,11.25-17.81,18.54-9.53,2.55,2.89,4.52,14.41,3.55,17.56-2.67,8.69-24.71,17.41-24.47,29.83ZM1228.48,1204.67c-1.9-.14-5.92,1.2-6.42,3.24.97,10.31,13.5,2.34,8.91-2.22-.75-.55-1.54-.95-2.48-1.02Z"/>
  <path d="M208.37,446.72l-1.01,1.96,4.06,1.62c-3.27,8.4-2.03,17.92-2.11,26.93-.12,12.75.9,26.03,1.08,38.89.14,9.62.3,19.29-2.55,28.53-2.11-.05-4.71-3.34-4.54-5.45l.03-82.97c-.81-4.09-4.95-3.12-4.98-4.03-.09-2.5,8.97-6.22,10.01-5.48Z"/>
  <path d="M1265.93,717.54c1.75,4.83-2.25,5.05-2.82,6.63-.69,1.9.11,4.17-1.17,6.66-1.19,2.3-8.04,7.51-10.76,8.43-8.66,2.93-14.54,3.09-21.72-2.74-7.04-5.71-6.42-11.7-4.49-19.98,5.56.91,2.84,8.71,5.09,12.38.98,1.59,7.61,5.51,9.48,5.61,5.04.28,9.71-10.25,13.04-12.86,1.77-1.39,12.24-5.31,13.34-4.14Z"/>
  <path d="M211.66,816.47c-3.13.56-2.34-3.08-3.65-4.07-1.22-.92-8.65-2.77-10.39-2.49-4.34.7-4.54,5.3-7.42,8.58s-18.43,11.91-19.5,6.45c-.59-3.01,7.66-16.71,11.04-18.91,8.26-5.37,32.76-4.52,29.93,10.44Z"/>
  <path d="M940.89,305c17.89-3.9,18.78,24.76,1.87,22.77-3.45-.41-9.61-5.6-10.43-8.7-1.22-4.58,3.81-13.03,8.57-14.07Z"/>
  <path d="M403.23,644.3c-.95,1.18-7.66,5.29-9.21,5.24-9.52-2.96-13.31-15.44-5-21.95,8.62-6.76,21.95,7.08,14.21,16.72Z"/>
  <path d="M1215.72,952.56c17.61-2.94,18,28.13-2.47,22.03-13.46-4.01-9.11-20.1,2.47-22.03ZM1216.72,959.54c-3.63.67-4.68,3.62-3.31,6.91,10.4,5.6,11.38-8.4,3.31-6.91Z"/>
  <path d="M680.04,186.18c.63.67,4.68,7.33,5.09,8.41,2.17,5.71,2.47,21.7-5.26,23.28-2.34-2.95-1.35-6.42-2.79-10.23-1.23-3.25-6.03-7.85-6.52-9.46-1.21-3.98.7-7.34.79-10.79.06-2.27-2.05-5.44-.5-7.49,2.03,2.66,7.25,4.22,9.2,6.29Z"/>
  <path d="M766.28,199.38c-1.53,7.6-13.24,7.76-11,17.48-1.34,1.56-5.1-5.02-5.54-5.94-2.61-5.54-3.43-8.73.12-13.97.98-1.44,6.96-8.98,8-9.99,2.17-2.11,6.03-2.89,8.42-5.07-.71,5.17.97,12.68,0,17.49Z"/>
  <path d="M1126.79,989.11c-9.59,5.63-26.45-5.54-17.14-15.63,3.02-3.27,7.61-3.89,11.86-3.08,6.49,1.25,8.04,13.5,5.28,18.71Z"/>
  <path d="M233.34,566.96c5.61,4.83,7.05,20.12-2.24,21.6-6.3,1-10.91-.23-13.86-6.01-5.31-10.43,8.66-21.99,16.1-15.59ZM225.71,582.59c8.29-.7,5.42-11.58-2.45-10.91l-1.45,2.27,3.9,8.64Z"/>
  <path d="M1225.77,782.32c-5.86-.07-13.03-1.5-13.78-8.41-2.13-19.63,30.22-10.83,13.78,8.41Z"/>
  <path d="M847.22,1155.26c1.56,1.47-10.33,11.05-11.64,11.83-4.64,2.75-28.46,9.34-29.1,1.67-.56-6.66,17.67-5.28,21.82-5.96,7.29-1.19,10.82-7.66,18.93-7.55Z"/>
  <path d="M1223.67,219.07c3.62-1.1,8.58.13,9.3,4.34,1.31,7.69-11.89,16.78-19,11.95-4.81-3.64,7.28-15.55,9.7-16.29Z"/>
  <path d="M711.55,1308.39c6.44-1.86,13.85-3.46,14.79,5.25,1.98,18.47-23.29,12.77-14.79-5.25Z"/>
  <path d="M711.56,220.1c1.73-1.73,10.32-1.88,12.35-.33,2.51,3.02,3.64,10.6,1.48,13.66-5.38,4.71-14.57,2.92-15.13-5.02-.14-2.02-.09-6.92,1.31-8.31Z"/>
  <circle cx="216.81" cy="772.03" r="8.5"/>
  <path d="M219.3,222.22c11.41,11.12-3.88,21.81-12.05,7.55-4.37-7.64,3.99-15.4,12.05-7.55Z"/>
  <path d="M459.96,1305.63c-5.68,4.99-13.74-2.39-12.43-9.91,2.42-13.92,25.26-1.36,12.43,9.91Z"/>
  <path d="M906.93,1031.6c5.03,4.71.53,15.63-5.98,14.57-1.52-.25-6.02-2.95-6.82-4.27-5.04-8.37,7.53-15.24,12.8-10.3Z"/>
  <path d="M583.4,840.46c-3.26-2.47-8.31,2.11-10.03-.4l-.84-11.48,8.95-.66,1.93,12.55Z"/>
  <path d="M666.35,1359.13c-2.87,8.81-14.14-.4-14.79-6.74-.37-3.63,1.74-7.95,5.85-5.82,2.84,4.07,2.79,12.72,8.94,12.56Z"/>
  <path d="M1049.43,1013.05c3.65,3.22,46.06-10.42,58.6-5.13,10.81,4.57,9.62,22.29-2.31,24.17-11.68,1.84-28.45-4.63-40.82-3.02l-13.58-2.92-.03,29.31,10.97,2.79.6,2.96c15.05.35,29.86,1.91,42.75,10.1,13.84,8.79,24.39,24.69,25.69,41.26,1.56,19.79.64,46.81,0,67.03-.1,3.14-2.65,9.79-.05,11.96,1.31,1.09,4.94,1.23,6.7,2.8,4.48,3.99,12.63,27.05,6.31,30.18l-181.88-.5c-2.2-13.27,5.39-29.94,17.97-35.51,3.54-1.57,6.53.86,6.99-6.11.32-4.79-5.21-7.96-9.33-7.4-.32.04-1.33,3.54-4.59,2.01l-.6-25.02,14.56-.93-1.87-14.43c5.6-5.89,11.33-2.5,17.36-2.48,3.4.01,6.56-1.72,10.52-.51l1.97-15.57c2.48.6,9.37,1.18,10.82-1.16.71-1.15.66-20.34-.92-21.72l-7.9-.59c-4.43-2.15-.97-17.75-.91-21.99.06-4.43-2.14-9.14-.94-13.85l1.49-1.5,9.4-1.8-1.12-28.24c-10.63-1.33-20.84,3.18-31.41,3.91-5.61.39-20.9.88-25.76-.2-9.18-2.05-7.85-22.41,2.73-23.82,6.34-.85,20.99,1.21,27.93,2.15,6.23.84,22.08,6.7,27.16,2.97,1.26-.92,1.84-3.34,4.07-4.93,4.54-3.23,11.91-4.59,16.41-.7,2.5,2.16,2.77,6.2,3.05,6.44ZM1044.31,1028.34v-14.49c-2.01-1.95-8.95-3.01-11.02-1.01l-.92,1.92,1.38,12.64,10.56.94ZM1022.1,1021.33c-2.03-3.44-7.68-1.66-11.36-2.12-7.99-.98-33.2-7.19-38.65-5.41-1.05.34-2.54,1.1-2.84,2.2l.95,8.28c4.75.76,9.49,1.53,14.35.97,2.36-.27,4.41-1.69,7.06-1.93,10.09-.92,20.37-1.34,30.49-2ZM1052.09,1020.33l48.46,5.1c11.34-.31,9.08-11.78-.99-12.09l-47.47,6.99ZM1044.31,1057.32v-20.49c0-3.74-5.93-2.66-8.3-1.31-5.38,3.07-1.22,14.66-1.26,19.87l9.57,1.93ZM1022.31,1065.31v18.49c0,.51-1.59,2.09-.99,3.49,4.47-3.07,34.44,2.55,35.04-1.62-3.72-9.27,4.67-20.91-9.53-21.42-7.64-.27-16.5,2.22-24.51,1.05ZM1092.33,1189.53h30.48l1.5-1.5v-74.95c0-5.56-4.23-14.94-7.19-19.79-8.65-14.18-22.65-20.45-38.77-22.69l1.99-1.98c-3.5,1.36-17.77.44-18.85,3.62l.31,10.43c7.22,1.8,11.68-.27,18.49,4.5,16.29,11.39,13.21,27.41,13.1,44.95-.02,2.39-1.12,4.59-1.12,6.95,0,3.11,1.75,6.43,1.05,9.81,3.06,2.64,6.31,3.17,10.01,1.67,1.3,4.37,2.41,25.26-1.5,26.97-2.55,1.14-2.52-2.03-3.04-2.05-7.89-.27-7.08,8.79-6.44,14.06ZM1069.82,1135.27c4.62.6,10.23-.43,14.99,0l1.5-1.5v-24.98c0-1.29-2.44-7.08-3.46-8.54-4.4-6.31-12.08-9.4-19.04-11.91l-2.42,5.52-9.63,1.37c.21,6.57-5.57,24.15,5.24,24.88,1.74.12,3.08-3.28,4.83-.84,1.86,2.59-1.38,5.12-1.28,7.33.22,4.87,4.83,8.1,9.26,8.67ZM1034.1,1098.79c-.82,4.97.6,11.76,0,16.99,0,1.26,9.18,4.9,10.05-3.94.24-2.43.29-14.14-.55-15.56l-6.87-1.89c-1.04.37-2.48,3.43-2.64,4.4ZM1054.09,1134.53c1.74-2.01,2.92-9-.5-9h-32.5c-1.71,2.03.58,9,2.5,9h30.5ZM994.62,1141.53l-1.35,1.66c-.45,10.4,1.96,7.34,8.31,7.29,17.64-.14,35.42-.31,53.05,0,6.19.11,23.63,2.83,28.44.55,3.84-1.82.67-9.5-2.5-9.5h-85.94ZM1098.31,1157.53h-119v12h119v-12ZM992.31,1177.53v13h93v-13h-93ZM1138.01,1217.21c1.55-6.22-3.52-18.18-9.71-19.76-2.21-.56-7.25-1.09-9.73-1.27-43.29-3.03-90.17,2.26-133.83.16-7.04-1.33-15.04,13.28-14.64,18.37s12.69,1.55,16.48,1.45c47.76-1.3,99.22-1.19,147-.01,1.7.04,2.93.32,4.43,1.06Z"/>
  <path d="M1074.31,268.15c1.01-4.69,8.85-6.1,10.7-10.51,11.68.66,23.2-1.12,34.86-1.04,2.32.02,5.15,2.15,5.05-1-.09-2.64-2.53-7.12,1.89-7.93,10.12-1.87,24.79,1.74,35.47-.52,6.44,3.96,2.47,10.05,3.91,16.39l-12.88.12v16.98l8.05.44.94,8.55,7.85-.86c3.5,4.04-2.24,20.09,1.07,22.4,5.7,2.06,25.16-2.52,27.55,3.46.23.58-.33,11.3-.54,12.44-1.29,6.84-6.94,2.79-9.53,2.56-5.81-.5-11.86-.06-17.44,1.48-1.14,8.62,5.48,3.04,11.01,5.48-1.26,4.48-1.78,9.43.14,13.83,4.07,1.49,11.52-3.14,14.64.34,1.17,1.3,2.47,16.81-.31,18.78h-105.45v-17.99l15.6-1.9,2.51-13.97,9.89.88.03-6.41-28.03-.58v-16.94c5.75-2.75,21.81,1.09,26.01-2.49,2.57-2.18-.2-15.6,1.43-19.56l6.57-.93.93-5.57,9.32-1.42c2.72-1.49,1.55-9.74-1.74-10.01-7.09,1.25-37.03-2.01-41.09.93-.78.56-4.31,7.68-4.4,8.62-.16,1.69,1.01,3.83,1.02,5.91.1,12.9-.63,25.6-1.1,38.46-4.41.18-10.23,2.96-13.95-.45v-57.96ZM1160.01,257.53c.16-2.25-2.5-4.59-4.52-4.97-2.63-.5-23.84-.43-24.57.56l-.89,4.41h29.98ZM1084.31,321.8v-50.47c0-.54,1.89-2.94,2.6-3.39l49.37-2.61c.69-2.4-2.21-1.32-3.52-1.46-10.12-1.02-16.34-.14-25.91.01-7.52.12-14.72-1.29-22.41.08-5.86,13.49-3.65,28.02-4.08,42.39-.14,4.57-2.31,9.67-.6,14.51l4.56.94ZM1156.31,285.53h-22.5l-1.49,2.49,1.49,1.51h22.5v-4ZM1124.03,296.53c0,2.91-.69,12.73,2.63,13.85l35.88.88c2.37-.42,2.25-13.56-.54-15.31-1.41-1.26-2.98.57-3.5.57h-34.48ZM1192.31,316.53h-94s0,8,0,8h94s0-8,0-8ZM1175.07,341.93c-13.21-1.17-24.03,5.19-37.37,3.9-4.44-.43-4.99-2.29-8-2.99-2.41-.57-15.09-1.34-16.38,0l-.09,7.28c.32,1.39,4.27,1.62,5.49,1.71,14.27.98,38.99.97,52.94-1.11,5.51-.82,5.39-4.39,3.42-8.79ZM1097.55,363.53h91.94c.19,0,3.59-1.25,3.49-1.49l-5.51-5.48c-26.3-.53-52.68.63-78.97.02-3.42-.08-12.1-3.33-13.32,1.66-.35,1.45,1.22,4.94,2.37,5.29Z"/>
  <path d="M292.31,247.1c2.79-3.86,5.81-1.49,8.5-1.7,15.83-1.23,37.22-2.02,53.04-.83,2.45.18,4.86.75,7.24,1.26.09.96,1.23,2.75,1.23,3.26v62.94c0,2.65-4.86,1.5-5.5,1.5h-15c-3.91,5.72.79,13.68-2.5,20h-17.26c-4.46,0-1.69,18.09-5.69,20l-66.62-.25-1.47-64.16c6.15-4.73,14.03-3.02,21.02-1.67,1.77-1.98-2.28-19.01,1.51-21.92h20l1.5-1.49v-16.94ZM298.61,265.53h39.47c1.76,1.52,2.28,3.24,2.52,5.48.79,7.24-1.17,16.76-1.06,24,.06,3.94,1.89,8.25,1.04,12.52h13.99l1-55-55.33-.86c-3.15,1.03-1.06,10.91-1.64,13.86ZM299.31,273.06v34.48h32.5l1.5-1.5v-29.98c0-.28-1.03-2.33-1.69-2.53l-30.06-1.77-2.26,1.31ZM292.61,272.53h-15.99l.94,13.55,14.06.44.99-14ZM313.28,333.53h-41.47c-.25,0-.59.81-1,.78l-1.5-1.28v-37.98c-1.49-2.66-13.56-1.84-14.03.17,1.6,7.26-3.42,48.35.02,51.83,2.87,2.9,8.99.85,12.34.85,11.32-.01,23.82,1.49,35.19.67,13.38-.97,10.36-2.51,10.45-15.03ZM312.6,314.53h-19.49c-3.01-2.48.13-17.85-1.6-19.89l-13.89-1.11-1,32.99c11.83-1.17,23.77,2,35.4.11l.58-12.1ZM333.58,313.53h-15.99c0,11.58,3.37,17.12,15.56,13.06.33-4.42,2.12-8.8.43-13.06Z"/>
  <path d="M1096.86,415.93c5.03,3.52,1.46,13.09,2.65,14.82,1.97,2.89,5.64-2.31,8.45-.94,1.5,2.24,1.65,9.88,3.6,10.89,1.83.95,1.47-1.46,1.74-2.2.69-1.88,1.32-3.84,1.77-5.79l17.56,2.9c2.6,3.82,2.52,8.69,2.39,13.09l-3.37-1.94-2.51,4.24c2.07,5.45,14.15,4.28,15.7,9.4,1.09,3.59-2.09,6.89.18,10.28l-3.04.55,2.03,8.44c-2.01-.35-8.69,2.79-8.81,4.5,9.87,12.12-6.68,24.41-17.9,17.73-4.49-2.67-1.44-8.99-6.8-10.25-5.38-.52-9.23,9.09-15.42,10.59-2.11.51-5.48-1.05-7.93-.66l-.09-4.87c-9.35.03-5.16-9.61-5.99-16.02l4.99,1.01c-2.3,2.58-2.23,5.08-2.06,8.44l3.07.55-1,3.98c1.83,1.75,12.98-9.87,17.08-9.5,10.9.97,12.61,6.91,18.54,14.4,24.46-1.24,8.27-19.82-5.17-23.86-3.63-1.09,1.3,5.68-1.42,7.53-1.64,1.11-8.22-.11-10.28-.82-3.81-1.32-5.32-4.86-7.47-5.52-1.72-.53-3.8.03-5.54-.45-6.29-1.74-33.08-7.37-34.57-13.43,1.35-3.88.98-10.2,2.04-13.62.6-1.92,7.11-4.9,5.82-9.68,8.82,5.23,20.86,4.04,30.97,4.99-.87-2.36-3.87-2.3-5.45-4.03-.3-.32-4.73-6.62-4.95-7.01-4.91-8.43.73-19.91,11.2-17.74ZM1092.04,435.71l4.99-10.55-.94-1.94c-9.3-4.81-9.22,5.57-6.09,11.9l2.04.58ZM1119.04,453.7c-1.96-9.05-5.79-5.77-10.93-8.55-2.11-1.14-2.59-3.57-4.13-4.86-.82-.68-9.22-5.48-8.91-2.07,3.65,1.65,21.81,17.12,23.96,15.48ZM1125.02,453.71l7.01-13.47-13.98-3.52c.46,2.13-2.07,5.41-1.49,7.02.17.47,5.08,8.06,5.47,8.48.93,1,1.4,1.83,2.99,1.49ZM1137.02,471.69c-14.79-3.71-26.95-12.79-40.98-18.47-8.29-3.36-19.95-7.51-28.58-9.41-3.29-.72-.38,5,.62,5.88-6.59-.73-7.02,7.9-6.84,12.85l3.84,1.15-.99-5.45,2.03-1.13,7.95.59-1.99-4.5c1.21-1.73,2.84,1.22,4.26,1.74,2.12.78,4.35.72,6.45,1.55,17.68,6.96,34.1,17.18,51.77,24.21,5.6-2.31,8.96-12.27.48-12.99l1.99,3.98ZM1130.03,466.69c-3.28-2.66-7.98-5.81-11.65-7.83-1.73-.95-3.67-.95-5.24-1.75-6.3-3.22-12.1-8.6-20.08-8.39l36.97,17.97ZM1141.86,460.85c-.21-.34-6.67-3.09-7.44-3.16-3.43-.33-4.86,3.03-8.38,1.02-.49,2.62.4,1.55,1.42,2.08,2.52,1.32,5.71,2.19,8.56,1.92l-1.99,2.98c3.71,1.36,11.31.74,7.83-4.84ZM1083.06,470.69c-4.93-5.63-7.96-11-15.98-11.98-2.12,2.22,12.94,12.62,15.98,11.98ZM1093.05,465.71c-5.56-.2-8.58-5.93-13.98-7.01l5.27,7.3c2.64,1.34,6.99,3.38,8.71-.3ZM1110.04,473.71c-2.26.52-8.88-5.91-9.93-2.45-.34,1.13-.45,2.63.58,3.53,2.82,2.45,8.4,5.17,11.86,6.89l-.52-4.98c-3.07-.55-1.42,4.46-4.96.5l2.98-3.49ZM1092.37,493.98c-.77.88-1.13,2.03-1.32,3.18,3.93,3.79,8.3-2.5,6.99-6.47-.19-.26-5.29,2.86-5.67,3.3Z"/>
  <path d="M764.27,317.79l6.03-11.98c4.41,2.06-1.14,6.87-1.01,9.99,1.59,1.6,13.79-9.51,8.32-13.06-4.3-2.79-10.61,3.17-11.32-2.92,15.26-4.81,21.62,4.86,10.2,16.5,4.25,3.87,8.02,1.78,12.63,7.13,7.28,8.44,2.29,13.17-5.35,18.33-1.57-3.69-3.45-4.49-7.49-4-.49,8.18,2.28,19.76-6.87,23.61l-.79,11.16-1.08,1.21c-15.41,6.84-11.74-5.59-15.25-15.99-2.76-.34-1.55.2-1.98,1.52-1.06,3.24-.32,3.89-5,3.47,3.27-8.44,7.53-4.52,6.86-15.36-.07-1.19-.57-6.18-1.86-6.61-2.18,3.43.36,8.55-1.1,11.31-1.04,1.95-4.62,4.82-6.37,6.73-.89.97-.99,2.83-1.81,3.67-1.73,1.78-8.34,2.14-8.72,3.78,2.74,6.35,10.25,4.87,14.97,1.48.33,14.21-24.28,5.09-16.42-4.95,1.76-2.25,6.47-1.64,5.44-6.03-9.17-2.06-23.53-10.28-13.87-20.39,8.99-9.4,9.22,2.25,17.87,1.39-1.1-5.39,1.26-11.59,1.1-16.5s-4.79-10.08-.59-14.48l.99,1.99c1.2-6.02,13.5-14.93,18.08-9.02,1.16,1.5-2.92,17.64,4.39,18.01ZM757.29,301.82c-1.31-.59-5.71-1.16-6.08.63,2.9,4.48,2.46,57.41,5.59,57.33,1.89-.05,1.95-1.12,2.47-2.52,1.77-4.74,2.38-20.5,1.89-25.85-.91-10.04-6.9-19.74-3.87-29.59ZM749.28,318.79c1.27-5.08,1.81-9.51-1.48-13.98l-1.08,3.98,2.57,10ZM778.28,321.8c-.18,2.4,2.26,3.23,3.21,5.27.82,1.76,1.36,8.33,4.26,7.71,4.5-4.86-1.33-13.78-7.48-12.98ZM743.3,327.29c-1.07,7.69.79,17.54,0,25.48,2.61.42,1.79-.39,2.29-2.16,2.1-7.61.26-17.96-.3-25.81-1.01-.37-1.93,2.08-1.99,2.49ZM778.26,325.8l-3.03.45c-3.44,2.46,2.53,10.23,4.03,8.53l-1.01-8.99ZM768.28,332.29c.1,5.66,0,11.33,0,16.99,0,.52,1.4,6.47,2.99,4.5,1.56-3.53.83-23.73-2.49-23.97-2.46-.17-.5,2.35-.5,2.48ZM732.3,343.78l-.43-7.05-4.55-.93.46,5.97,4.53,2.01ZM736.31,349.77c3.04,2.78,7.87-15.25-1.77-8.53l1.77,8.53ZM732.08,346c-.33-.33-8.43-3.55-8.76-3.22.77,5.47,5.82,8.2,10.5,9.98.94-1.06-1.26-6.29-1.73-6.76ZM766.28,344.79c-2.31-.15-1.77-.35-2,1.47-.39,3.16.44,6.1-.47,9.54-.74,2.83-3.82,4.96-4.32,6.68-.86,2.98.15,7.12-.21,10.29,11.14,1.69,6.31-12.81,6.11-19.45-.08-2.59,1.39-5.73.88-8.53Z"/>
  <g>
    <path d="M339.58,1353.53l-11.49-16.01-7.17-5.89-9.98,9.74c-1.54.3-9.57-4.83-10.43-6.27-4.57-7.61,2.48-21.81,12.32-17.32,2.17.99,14.12,9.03,16.22,10.78,5.99,4.98,10.75,16.34,17.3,19.69,14.97,7.66,39.34,2.13,55.6,5.04,3.12-3.19,6.86-5.77,10.14-8.74,3.99-3.61,26.81-28.06,28.97-28.06,1.51,0,5.26,3.16,4.06,5.02-10.6,8.11-18.82,18.59-28.03,28.04-3.25,3.33-7.49,4.73-9.19,10.02-10,0-19.84,1.4-29.87,1-12.23-.49-21.44-1.1-33.92-1-10.18.09-20.4.12-30.53-.04-1.32,1.25,4.7,15.17,6.17,17.32,1.85,2.71,4.06,3.37,5.48,5.02,8.33,9.7,11.72,16.64,26.76,14.56,17.19-2.38,11.34-25.65-2.99-15.92l1.57,8-8.03.58c-1.38-7.53-3.79-10.51-10.94-13.07,1.89-1.73,3.77-3.18,6.44-3.54,6.86-.94,16.54.15,23.84-.74,4,1.92,3.93,4.72,4.73,8.27.27,1.2-.76,1.82,1.46,1.51,5.78-6.31,12.78-8.79,21.14-9.86,4.13-.53,10.56-.97,14.83-1.17,26.57-1.26,54.16,1.01,80.83.06,4.69-7.06,10.14-11.83,17.91-5.02,10.28,9.01-.13,25.8-13.55,17.84-5.37-3.18-2.35-6.08-11.17-6.83-21.02-1.8-56.79-1.52-78.02-.06-4.95.34-16.39,2.08-20.42,4.58-6.92,4.3-11.94,18.09-20.05,20.95-8.64,3.05-22.29,2.4-29.87-3.11-6.24-4.53-8.59-15.3-17.11-16.38,2.13,12.3-6.61,29.57-19,16.48l8.74-2.75c12.56-25.75-14.98-38.55-36.74-36.73,4.42,9.48,13.18,20.28,7,30.98,6.39-.6,13.68.56,16.97,6.52-.1,2.17-8.14,1.36-10.24,1.73-5.18.92-10.37,6-15.7.27,7.36-10.79,6.39-21.28-2.01-31.03-4.93-5.72-12.92-8.64-15.02-15.48h54c-8.8-10.22-18.46-21.53-32.74-23.76-2.83-.44-13.14,1.39-16.29,2.22-12.58,3.34-22.25,23.56-20.82,35.89,1.64,4.9,10.12-2.91,14.39-.42,2.43,1.41,12.74,13.72,13.73,16.4,1.55,4.18.06,13.46-1.86,17.58-7.39,15.86-25.61,22.88-41.42,14.61-16.77-8.77-21.77-27.87-18.75-45.78,1.24-7.35,8.14-17.45,10.76-24.73-1.13-1.09-7.67,6.94-8.44,8.05-7.67,11.1-12.4,23.65-9.32,37.2,1.61,7.09,7.63,8.84,7.76,16.73-16.15-3.24-19.1-23.26-14.17-36.66,14.92-40.62,67.41-66.31,105.5-39.16,8.91,6.36,12.07,16.71,21.17,22.83h29.5ZM308.31,1323.33c-1.32.4-4.74,3.86-4.74,5.31l5.53,5.53c4.39-1.66,7.39-6.77,3.51-10.54-1.29-.79-2.9-.72-4.3-.3ZM246.64,1326.15c-5.33.06-12.41,3.63-17.2,6.27-21.67,11.96-34.22,44.26-19.97,66.37,20.19,31.33,59.99-5.13,36.19-24.2-3.52-2.82-9.07-5.96-11.87-.77-1.69,4.15,5.89,6.71,5.89,9.78-1.85,3.52-7.45,10.07-12,8-1.3-.59-6.92-7.68-7.06-9.04-.22-2.13,2.43-6.14,2.95-9.04,2.87-16.16,1.5-31.89,16.14-43.82l6.92-3.55ZM312.59,1378.1c-.4-6.62-5.01-18.29-12.98-16.97l5.4,5.08,7.58,11.9ZM496.34,1367.26c-11.19,1.03-2.57,20.41,4.11,7.37l-4.11-7.37Z"/>
    <path d="M211.32,1320.8c-19.41,19-34.26,28.91-41.17,57.26-.71,2.93-.63,10.76-2.42,12.57l-40.76,13.3-3.32-1.26-.77-3.85c5.45-9.19,9.09-19.59,12.32-29.74,2.07-6.52-.61-11.15,8.26-12.73,5.95-1.06,8.93-.3,15.52-2.47,23.07-7.62,38.21-29.39,55.26-45.71.82-.79,1.36-2.77,1.56-2.88,2.89-1.66,5.5,3.32,4.73,6.13-.28,1.04-7.57,7.77-9.2,9.37ZM148.72,1363.11c-10.54-1.92-6.21,7.82-8.28,15.21-.65,2.33-6.72,13.69-5.71,14.77,2.12.17,3.05-1.76,4.99-2.5,3.65-1.39,21.46-4.91,22.5-6.48.49-.73,1.78-8.6,1.47-9.01-4.56,5.15-10.31,4.5-15.98,6.49-1.95.69-2.86,2.69-4.99,2.5,1.03-3.33,3.19-5.66,4.29-9.19.56-1.8,2.46-11.04,1.7-11.79Z"/>
  </g>
  <g>
    <path d="M1096.05,1352.12c8.87-1.92,26.13,3.53,33.74.35,1.68-.7,11.77-15.09,15.75-18.3,25.66-20.73,58.09-19.57,82.95,1.95,15.03,13.01,28.8,30.03,26.35,51.39-.76,6.58-6.52,22.17-14.89,15.08,10.19-10.96,10.93-33.07,1.86-44.81-1.38-1.79-3.72-2.77-5.39-4.6s-1.71-4.23-3.45-5.03c.02,4.42,3.54,7.74,4.73,11.75,6.03,20.47,3.08,34.78-10.29,51.14-7.54,9.23-28.02,9.02-36.91,2.06-5.46-4.28-10.83-14.58-10.93-21.48-.19-13.54,13.88-36.78,27.92-21.49.86-10.85-5.61-26.91-14.02-33.95-22.04-18.44-41.75-1.11-56.43,16.47l55.95-2.5c.96.88-3.45,5.18-4.08,6.44-.7,1.4.39,3.22-.86,4.04-2.38,1.58-10.04,2.4-12.49,5.55-.44.56-5.86,12.06-6.08,12.9-1.96,7.54,1.4,14,3.09,21.05-6.29,5.82-9.7-1.58-13.52-2.63-2.04-.56-9.03,3.35-10.08-2.9-.47-2.81,10.48-6.89,12.7-2.64l2.29-1.46c-2.66-10.77.22-24.81,10.03-30.89-7.38-.8-15.76.06-23,1.98-13.77,3.65-23.02,17.5-18.51,31.55,1.77,5.53,6.71,2.46,9.52,6.45-5.11,5.96-10.42,4.84-14.96-1.01-9.96-12.82,2.76-29.25,11.99-38.46-6.99-2.19-11.56,8.45-14.53,13.94-1.61,2.97-2.07,6.37-3.63,9.36-8.51,16.32-28.46,26.39-45.71,16.08-4.12-2.46-6.81-9.78-10.72-13.26-10.56-9.41-22.26-9.65-35.78-10.19-24.03-.97-48.79,2.44-72.97,1.07-7.7,4.68-9.18,12.32-19.21,6.18-11.82-7.23-1.24-25.34,11.05-18.04,3.12,1.86,4.12,5.61,8.13,5.94,2.77.23,5.86-1.07,8.96-1.14,25.71-.55,58.91-1.85,83.97,1.06,10.02,1.16,13.32,3.7,20.01,10.97.5-9.51,10.62-12.23,18.75-10.76,6.41,1.16,1.98,1.78,9.29.81,5.4-.71,7.35,1.25,9.43,5.95-10.41-2.65-8.99,13.62-18.93,10.94.36-1.94-1.34-4.83-1.13-6.29.15-1.04,2.86-.63,3.15-3.13.75-6.48-12.67-2.79-13.89,3.22-1.95,9.56,10.72,14.08,18.33,13.29,13.83-1.44,26.67-25.32,31.46-37-20.81.27-41.67-.36-62.49-.05-12.74.19-27.96,4.96-38.7-4.19-40.51-.74-81.62-1.6-122.19-.81-8.06.16-11.08,4.23-17.95-2.95-4.68-4.89-10.64-16.25-17.43-17.54s-10.74.5-16.5.59c-4.79.07-16.96-1.26-20.1-.72-.98.17-1.69,2.61-3.07,3.54-7.03,4.79-12.34,5.3-17.35-2.36-5.91-9.04,5.77-21.15,15.25-13.53,2,1.61,1.8,4.9,4.21,5.1,59.36-.73,118.74.68,177.95.33,16.04,16.56,19.22,27.23,44.96,26.62,7.7-.18,19.54-.28,26.83-1.15,15.02-1.8,15.78-10.78,24.55-19.42,4.49-4.42,14.23-10,19.98-13,14.03-7.31,21.65,10.66,8.75,17.74-9.22,5.06-8.84-2.24-15.74-5.8-9.12,4.7-14.78,11.96-19.94,20.58ZM1127.52,1322.41c-5.1,2.76-4.91,9.8.83,11.57,6.33-2.04,5.07-9.76-.83-11.57ZM815.39,1333.99c11.03,2.38,5.33-12.4.77-8.23-1.89,2.87-2.58,5.01-.77,8.23ZM1214.19,1380.91c.29.48,1.76.63,2.31,1.17l.38,1.36c-5.69,11.15-14.2,9.13-20.86.16l7.94-8.99c-5.38-7.14-13.35-1.44-16.01,4.96-11.27,27.16,23.71,41.15,38.01,22.02,17.11-22.9,3.4-56.43-19.29-69.65-3.13-1.82-7.19-3.79-10.69-4.79,7.13,7.87,16.45,18.6,17.9,29.56.59,4.46-.82,22.37.3,24.2ZM1015.11,1347.46c-3.12-3.94-8.33-12.1-13.55-12.92l-124.35-1.05c.05,3.24,3.98,4.24,6.04,6.44,1.89,2.02,4.16,6.31,6.39,7.59,3.8,2.18,5.12.02,8.05.15,11.76.53,21.51-.14,32.91-.23,28.16-.21,56.35.23,84.5.02ZM941.86,1369.22c-1.34.34-4.36,3.98-4.36,5.38l4.16,4.16,6.46-5.15c-1.77-1.47-3.65-5.06-6.27-4.39Z"/>
    <path d="M1218.66,1305.26c3.12-.78,4.05,3.16,5.79,4.91,13.64,13.73,35.19,38.04,53.51,43.43,4.53,1.33,18.9,2.22,21.03,4.95.41.53,3.22,7.96,3.65,9.34,1.53,4.87,1.87,11.76,3.57,16.42,2.6,7.11,18.66,23.2-2.3,17.29-8-2.26-17.54-7.93-25.16-9.82-2.68-.66-9.44-.28-10.37-1.62-.08-10.35-2.01-20.97-6.61-30.36-7.58-15.46-21.74-25.66-33.75-37.2-3.31-3.18-12.8-8.78-12.06-13.88.2-1.39,1.36-3.11,2.72-3.45ZM1292.66,1362.38c-1.06-1.01-3.28-1.33-4.74-1.25.35,3.33,6.39,20.24,3.99,21.97l-16.47-6.01-1.44,6.39c.5,1.7,15.86,4.56,19.19,5.84,3.57,1.37,6.07,4.07,9.71,4.77-3.94-6.53-5.71-27.35-10.24-31.71Z"/>
    <path d="M839.53,1348.43c3.55-4.79,15.53-3.36,16.5,3.4.91,6.29-2.44,10.96-8.75,11.85-8.5,1.2-11.61-10.04-7.75-15.26Z"/>
    <path d="M778.28,1347.12c1.83,0,5.21-.59,5.92,1.64-.68,4.57-1.01,10.77-5.55,13.22-5.97,3.22-9.1-2.15-5.33-5.31s6.21-1.45,4.96-9.55Z"/>
  </g>
  <g>
    <path d="M1085.56,187.53l1.48-.09c8.51,6.13,10.95,15.75,20.26,21.67,24.17,15.38,50.15,12.51,74.94,1.49,18.98-8.43,28.33-28.14,19.23-47.7-4.58-9.84-18.8-19.02-29.76-15.8-.49.14-7.94,4.64-8.74,5.24-16.05,12.02-7.06,42.2,15.03,31.51-1.55-3.41-6.57-2.45-7.56-5.9-4.38-15.27,20.15-16.02,17.6,2.47-.64,4.66-12.15,12.13-16.61,12.36-7.95.4-20.14-8.61-22.65-16.18s1.01-18.29,5.23-24.71c-5.45,1.16-11.03,2.17-16.25,4.23-3.59,1.42-10.28,6.36-13.24,6.32-1.29-.02-7.11-2.7-7.96-3.59-2.09-2.17-2.89-9.23,1.46-8.96,1.99,13.29,10.72,2.82,17.31-.19,3.73-1.7,11.63-4.96,15.41-5.57,7.58-1.2,6.04,1.16,13.99-2.02,22.12-8.84,48.6,9.85,48.84,33.42.16,15.81-9.49,27.85-21.58,36.81,1.4,2.24,4.04.51,5.92-.05,19.84-5.98,28.76-19.59,30.07-39.88.6-9.37-.41-12.06-2.76-20.3-6.27-22.04,23.49-22.65,25.7-1.73,3.36,31.75-25.96,61.57-54.92,69.01-26.78,6.88-52.67,9.87-79.5,1.47-15.64-4.9-30.66-27.34-30.66-27.34h-139.24s-13.98,16.88-24.18,21.1c-24.31,1.39-49.5-1.07-73.71.24-3.24.18-10.32.51-12.98,1.01-2.32.44-6.11,4.63-9.48,5.5-7.63,1.97-13.33-.85-14.08-8.96-1.63-17.67,15-14.3,23.5-4.97,25.62-1.6,56.99,3.43,82.01.43,2.88-.34,4.59-1.54,6.81-3.18.6-.44,7.91-7.3,8.19-7.79.58-1,.46-3.39.46-3.39l-59.49.4c-4.82,4.36-6.52,7.12-13.66,6.35-20.5-2.21-3.9-32.52,9.71-18.75,2.12,2.14,2.07,5.45,4.99,6,15.66-.25,31.35.31,47,.04,6-.1,13.09-3.14,18.96.69,12.23-6.46,20.23-27.76,34.04-29.62,3.84-.52,10.87-1,14.86-1.13,10.28-.34,19.83.84,29.96,2.1,2.44-13.75,20.71-13.17,22.45.54,2.04,16.12-18.07,17.5-24.54,5.32-14.74,4.71-36.8-5.39-49.32,4.56-5.83,4.64-11.62,12.14-16.98,17.49h134.41ZM1232.97,184.88c5.01-6.25,11.06-16.59,11.87-24.59.38-3.73-.15-17.18-4.57-18.24l-7.64,1.02-1.53,1.46c-2.58,9.1,5.87,16.34,5.86,24.85,0,4.58-3.28,10.84-3.99,15.49ZM1036.1,157.91c-3.8.05-7.25-1.76-10.6.96-.39,4.02,2.13,9.75,6.63,6.57.81-.57.85-2.48,1.58-3.47,1.04-1.4,3.26-.7,2.38-4.06ZM860.94,186.09c-2.09.47-4.45,2.17-4.76,4.34-.54,5.49,7.66,5.49,11.06,2.98,2.59-5.13-.69-8.56-6.3-7.31ZM820.91,208.54c-.54.73-2.26.88-2.59,1.94-.83,2.68,3.15,7.64,6.35,6.31,3.03-5.3,6.32-9.77-1.9-11.93-1.41.77-1.11,2.66-1.86,3.67Z"/>
    <path d="M1313.9,135.92c-5.68,15.02-14.01,29.49-14.99,45.96-18.86.02-33.32,11.04-46.97,22.48-6.23,5.22-10.2,12.4-18.97,14.5,4.44-14.85,18.47-23.7,25.52-36.93,4.86-9.12,7.38-19.8,9.69-29.79l45.73-16.22ZM1291.92,177.89c-2.29-4.66,9.49-27.06,7.98-28.99-7.27,5.65-16.87,7.53-25.97,7.99.83,6.51-3.56,11.74-4.5,17.99l-8.49,13.99c.82.82,8.69-5.36,10.31-6.17,5.91-2.95,14.08-5.27,20.67-4.81Z"/>
    <path d="M1144.73,203.57c-4.46,3.6-22.47,1.01-27.65-2.75l.4-3c10.65-3.74,23.58,11.13,23.54-8.94-10.53.67-16.92.16-25.46-6.02-13.09-9.46-8.38-17.35-15.68-27.3-5.87-8.01-19.78-8.09-25.27.38-1.16,1.79-3.73,6.91-1.56,8.45,4.24,3.02,13.34,2.17,13-4.86l1.97-.63c2.7,4.21,3.71,3.35,2.02,8.98l5.98,1.5-8.69,5.31c-8.43-.27-18.29-2.94-23.77-9.8-.35,1.37-4.28,7.23-5.84,6.91-1.12-.92-6.94-4.11-5.65-5.9,16.46-3.81,15.17-22.01,33.44-23.03,28-1.57,22.4,33.48,39.43,37.58,4.47,1.08,16.58,1.39,19.51,4.48,3.29,3.47,3.98,15.63.26,18.63Z"/>
  </g>
  <path d="M915.19,774.5l2.98-2c1.62,2.24-2.94,13.34-3.04,16.52-.12,3.66,2.03,8.33,1.06,12.46l4.48-5.99c2.19,3.19,5.23,7.64,9.49,6.5-9.39-8.37-9.15-14.21-1.51-23.5,4.32-5.26,16.3-17.86,22.99-18.07,10.33-.31,19.89,13.67,17.04,23.12-1.91,6.34-12.09,14.6-18.93,13.93-5.31-.52-10.64-7.97-15.58-9.98-.62,9.21,16.59,16.6,4.7,24.2-12.67,8.1-9.96-6.06-20.69-7.21-2.89,3.2,9.59,15.37,11.43,18.04.63.92,4.23,7.17,4.3,7.6.56,3.34-3.77,5.96-3.77,7.82,0,1.21,3.26,5.26,3.78,8.25,2.06,12.08-9.1,25.52-21.48,20.49-5.02-2.04-8.76-11.47-11.26-12.8-2.13-1.13-6.12,1.81-9.96.04-2.03-.94-8.56-10.98-10-9.47-.02,5.19,8.83,10.33,8.89,14.46s-6.15,13.58-8.32,17.63c-.61,1.14-.31,3.01-.77,3.67s-7.02,2.18-8.35,2.24c-13.81.67-16.94-19.82-9.47-29.28,1.5-1.9,5.86-3.41,7.93-5.33,11.76-10.95,1.66-14.29,2.07-24.84.14-3.71,4.79-15.88,6.81-19.25,6.93-11.52,21.39-22.76,29.22-32.73,1.26-1.61,1.24-4.1,2.48-5.51,3.01-3.43,7.58.25,6.41-8.42-.31-2.33-2.11-4.62-1.76-6.87.6-3.85,10.46-9.91,6.31-16.7-.17-.28-4.82-3.85-5.13-3.91-3.69-.68-3.65,7.94-4.61,10.14-1.01,2.32-3.47,3.33-4.6,5.39-1.53,2.77-1.65,6.12-3.49,9.51-8.42,15.57-25.52,27.9-31.66,44.29-3.92,10.47.13,14.9-14.94,15.54,1.57,2.22,5.59,2.77,7.43,5.04,4.6,5.68-1.55,15.58-8.43,15.95,3.92,3.73,4.49,8.35,1.45,12.94-2.06,3.11-8.17,3.74-7.46,8.03l-1.04-2.92c-3.07.95-9.46-2.14-11.51-1.77-1.15.21-1.31,2.7-3.14,3.49-.62.27-12.15,4.02-12.82,4.15-6.11,1.2-13.87-3.6-17.96-7.94-.6-.64-5.76-7.56-5.97-8.01-3.23-6.99,6.4-12.53,4.48-19.97l2.49,3.97,2.5-3.96c-21.36-7.08-16.13-30.38,4.57-32.92,1.37-3.64-.62-8.6.95-12.04.76-1.66,9.6-10.03,11.47-9.49,3.04.88,9.35,8.07,12.54,5.56,2.8-2.2-.27-4.91-.53-7.7-.53-5.82,8.82-13.98,14.49-14.39,3.85-.28,12.42,3.31,15.02,5.96s1.94,7.17,8.44,6.04c-2.33-5.18-.78-11.47,2.96-15.52,1.3-1.41,7.58-5.07,7.93-5.57.24-.34-1.57-4.76-.66-8.15,1.13-4.18,8.98-11.16,13.24-11.32,2.55-.1,6.62,3.37,8.99,3.17,1.65-.14,3.38-2.69,6.77-2.36,3.69.35,9.95,4.18,11.18,7.83,2.91,8.6-2.5,10.96-3.4,16.49-.79,4.87,1.02,12.42-.25,16.73-.56,1.9-8.23,7.23-6.78,8.7ZM910.17,730.53c-8.49,4.13-16.08-5.82-20.9,5.36,2.06,3.2,10.63,9.41,14.23,8.5,3.07-.78,6.73-10.63,6.67-13.86ZM893.18,763.51l3.58-9.04c-7.66-2.68-9.26-9.04-17.55-2.93,2.24,6.17,7.65,10.54,13.97,11.97ZM846.73,800.48c5.09-.86,12.14.63,17.49,0-1.63-2.89-5.66-2.53-8.34-4.15-6.4-3.86-2.76-10.14-2.7-16.17.33-.77,5.52-1.69,6.6-1.69,1.57,0,9.6,2.76,9.43.53-.18-2.35-6.61-4.51-8.97-3.5l3.57-14.02c-5.37-2.19-9.06-6.81-15.31-4.21-.96.4-4.41,3.39-4.7,4.19-.58,1.58.96,14.73.49,18.58-.43,3.51-3.69,7.52-7.38,7.23-2.69-.21-11.31-7.99-12.65-6.76,1.88,3.41,8.06,11.96,7.98,15.51-.02.76-6.2,9.27-7.05,9.89-5.15,3.7-10.02.27-14.91-1.44-.6-4.74,6.78.72,8.99-1.48l-10.49-7.48-8.47,10.48c5.73,3.44,11.7,7.36,13.9,13.99-.05,7.31-11.84,15.75-10.79,19.78,5.33,4.04,9.41,14.97,16.39,14.72,1.61-.06,10.29-3.41,12.7-4.28,1.57-.57,2.23-2.31,4.27-2.72,4.32-.87,9.35,1.47,13.86.71l6.61-6.24c.45-2.4-1.11-1.18-2.47-1.49-2.81-.64-15.75-3.81-16.37-5.63-.51-1.5-.25-4.14-.04-5.8,1.31-10.37,22-1.95,22.88-6.07s-17.74-4.97-18-14.94c-.06-2.4.79-7.07,3.52-7.53ZM929.17,779.51c3.84,4.01,7.63-.65,14.2,1.26,8.84,2.58,15.24,14.81,20.01.46,1.76-5.31,1.02-7.16-2.21-11.25-11.54-14.59-20.08,7.62-32,9.53ZM867.69,765.84c-7.02.87,5.7,13.38,7.96,14.71,4.35,2.56,9.94-1.15,7.62-4.58-1.37-2.02-13.49-10.39-15.57-10.13ZM912.18,775.5c-2.16-.25-4.1,1.01-5.64,2.35-5.07,4.42-18.25,22.39-21.89,28.57-.96,1.64-7.27,14.61-7.4,15.63-.32,2.39,1.06,12.86,3.53,13.39,7.84-2.26,9.31-8.63,13.4-13.5,5.86-6.98,11.59-11.16,15.39-20.12.14-.33,1.42-.38,1.59-1.05.8-3.27-1.12-7.95-1.03-11.79.11-4.85,3.05-9.1,2.06-13.48ZM826.88,791.85c-1.59-1.64-3.86-2.64-5.64-4.86s-2.62-5.91-4.99-7.48c-2.36,4.73,7.76,17.64,11.46,16.99,2.59-.45.03-3.76-.83-4.65ZM870.2,797.48c.56-2.51,2.04-5.22.07-7.55l-13.04-9.43c1.18,2.52,4.78,4.25,5.6,6.96.66,2.2-.66,3.97.3,5.55.76,1.25,5.87,5.3,7.08,4.47ZM864.8,803.53h-15.49v2.99c5.07-.72,11.4,2.32,16.01-.48,1.5-.91.29-2.32-.52-2.51ZM913.17,829.46c.38-3.62-.32-6.78-1.27-10.21-.47-1.71-2.13-5.79-3.71-6.77.93,4.72-.7,15.31,4.98,16.98ZM923.18,838.46c-1.58-1.63,10.69-10.97,3.28-12.86-2.49-.64-8.89,4.05-11.36,5.46-.34,2.29,4.27,7.82,6.39,8.68,1.93.78,5.39.56,4.68-2.28l-2.98,1ZM860.22,827.53h-13c-1.06,6.07,10.95,5.1,13,0ZM930.11,845.51c-7.18-.87-10.49-.46-15.34-6.14-6.02-7.03-5.04-14.47-17.57-11.9,1.85,3.67,8.37,7.19,9.54,10.92,1.88,5.99-4.1,19.52,5.47,23.52,10.9,4.56,19.06-6.35,17.91-16.42ZM888.38,845.6l-.18,1.33,4.63,4.43c6.67-1.82.97-10.79-2.14-13.91-1.71,2.49,1.51,7.72-2.31,8.14ZM883.2,864.46c-4.96,1.28-11.72-13.56-13.97-12-5.37,8.09-9.87,16.19-.09,23.54,7,5.26,11.91-6.47,14.06-11.54Z"/>
  <path d="M773.53,628.85c2.45-2.36,8.71-1.66,10.22,1.77,1.32,2.99.79,12.87-2.46,14.48-9.58,4.76-14.07-10.17-7.76-16.24Z"/>
  <g>
    <path d="M939.62,367.38c38.33,28.62,70.1,57.13,97.38,97,52.83,77.19,77.79,185.31,55.86,277.37-18.02,75.69-59.07,129.16-122.31,173.49-37.36,26.18-100.04,52.5-120.44,95.41-1.29,2.71-3.36,5.7-1.81,8.68-1.5.41-1.65-.36-2.51-.97-28.18-20.27-58.7-39.98-93.41-47.48-2.46-.53-7.2-2.51-8.47.45,1.87,8.73,1.6,17.63,1.51,26.57-.42,43.3-3.44,102.72,5.17,144.65,4.19,20.38,25.12,47.57,46.7,51.24,4.82.82,14.31-1.41,12.58,5.46-20.5,12.46-40.2,27.21-64.95,29.01-27.59,2-52.68-4.5-70.99-26-1.07,1.55-4.36,3.54-4.98,4.99-1.91,4.51-.93,26.77,2.77,29.69.89.7,2.91.27,3.69,1.78-6.14,5.29-8.94,12.55-14,18.96-16.27,20.61-36.66,37.43-59.26,50.67-3.11,1.82-7.14,4.1-10.67,4.84l1.01,3.98c-.54.56-8.03,1.63-9.23,2.09-15.76,6.01-31.28,12.78-48.52,16.62-17.4,3.87-35.29,4.28-53.12,4.23-.55-2.4-1.82-14.35-.11-15.49,4.09-1.14,8.41-.03,12.54-.46,37.31-3.86,66.34-21.66,82.89-56.03,2.98-6.19.87-1.59,3.04-3.84,6.32-6.57,14.93-39.65,17.24-49.81,12.74-56.14,6.33-114.63,9.31-171.57-2.58-28.98,3.32-63.61-.16-91.91-.12-.98-.5-3.37-1.56-3.62l-48.84,1c-29.32,3.61-51.94,6.37-76.73,23.2-29.45,20-42.49,57.75-27.39,91,2.35,5.18,7.43,9.78,6.72,15.75-2.09.3-3.53-.23-5.35-1.14-29.54-14.78-32.1-77.26-20.82-104.48,26.33-63.51,87.8-98.71,152.9-110.92,4.24-.8,20.8-1.41,22.01-4.98l.21-298.68c-1.29-14.06-1.9-29.12-11.87-39.96,3.95-3.24,7.81-6.84,11.89-9.91,62.89-47.28,129.86-93.99,190.33-144.44,17.92-14.95,40.08-32.64,56.09-49.34,4.08-4.25,7.34-8.7,10.85-13.64,2.38-.6,10.34,13.74,12.51,16.46,14.14,17.8,43.65,36.18,62.3,50.11ZM968.49,463.35c-31.85-37.1-70.82-58.92-105.8-92.56-6.3-6.06-13.26-16-19.91-20.06-.77-.47-1.78-1.97-2.54-.46,3.74,7.12,4.9,14.78,9.19,21.79,14.79,24.23,51.26,45.94,73.23,64.68,65.89,56.19,92.5,115.9,107.18,200.62,13.1,75.63,2.46,161.45-39.74,226.54-.6.93-1.86,2.77-.47,3.53,3.6-2.71,6.67-7.75,9.33-11.66,55.47-81.57,53.53-167.79,35.86-261.36-8.95-47.36-35.42-95.08-66.31-131.06ZM798.87,397.15c-.71-.43-1.2-1.13-2.27-1.17-3.04-.11-14.73,11.23-17.44,14.18-10.68,5.58-19.58,13.58-28.95,21.01-1.73,1.37-4.73,1.36-4.98,4.08l1.09,8.92-.04,259.38c9.88-4.93,20.26-4.1,30.97-3.99,3.07-31.23,36.5-46.7,65.36-42.89,9.06,1.2,19.36,8.18,28.56,9.9.81-15.89.97-33.08,11.49-45.98,11.53-14.14,30.78-14.82,47.49-17.99-4.08-17.94,2.41-35.34,12.86-49.69-8.91-20.34-22.53-39.75-37.33-56.25-28.86-32.17-66.3-52.95-94.96-84.92-2.89-3.22-8.95-12.86-11.84-14.6ZM691.48,855.31c10.93,4.1,23.21,1.85,34.44,5.08l2.39-2.45-1.01-411.23c-4.75,3.22-8.07,8.45-12.48,11.99-3.31,2.65-8.02,4.09-11.38,7.61-10.05,10.53-9.09,36.78-10.11,50.85-2.97,40.8-1.9,82.16-2.04,122.88-.25,71.75.17,143.53.19,215.27ZM935.17,663.57c2.55,2.8,6.81-10.15,7.14-11.33,8.38-29.3-8.14-55.03,1.12-82.82,1.35-4.04,4.55-7.38,4.71-11.77-5.48,2.43-7.61,7.52-9.75,12.73-12.63,30.82,5.91,62.37-3.23,93.2ZM952.14,568.63c-2.33-.63-1.68.59-2.28,1.27-6.34,7.18-5.27,13.12.29,20.21,2.94,3.76,6.75,7.73,11.99,6.49l-10-27.98ZM966.13,611.61c.94-9.93-8.85-6.37-13.88-11.59l-8.08-12.39,2.08,18.89,19.88,5.09ZM931.16,610.6c.09-4.27-6.04-2.69-8.98-3.99l1.15,3.84,7.83.15ZM968.11,615.65c-6.04-1.84-12.07-3.33-18.36-4.16-.69-.09-3.72-1.42-3.57.61.2,2.66,18.42,5.88,21.45,6.51l.48-2.97ZM913.92,613.87c-2.47-2.04-12.44-.91-11.72,2.21l20.28,26.75c1.27,1.28,8.38,15.84,10.68,13.74.42-3.98,2.49-14.06.83-17.24-1.08-2.08-6.52-5.7-8.79-8.27-4.29-4.86-8.09-11.53-11.28-17.19ZM931,614.78c-.41-.63-9.64-2.07-11.33-2.19-1.47-.1-1.82-.11-1.52,1.53.62,3.34,12.7,16.7,16,19.47l-3.16-18.81ZM900.18,617.6c-3.25,2.34-8.04,6.68-6.56,11.02l30.06,45.92c13.02-11.28,4.02-14.67-2.91-24.05-4.74-6.41-17.67-22.68-20.09-28.88-.5-1.27-.49-2.68-.49-4.01ZM787.31,720.54v17.49c0,15.56-9.62,34.39-18.96,45.96-15.12,18.74-20.91,31.19-22.06,55.94l.49,23.58c13.94,4.11,28.59,5.58,42.74,9.23,18.16,4.68,38.6,12.51,55.74,20.21,21.52,9.67,41.32,22.5,60.32,36.35,3.41-4,10.13-6.23,13.54-9.47,20.53-19.55,44.91-61.33,50.76-89.14,7.22-34.31,11.63-69.59,11.34-104.68-.14-16.46-2.09-38.49-4.06-54.9-1.78-14.91-5.62-29.74-7.24-44.72-1.41-4.11-5.74-2.23-8.98-3.01-4.49-1.08-8.62-3.16-13.23-3.75,3.19,12.97.79,26.8-3.76,39.23-9.83,26.83-35.32,38.04-62.64,30.77-2.84,7.45-4.04,16.96-9.53,22.97-2.8,3.07-22.89,16.77-26.45,17.52-8.92,1.89-24.3.36-33.25-1.84-8.45-2.08-16.18-6.67-24.77-7.71ZM880.2,671.57c1.96-13.2.49-26.6,5.23-39.25,1.31-3.5,3.71-6.27,4.76-9.72-6.97,5.06-12.57,18.35-13.72,26.74-.46,3.34-1.49,18.89-.03,20.99.37.53,3.37,1.63,3.76,1.24ZM918.17,676.56l-27.97-44.96-1.83,14.27c3.16,4.87,7.46,10.74,10.22,15.8,1.43,2.62,5.54,15.11,8.04,15.5l11.54-.62ZM901.19,676.55l-14.98-22.97-1.95,17.93c3.28-.53,14.83,6.6,16.93,5.04ZM918.17,681.57c-5.18-2.32-9.56.6-14.32.61-16.72.02-40.61-15.55-57.41-19.33-8.84-1.99-18.55-2.05-27.2.73-.19,1.48,2.69,1.49,3.78,1.69,5.5,1.01,13.15,1.42,18.23,2.76,21.81,5.73,44.24,23.95,68.92,17.03l7.98-3.49ZM824.98,669.83l-13.72-2.26c-1.15,1.58,5.31,9.75,6.5,11.97,6.38,11.94,12.14,24.4,17.72,36.74l13.73,1.25-24.24-47.7ZM831.24,715.53l-25.97-45.96c-.61,4.64-4.12,7.38-6.9,10.69l.38,2.26c11.01,11.2,13.43,33.92,32.5,33.01ZM853.23,716.54c5.37.36,8.7-10.32,7.47-13.92l-15.91-26.12-14.55-5.93c6.88,15.68,17.9,29.61,22.99,45.97ZM800.26,672.58c-7.17-.81-20.65,26.06-18.97,27.95l4.98,1.03c.29-11.49,6.96-20.57,14-28.97ZM863.23,699.55c8.56-10.97,1.19-19.47-11-20.98l11,20.98ZM811.25,709.53l-14.48-24.97c-1.97,3.72-7,11.99-5.02,15.99,1.19,2.4,18.02,10.14,19.51,8.98ZM875.05,687.71l-3.84-1.15c.07,9.83-7.2,19.01-10.99,27.96,1.77.25,2.83-.15,4.05-1.43.61-.64,7.97-13.57,8.76-15.22,1.5-3.15,2.86-6.58,2.02-10.16ZM846.22,723.54c-6.74-1.63-15.87-1.55-22.24-3.25-4.9-1.3-14.87-5.46-20.54-7.44-16.99-5.93-26.98-11.63-45.99-7.66-6.93,1.45-15.5,2.32-13.14,11.33,5.92-1.1,11.55-4.21,17.59-4.89,24.74-2.77,50.29,15.15,75.84,13.97l8.49-2.07ZM772.28,716.53l-6.99.99c5.43.81,5.12,7.32,8.98,10.01-.77-3.73-2.7-7-1.98-11ZM770.31,748.52v-18.49c0-.5-4.53-8.21-4.97-8.74-3.11-3.73-8.85-4.8-13.03-2.24-.04,5.11,13.41,20.04,16.47,25.51.86,1.53-.29,4.07,1.54,3.95ZM776.31,717.54v23.48c0,2.21-3.06,16.28-3.95,19.04-2.57,8.03-9.3,15.31-11.05,23.92.57,1.12,2.63-1.53,3.03-1.97,10.31-11.38,21-44.08,19.01-59.03-.52-3.91-3.24-5.42-7.04-5.45ZM746.31,720.54v21.49c0,3.25,15.46,19.37,16,24.48,1.5,1.02,5.98-10.99,5.91-12.52-.11-2.63-12.43-16.81-14.33-20.55-.62-1.04-5.25-15.58-7.58-12.9ZM746.28,747.53l-1.99.5c4.27,19.36.28,39.02,1.51,58.46-.02-6.47,5.11-10.1,7.68-15.32.98-2,7.37-16.23,7.4-17.16.18-4.49-7.94-14.27-10.44-18.14-.92-1.42-3.18-7.53-4.16-8.35ZM728.14,963.52l-37.83-9.13.95,139.45c.52,31.22,6.25,84.07,38.11,99.8,5.86,2.89,14.42,5.72,20.26,7.76,5.46,1.91,15.51.86,21.62,1.83-2.97-3.8-7.95-5.56-11.54-8.94-38.05-35.78-31.46-127.79-31.39-176.39.02-12.72-1.03-25.36-.97-37.99.02-3.22,2.25-14.1.79-16.38ZM589.42,1296.16c17.05-12.11,35.01-23.81,47.42-41.01l16.41-15.62c.18-4.92-2.03-8.72-1.95-13.84.12-7.67,2.66-16.05,2.13-23.91l10.92-20.04c-6.55-15.64-7.05-33.25-11.99-49.47l-6.99,50.97-1.98-1.01c-3.1,17.39-7.55,34.62-14.64,50.83-6.12,14-13.08,29.29-22.36,41.6-4.25,5.63-12.3,11.69-15.43,16.55-1,1.55-1.81,3.01-1.54,4.95Z"/>
    <path d="M540.13,836.4c-18.33,19.31-37.29,28.92-59.53,41.9-35.54,20.74-62.96,50.75-74.76,91.13-4.27,14.61-3.68,30.15-6.36,45.1l-5.95.04c2.07-6.38.58-13.71,1.01-20.47,1.9-30.16,14.71-58.3,32.99-81.93,14.33-18.52,39.47-34.55,48.7-56.23,10.3-24.2,12.59-59.4-10.82-76.65-18.96-13.97-48.12-6.5-59.06,13.77-2.74,5.08-3.56,15.67-4.27,16.71-2.42,3.53-4.66-.63-5.28-1.03-5.91-3.82-15.09-22.41-16.2-29.57-4.73-30.23-1.54-70.12,19.5-94.3,12.19-14.02,41.18-32.49,59.9-34.04,8.26-.68,16.29,1.47,24.47,1.99l-1.04-25.53c2.37-23.15,4.04-46.17,10.33-68.62,1.1-3.94,17.08-31.28,20.15-34.81,51.82-59.69,135.74-71.51,180.24-139.54l10.15-17.32c.16,2.66,3.16,3.29,2.87,6.23-.14,1.42-6.74,13.98-8,16.1-19.33,32.31-47.96,49.55-76.73,71.17-50.5,37.94-49.75,72.02-50,130.79-.11,26.68-.76,53.38-.87,79.93-.21,53.8,8.75,122.81-31.45,165.17ZM550.43,518.68c-2.16-.47-2.27,1.06-3.17,2.31-15.56,21.54-21.69,44.77-22.85,71.09-2.7,61.38,4.35,127.22.03,187.91-1.19,16.75-7.71,30.42-13.97,45.48,16.23-19.22,24.6-45.38,26.02-70.41,3.24-56.86-2.64-116.78-.04-173.92.43-9.44,1.46-22.36,3.45-31.52,2.2-10.15,8.57-20.4,10.53-30.94ZM498.46,748.51c-2.18-14.03-4.82-29.68-18.31-37.15-19.38-10.74-43.38-7.58-58.66,8.65-7.49,7.96-14.02,19.51-16.98,29.99,4.35,1.37,5.5-5.04,8.03-7.96,16.47-18.97,43.21-33.64,66.86-16.95,8.83,6.23,12.92,11.49,16.8,21.22.61,1.52-.58,2.7,2.25,2.19Z"/>
    <path d="M852.22,518.65c13.9,7.03,29.38,18.09,31.87,34.6,1.79,11.86-.62,24.01-3.91,35.37-1.44,1.46-1.8-.1-1.98-1.47-.84-6.28,2.33-11.44,1.5-17.5-13.73,22.05-33.64,39.08-48.98,59.95l-.43-2.42-2.05-2.05c2.56-1.51,12.32-14.89,10.98-16.5s-2.62,2.25-3.63,2.82c-3.44,1.93-13.46,3.54-17.35,2.17l-.13,2.82c-5.49,1.94-14.99,1.56-18.9-3.27-.64-.8-5.87-10.18-6.46-11.53-7.58-17.41-1.37-36.52,8.47-51.5,5.89-8.96,14.28-15.86,19.99-24.96-.05-.94-15.37-4.06-17.94-5.01-39.99-14.81-44.38-52.44-34.53-89.46,1.25-4.7,2.6-12.49,7.52-13.95.92,8.76-.04,16.22,7.09,22.4,19.1,16.56,50,16.7,67.86,36.07,11.35,12.31,8.3,29.89,1.01,43.44ZM770.28,454.7c.87.77,13.83-5.33,15.97-6.49-5.5-3.45-9.7-7.17-13.48-12.49l-2.49,18.98ZM808.25,457.72c-5.68-.16-11.76-5.36-17.37-4.97-1.6.11-16.95,5.24-18.88,6.18-.7.34-1.4.49-1.67,1.34l3.49,11.45c9.58-7.08,23.03-7.34,33.03-11.93,1.16-.53,1.81.48,1.41-2.08ZM830.24,468.69c.87-1.13-12.55-6.86-14.39-6.95l-40.55,14.45,7.45,10.37,47.49-17.87ZM845.22,480.68c-1.46-4.12-7.95-9.56-12.24-8.82-12.48,6.84-31.56,9.6-43.42,16.63-1.35.8-2.69,1.18-2.29,3.18l11.93,6.97,1.72-2.76,44.3-15.2ZM832.24,513.68c-18-2.33-44.43-9.63-54.81-25.64-1.85-2.85-2.26-7.33-5.14-9.33,1.04,11.71,10.47,24.98,20.65,30.8,6.34,3.63,32.81,13.07,38.29,7.67,1.22-1.2,1.15-1.87,1.01-3.49ZM796.27,583.63c3.61-2.26,3.8-7.4,5.6-10.88,6.92-13.39,16.94-24.28,26.37-35.59,5.02-6.01,19.55-19.98,22.2-25.77.45-.99,3.63-10.57,3.67-11.15.29-4.39-2.71-11.81-2.89-16.54l-1.21,8.26c-9.63,28.67-38.09,44.38-50.13,71.79-2.76,6.29-4.22,12.97-3.6,19.88ZM845.22,485.7l-43.96,15.97c5.9-.33,8.39,4.41,14.45,4.06,2.19-.13,23.93-6.62,26.26-7.73,3.45-1.63,1.61-8.95,3.25-12.3ZM834.23,510.68c-.76-2.61,2.03-5.39-.49-6.97l-11.5,2.98c.85,2.22,5.35.48,7.29.97,1.28.32,1.34,4.24,4.69,3.02ZM880.19,559.64c.22-6.68-2.04-14.9-6.59-19.89-2.27-2.49-21.37-15.34-24.15-15.85-5.16-.94-4.28,1.13-7.23,4.74,10.9,3.05,23.47,9.95,30.39,19.09,2.94,3.88,4.08,8.68,7.57,11.91ZM852.22,536.67l-13.33-3.9-9.65,9.87,9.25-1.23,13.73-4.74ZM868.21,549.64c1.64-1.38-8.56-8.55-10.3-8.77-7.02,1.89-14.45,4.77-21.41,6.54-2.97.75-6.37.03-9.73,1.26-5.56,2.04-11.1,11.89-15.52,15.95l45.96-13.49,11-1.49ZM872.01,552.85l-60.76,15.8,1.99,1.98c-6.96-1.26-8.09,4.89-10.96,9.51,1.35,2.05,1.55.94,2.77.82,16.68-1.6,34.08-8.53,50.14-12.85,6.91-1.86,14.02-3.06,21.02-4.48l-4.2-10.78ZM873.2,568.64l-72.95,18.47-2.83,2.81c1.26,4.14,2.08,7.38,7.15,7.35,15.35-5.07,32.36-6.74,47.68-11.11,9.97-2.84,19.1-5.95,20.94-17.52ZM856.22,589.63c-3.7.26-6.44,2.4-10.14,3.34-11.55,2.92-25.8,4.6-37.07,7.9-3.12.91-5.7,5.45-9.74,2.75-2.26,2.76,6.63,7.91,8.95,8.52,7.17,1.86,7.02-1.44,12.03-3.02,14.07-4.43,28.6-4.1,35.97-19.48Z"/>
  </g>
</svg>