<?xml version="1.0" encoding="UTF-8"?>
<svg id="Layer_1" data-name="Layer 1" xmlns="http://www.w3.org/2000/svg" viewBox="0 0 1452 1536">
  <path d="M658.55,353.6c-1.35-5.07-2.48-12.55,2.48-16.01,2.49-1.74,6.21-1.46,7.54-2.45,1.43-1.06,1.5-12.69,1.98-15.51-17.55.16-19.44-22.45-1.05-23.02l1.05-36.93c-5.98.11-12.85-.88-15.54-6.95l-1.39-43.55c-4.51-1.72-9.2.43-13.5.57-69.38,2.28-138.58,5.73-207.92,8.91-28.54,1.31-63.19,11.23-83.22-15.62s-3.55-68.78,30.26-71.32c19.25-1.45,38.79,1.4,57.96,2.08,58.44,2.09,116.62,5.35,174.91,7.94,13.59.6,27.29.61,40.79,1.86,2.69-.92,1.5-10.4,2.12-13.89,2.65-14.93,15.21-24.81,29.99-25.97,21.93-1.72,60.08-1.72,82.01,0,21.14,1.66,32.79,18.6,31.43,39.01l113.37-5.04c34.6-1.54,69.35-2.66,104-3.91,30.83-1.12,75.35-12.45,91.56,22.27,16.55,35.45-11.73,68.55-48.67,65.66-86.66-6.15-173.6-8.3-260.25-13.03v42.47c0,.26-2.17,4.03-2.55,4.44-3.35,3.62-8.92,3.12-13.4,3.09l-.03,9.94c17.36-1.01,17.83,21.24.09,22.09l-.11,15.9c9.57-.89,15.5,5.43,12.55,15.04-1.67,5.44-8.5,5.95-12.54,8.44v23.48h46.46c15.78,0,26.87,22.88,38.76,29.19,6.21,3.29,28.8,2.74,37.18,2.85,83.59,1.13,167.67-1.38,251.85-.01l3.45-1.55v-14.99c0-7.3,11.15-19.08,17.66-22.31,8.96-4.43,38.06-4.2,48.83-3.21,20.95,1.92,30.91,21.56,28.5,40.94,21.24-.48,40.81,9.45,42.88,32.56,1.49,16.62,2.58,45.31-8.96,57.96-10.1,11.07-20.27,10.71-34.05,13.05l.06,749.37,1.64,2.36c20.75-2.38,39.34,12.99,41.36,33.58-1.78,28.92,2.25,60.4,0,89.01-1.39,17.72-14.18,31.32-31.62,34.33l-1080.09.15c-16.55-2.08-30.6-17.22-32.31-33.64-3.01-28.87,1.92-62.37-.04-91.72,3.75-21.26,21.91-33.21,42.89-32.56V486.51h-14.49c-7.68,0-20.88-11.65-24.5-18.46-5.19-9.76-5.4-42.4-3.89-53.9,1.37-10.44,11.81-22.76,21.62-26.34,6.84-2.5,13.25-1.98,20.33-2.66,1.62-6.09.61-12.04,2.42-18.57,2.97-10.71,13.11-21,24.24-22.72,7.9-1.23,41.41-1.12,48.2,1.28,8.33,2.95,21.01,15.84,21.01,24.96v15.49l282.26-.02c21.3.81,27.93-31.96,48.98-31.96h35.47ZM776.45,237.69v-104.42c0-3.4-6.98-7.22-10.44-7.54-25.37-2.32-54.24,1.83-79.98.05-3.16-.83-10.49,5.07-10.49,7.49v104.42h100.92ZM653.55,164.74c-79.95-2.29-159.43-8.23-239.3-11-10.66-.37-22.21-2.21-32.99-.99-25.28,2.85-27.95,44.78,3.96,47l268.33-13.02v-21.98ZM798.44,187.73c6.48.23,13.04-.3,19.53-.04,71.27,2.83,142.64,8.39,213.75,11.07,10.9.41,27.9,2.11,38.01.96,27.77-3.14,26.65-43.97,0-46.97-25.46-2.86-56.98,3.69-82.9,4.04l-188.39,7.95v22.98ZM760.47,259.67l-68.95-1v31.98l68.95-16.99v-13.99ZM760.47,312.63v-16.99l-68.95,16.99v16.99l68.95-16.99ZM760.47,334.62c-15.06,3.05-30.14,6.47-44.97,10.48-6.64,1.8-15.63,3.79-21.77,6.25-1.53.61-2.69-.59-2.2,2.25h68.95v-18.99ZM218.89,385.58h50.46c1.02-.75,1.09-.87,1.09-2.04.01-8.46.2-17.06-10.03-17.99-5.11-.47-34.07-.63-37.28.71-5.2,2.16-5.43,14.54-4.23,19.32ZM1233.1,385.58c0-7.81,2.02-19.02-8.43-20.05-5.32-.52-33.73-.61-37.27.82-5.45,2.2-8.27,14.62-4.75,19.23h50.46ZM627.31,374.83c-8.5,1.43-15.83,14.08-22.2,19.77-9.24,8.27-18.77,10.9-31.01,11.95l-388.64.06c-4.66,1.45-7.65,5.41-9.07,9.91-2.13,6.77-2.26,32.58-.22,39.26,1.47,4.81,7.38,9.01,12.33,9.65l1071.11.12c17.91-1.38,17.05-12.67,17.09-27.31.01-5.07.01-16.63-.87-20.96-.94-4.63-6.67-9.94-11.33-10.66l-386.67-.02c-7.84-.94-15.77-2.3-22.75-6.23-9.15-5.15-21.98-24.52-30.26-25.7l-197.51.15ZM270.89,486.46h-52.99v753.27h52.99V486.46ZM670.54,487.5l-378.7.5v194.36l277.12.84c1.14-.29,1.38-1.25,1.89-2.11,3.58-5.99,6.88-21.28,10.02-28.96,19.4-47.52,46.64-28.05,86.23-32.68,1.09-.13,2.22.03,2.98-1.01l.48-6.03c-18.17-.6-18.32-20.46-.95-23.6l.93-14.38c-17.3,1.52-19.5-20.83-1.43-22.92l.45-16.05c-8.5.88-14.69-5.21-12.32-13.81,2.53-9.17,13.31-5.73,13.31-11.67v-22.48ZM691.52,486.51v20.98l68.95-18.5-68.95-2.49ZM1160.15,487.5l-368.71-.99c.08,2.88,3.16,3.77,3.8,6.72,1.79,8.19-4.88,14.06-12.62,14.44l-.15,15.77c17.84-.59,17.77,20.71.06,22.12l-.14,15.32c17.49,1.36,17.6,21.37.03,22.55v35.97h54.46c1.74,0,9.3,2.68,11.38,3.61,21.54,9.63,24.93,38.8,32.25,58.68l1.47,1.53,278.14-.86v-194.86ZM1181.1,486.48v753.48h52V486.48h-52ZM760.47,513.49l-68.85,16.08c-.38,5.29-.98,10.1-.08,15.37.22,1.26-.66,1.88,1.37,1.43l67.56-17.89v-14.99ZM760.47,551.46l-68.95,17.49v15.49l68.95-18.49v-14.49ZM760.47,589.43l-67.97,16.47c-2.13,1.61-.46,10.51-.98,13.51h68.95v-29.98ZM858.39,682.35c-7.38-15.05-7.19-42.07-29.43-42.01l-212.82,1.09c-10.95,3.26-14.05,14.91-17.56,24.41-1.89,5.12-4.16,10.62-5.01,16l264.82.5ZM1160.15,704.34H291.84v73.95h868.32v-73.95ZM291.84,800.27v439.71h868.32v-439.71H291.84ZM190.68,1261.19c-12.67,2.26-15.04,9.52-15.8,21.18-1.27,19.66-1.45,51.53-.03,70.99.73,10.05,3.79,21.08,15.54,22.52,6.32.77,16.24.08,23,.03,347.85-2.4,696.47.67,1046.22-.02,8.34-.39,15-6.37,16.47-14.51-2.71-26.86,3.58-60.87-.11-86.87-1.07-7.55-8.16-12.65-15.4-13.58l-1069.9.26Z"/>
</svg>