<?xml version="1.0" encoding="UTF-8"?>
<svg id="Layer_1" xmlns="http://www.w3.org/2000/svg" version="1.1" viewBox="0 0 288 253.93">
  <!-- Generator: Adobe Illustrator 30.0.0, SVG Export Plug-In . SVG Version: 2.1.1 Build 123)  -->
  <defs>
    <style>
      .st0 {
        fill: #f5f3ed;
      }
    </style>
  </defs>
  <path class="st0" d="M238.99,42.03c2.29-3.19-2.13-6.17-2.16-7.53s3.76-3.43,5-4.03c4.62-2.23,26.58-10.54,30.85-10.96,8.03-.79,9.65,9.28,4,12.48-4.69,2.65-27.51,9.71-33.02,10.48-1.78.25-2.99.12-4.67-.44Z"/>
  <path class="st0" d="M143.6,68.11l89.72-30.9c3.51-1.82,5.02,3.25,2.48,4.74l-89.44,30.34-2.6-.29-.16-3.89Z"/>
  <path class="st0" d="M138.42,52.21v.83c-1.15,3.6-10.59,1.33-13.31.32-7.97-2.96-11.42-13.05-10.99-20.92,7.44-.34,14.62,2.35,18.38,9.02,1.48,2.62,2.61,8.42,3.7,9.86.6.8,1.28.95,2.22.89ZM136.16,53.33c-.52-1.51-8.2-10.81-9.61-9.59l7.3,8.79,2.3.8Z"/>
  <path class="st0" d="M139.55,55.59c-.85-1.13,9.86-8.77,11.86-8.47.14-1.03-1.18-.47-1.72-.31-4.08,1.15-7.51,3.89-10.7,6.53,2.84-10.99,15.68-18.04,25.97-12.1-4.11,10.62-13.71,17.64-25.41,14.36Z"/>
  <path class="st0" d="M61.5,81.65l.08,5.57-8.24-.53.3-4.83c2.44-1.12,5.36-1.27,7.86-.21Z"/>
  <path class="st0" d="M98.31,68.59l-.57,5.08h-7.35s.03-5.03.03-5.03c2.53-.98,5.33-.85,7.89-.05Z"/>
  <path class="st0" d="M62.14,67.45c1.11,3.38-8.1,8.29-9.6,6.78v-2.82c3.81.49,6.32-2.8,9.6-3.95Z"/>
  <path class="st0" d="M216.95,66.32c1.68,3.52-8.64,6.63-9.6,5.65l.03-2.8c1.79-.23,3.79-.45,5.51-.99,1.63-.51,2.53-1.54,4.06-1.86Z"/>
  <path class="st0" d="M51.97,86.65l-4.25-1.68-.27-5.66c4.75,1.41,5.21,2.55,4.51,7.34Z"/>
  <path class="st0" d="M52.54,77.05c-1.31-1.21,4.59-2.55,5.29-2.89,1.55-.74,2.84-1.88,4.3-2.75.49,5.16-5.38,6.93-9.6,5.64Z"/>
  <path class="st0" d="M67.22,78.75c.4,3.77.15,6.32-3.95,7.34-1.1-4.13-.32-6.35,3.95-7.34Z"/>
  <path class="st0" d="M98.3,58.42c1.37,3.2-7.62,8.06-8.46,5.36-.7-2.23,2.21-1.78,3.34-2.29,1.65-.75,3.5-2.17,5.12-3.07Z"/>
  <path class="st0" d="M89.26,73.66c-2.67-1.57-5.65-4.2-3.11-7.33l3.02,2.05.08,5.27Z"/>
  <path class="st0" d="M98.3,56.16c.11.11.19,1.3-.35,1.73-.94.74-7.39,4.09-8.12,3.35l.06-2.19c1.9.49,7.33-3.97,8.41-2.88Z"/>
  <path class="st0" d="M102.82,66.32l-.12,4.97-3.84,1.8c1.29-1.48-.21-4.03.52-5.23l3.43-1.54Z"/>
  <g>
    <path d="M64.4,74.51c.3.99,1.62.84,2.4.74,5.02-.65,11.43-4.96,16.76-5.6-.5-4.24,1.58-5.02,4.49-7.09l.37-8.1c1.12-2.35,9.18-2.36,10.72-.54,1.69,2,.77,8.1,1.55,9.47.12.21,1.79.86,2.35,1.32.74.6,1.15,1.84,1.86,2.09,1.92.67,9.59-.02,12.36.07,2.02.06,4.04,1.01,6.2.59,1.29-.25,1.78-2.01,3.26-2.95,3.82-2.43,8.88-.38,8.88-7.21-9.32-.24-19.67-4.29-22.39-14.12-.26-.93.33-1.9.2-2.16-.05-.09-.89-.07-.98-.47-.33-1.53-.69-7.97.11-9.1,11.2-3.02,22.73,5.24,25.31,16.25,7.19-9.71,18.52-14.3,29.68-7.91,1.34,2.14-4.49,10.38-6.18,12.21-6.06,6.53-14.16,8.07-22.59,5.37l-2.59,4.73,8.16,3.14,89.43-30.35c1.36-1.33,1.59-2.8,3.26-4.13,3.36-2.68,28.69-11.75,33.58-12.74,6.24-1.27,10.76.6,11.36,7.34.66,7.42-2.27,8.19-8.21,10.49-6.44,2.49-24.58,8.63-30.79,9.36-2.26.27-4.17-.72-6.26-1.2l-71.15,24.02,39.55,2.25c.24-2.14-.69-6.31.85-7.9,1-1.03,6.35-1.86,7.9-1.73,7.49.63,3.69,8.67,5.13,9.69,4.83,1.39,20.99-.1,23.99,3.59,2.3,2.82,1.93,13.34-.33,16.09-.97,1.18-4.01,2.62-5.53,3.51-2.1,1.23-14.14,6.86-14.38,8.15,1.62,10.44.82,21.04.98,31.58.02,1.48.61,2.87.63,4.47.1,9.7-.03,19.42-.61,29.11,10.17.48,21.55-2.72,20.34,11.57-.42,4.97-1.9,6.72-5.38,9.87-2.95,2.67-12.25,8.21-13.86,10.43-1.12,1.53-1.02,6.36-2.1,8.63-2.34,4.87-9.36,5.7-13.84,3.63-7.22,4.39-15.64,14.5-24.11,16.04-5.44.99-11.9-.28-17.45.35-5.14,15.53-24.28,14.43-27.56-1.82l-38.3-2.26c-4.38,18.21-22.54,15.08-27.3-1.11-8.63-.78-17.26-1.98-25.88-2.8-7.3-.7-16.77-.29-23.67-1.75-7.18-1.52-8.05-9.65-6.3-15.78,1.14-3.97,3.88-5.52,7.27-7.41,7.01-3.93,15.24-6.39,21.8-11.01-.94-5.75-.36-11.62-.49-17.43-.03-1.34-.59-2.57-.61-3.91-.28-16.18,0-32.44.6-48.54-9.19-1.19-18.74-.24-27.68-2.88-3.17-5.18-4.09-18.03,1.85-21.27l24.07-7.84c-.63-3.87,2.25-5.76,5.71-6.17-1.23-2.33-.36-4.7-.13-7.06.16-1.62-1.2-2.4,1.06-4.15,3.39-2.62,9.82-2.03,12.63,1.33v9.03ZM238.99,42.03c1.67.56,2.89.69,4.67.44,5.52-.77,28.34-7.83,33.02-10.48,5.65-3.19,4.02-13.27-4-12.48-4.27.42-26.23,8.73-30.85,10.96-1.24.6-5.02,2.71-5,4.03s4.45,4.34,2.16,7.53ZM138.42,52.21c-.94.05-1.62-.1-2.22-.89-1.09-1.44-2.22-7.24-3.7-9.86-3.76-6.67-10.94-9.36-18.38-9.02-.43,7.88,3.02,17.97,10.99,20.92,2.72,1.01,12.15,3.28,13.3-.32v-.83ZM143.6,68.11l.16,3.89,2.6.29,89.44-30.34c2.54-1.49,1.04-6.56-2.48-4.74l-89.72,30.9ZM139.55,55.59c11.7,3.29,21.3-3.74,25.41-14.36-10.28-5.94-23.13,1.11-25.97,12.1,3.18-2.65,6.61-5.38,10.7-6.53.55-.15,1.87-.72,1.72.31-2-.3-12.71,7.34-11.86,8.47ZM97.74,54.47c-2.28-.23-5.39-1.57-7.33.28,0,1.16,5.52.97,6.5.85.78-.1,1.67-.33.84-1.12ZM93.22,56.16l-3.39-.57v2.26c.21.22,4.15-.05,3.39-1.69ZM98.3,56.16c-1.08-1.09-6.5,3.37-8.41,2.88l-.06,2.19c.72.75,7.18-2.61,8.12-3.35.54-.43.46-1.62.35-1.73ZM98.3,58.42c-1.62.9-3.47,2.32-5.12,3.07-1.13.51-4.04.06-3.34,2.29.85,2.7,9.84-2.16,8.46-5.36ZM98.3,62.37l-5.08,2.81c2.36.15,5.3.42,5.08-2.81ZM216.39,64.06c-2.3-3.05-6.05-.87-9.04-1.12.52,3.13,6.81,1.5,9.04,1.12ZM53.1,65.75c2.57.31,6.23,1.55,8.46-.28-.02-1.52-7.84-1.55-8.46.28ZM130.23,67.45c2.38.33,5.92,0,8.48,0,.59,0,2.89-1.81,2.54.56-4.91,1.51-9.53,1.27-14.35-.49-1.06.25-2.37,5.01-2.75,6.27-1.7,5.6-3.5,7.75,3.4,9.32,3.36.77,17.53,1.32,18.69-2.51.34-1.12-.37-5.06-.98-6.01-.49-.75-1.62-.54-2.17-1.07-1.39-1.36-2.14-5.18-.74-6.86-.2-1-4.99-2.21-5.81-2.08-.42.07-1.04,2.66-3.19,1.73,1.96-3.43-3.68-.44-5.08-.55-.51,1.14,1.4,1.61,1.98,1.69ZM91.53,66.32c-4.19-1.36-6.43-1.03-.84,1.13l.84-1.13ZM215.83,65.2l-8.22.13-.81,2.38c.41,1.55,6.19-.45,7.35-1.09.63-.35,1.54-.61,1.67-1.43ZM59.31,66.89c-2.19,1.2-4.63.24-6.77-.56v3.95c1.29.76,7.85-2.12,6.77-3.39ZM89.26,73.66l-.08-5.27-3.02-2.05c-2.54,3.13.44,5.76,3.11,7.33ZM99.43,66.33c-1.05-.15-1.96,0-2.26,1.12,1.05.15,1.96,0,2.26-1.12ZM102.82,66.32l-3.43,1.54c-.73,1.2.77,3.75-.52,5.23l3.84-1.8.12-4.97ZM216.95,66.32c-1.53.32-2.44,1.35-4.06,1.86-1.72.54-3.72.76-5.51.99l-.03,2.8c.97.98,11.29-2.13,9.6-5.65ZM62.14,67.45c-3.29,1.15-5.8,4.44-9.6,3.95v2.82c1.5,1.51,10.71-3.4,9.6-6.78ZM98.31,68.59c-2.56-.79-5.36-.92-7.89.05l-.03,5.02h7.35s.57-5.08.57-5.08ZM123.16,69.14h-17.23c-.17,0-.79-.78-1.41-.56.88,3.79-2.4,5.69-5.53,6.61-5.28,1.57-11.35.19-15.63-3.2l-15.01,5.06c.69,1.84,1.05,6.17.28,7.89-.99,2.2-7.15,4.35-9.58,4.55-4.68.38-12.31-.79-14.16-5.68-4.55,2.52-20.81,5.4-23.69,8.51-2.46,2.67-2.78,15.23.25,16.63,1.17.54,8.59,1.25,10.46,1.4,2.62.21,5.31-.19,7.93-.02,32.88,2.12,65.92,2.75,98.88,3.95,14.62.53,29.41,2.43,44.05,1.96,5.79-.19,9.46-1.98,14.61-4.28,9.35-4.18,19.95-10.07,28.99-15.07,3.64-2.02,11.15-5.59,13.95-8.09,2.07-1.84,2.89-11.71.93-13.76-.79-.82-5.97-1.21-7.64-1.4s-11.01-.96-11.58-.56c4.27,6.68-1.77,11.22-8.2,11.84-8.69.85-17.52-2.19-12.7-12.41l-13.82-1.16c-13.32,1.07-27.42-3.79-39.6,3.38,2.8,7.4-.78,10.05-7.89,10.75-3.43.34-17.15-.05-18.92-3.24s2.76-12.68,2.26-13.13ZM216.95,70.28l-7.9,2.81c2.8-.26,7.75,1.29,7.9-2.81ZM52.54,77.05c4.21,1.29,10.09-.48,9.6-5.64-1.46.87-2.75,2.01-4.3,2.75-.7.34-6.6,1.68-5.29,2.89ZM205.85,73.43c-.23-.14-.14-.9-.45-.87-.47.05-2.46.91-2.57,1.66,1.93-.14,3.76,2.14,5.33,2.19,1.01.04,2.53-.54,4-.54,3.48,0,4.98,1.3,8.17-1.93l-1.4-1.4c-2.39,4.16-9.48,3.16-13.08.89ZM59.32,77.61c1.43.22,2.92-.74,2.82-2.25-.78.79-2.42,1.3-2.82,2.25ZM206.71,76.56l-4.44-1.2c-.5,4.51-.02,5.19,3.67,7.34l.77-6.13ZM221.47,75.36c-4.5.06-4.56,2.99-4.51,6.77,3.81-1.27,5.24-2.49,4.51-6.77ZM57.62,79.87c3.64.71,5.62.6,8.46-1.97-2.64-2.57-2.03-.49-2.96.13-1.09.72-4.73.23-5.5,1.84ZM215.75,77.7c-2.42-.98-5.32-.97-7.76,0l-.64,5,7.94-.24.45-4.75ZM56.49,79.32c-1.68.29-6.92-3.14-7.9-.85,1.38.08,3.71,2.33,4.79,2.34.17,0,3.12-.88,3.11-1.49ZM67.22,78.75c-4.27.99-5.05,3.21-3.95,7.34,4.1-1.01,4.35-3.56,3.95-7.34ZM51.97,86.65c.7-4.79.24-5.93-4.51-7.34l.27,5.66,4.25,1.68ZM61.5,81.65c-2.5-1.06-5.42-.9-7.86.21l-.3,4.83,8.24.53-.08-5.57ZM219.22,171.92c1.18-.34,1.24-1.74,1.52-2.71.82-2.87,1.17-7.99,1.33-11.1.68-13.67.19-33.16-.57-46.92-.1-1.75-.32-5.19-.59-6.75-.13-.78-.49-1.5-1.41-1.42l-.28,68.9ZM207.35,109.24c-.31,2.61,3.46.81,4.9.09.98-.49,5.25-3.19,4.13-4.62l-9.03,4.53ZM207.92,116.58c4.09-1.35,10.66-2.91,8.47-8.47-2.65,2.15-5.53,3.09-8.8,3.91l.34,4.56ZM187.29,118.84c-3.75.58-8.8-.43-12.71,0,1.11,11.56,1.52,23.14,1.72,34.75s.68,24.36,0,36.14c-.05.93-.84,7.05-1.44,7.04.28-11.55.4-23.17.31-34.76-.05-5.8-.94-11.64,0-17.51l-1.72-25.66c-22.68-2.15-45.37-1.88-68.1-2.81-13.37-.54-26.79-2.1-40.07-2.3-5.06-.08-10.13.12-15.18,0-.6.14-.81,1.49-.88,2.04-1.24,10.09-.14,25.47-.03,36.12.11,11.29-.39,23.56,1.15,34.94.78,5.77,5.02,6.34,9.91,7.04,7.11,1.01,15.33,1.7,22.53,2.32,24.51,2.13,51.7,3.89,76.25,4.55,14.29.38,17.24-.57,29.08-7.7,2.11-1.27,16.58-10.38,16.91-11.34.31-4.86-.07-9.75.07-14.61.45-15.75.59-31.87.3-47.39-.05-2.88-.52-5.85-.28-8.77-.65-.72-14.96,7.46-17.8,7.9ZM216.39,114.32c-2.9.79-5.24,3.28-8.47,2.82v5.08c4.88-.1,9.76-2.19,8.47-7.9ZM207.35,123.36c.81,1.57.84,3.22.08,4.82.17,1.54,4.49-.31,5.39-.77,3.45-1.75,4.02-2.87,3.56-6.88-2.84,1.43-5.68,3.24-9.03,2.83ZM207.92,135.21c4.88-1.14,9.98-2.28,8.47-8.47-2.68,1.31-5.32,3.1-8.47,2.83v5.64ZM216.96,133.52c-3.17.38-5.65,2.92-9.04,2.25v5.09c2.05.42,7.78-1.22,8.37-3.22l.68-4.12ZM216.96,139.74l-9.04,2.26v6.21c2.49-.51,6.65-1.55,8.3-3.56,1.24-1.51-.43-3.27.74-4.91ZM216.96,146.51l-8.5,2.51-.54,5.39c5.29-.11,9.13-2.25,9.04-7.9ZM216.95,152.72c-2.9,1.23-5.72,3.06-9.03,2.82v5.64c5.11-.21,10.08-2.55,9.03-8.47ZM216.95,159.5c-3.02,1.47-5.47,2.8-9.04,2.25v6.22c5.22-.46,10.39-2.19,9.04-8.47ZM216.95,166.27c-3.03,1.2-5.53,2.79-9.04,2.25v5.65c4.5.04,10.26-2.55,9.04-7.9ZM240.58,184.23c.36-3.08,2.41-11.23-.15-13.48-2.35-2.06-13.47-1.46-16.89-1.69-.38,2.43-3.55,5.07-4.07,6.77-1.08,3.48,1.42,7.27-2.32,9.54-3.54,2.15-8.53,1.61-11.67-.97-10.04,5.69-22.84,17.67-34.55,18.59-14.57,1.15-31.62-1.47-46.36-2.27-20.41-1.11-41.25-1.19-61.51-4.03-7.55-1.06-14.44-1.12-15.9-10.1-4.97,3.8-23.37,9.33-25.82,14.29-1.34,2.73-1.59,11.56.91,13.44.7.53,3.99.93,5.15,1.07,39.4,4.79,80.65,5.9,120.37,7.89,15.01.75,32.22,5.34,45.3-3.24,14.72-9.66,31.55-23.6,45.39-34.84.62-.51,1.46-.58,2.13-.97ZM216.95,172.48c-1.52.19-2.44,1.44-3.96,1.97s-3.45.65-5.05.88c-.1,2.44-.64,4.13,2.35,3.81,3.43-.37,7.7-2.6,6.65-6.66ZM216.95,178.13c-3.05.9-5.06,2.85-8.48,1.93-1.61,1.59-.89,4.86,1.83,4.16,2.16-.56,7.98-3.13,6.65-6.09ZM211.87,209.75c5.36.66,9.6-2.33,9.6-7.9-.31-.41-7.82,5.44-8.42,5.98-.63.57-1.42.83-1.18,1.92ZM98.28,223.33c-.61-.88-18.94-1.26-21.45-1.16,3.46,11.69,19.05,15.35,21.45,1.16ZM164.41,227.26l-21.47-1.7c1,12.57,18.29,13.5,21.47,1.7Z"/>
    <g>
      <path class="st0" d="M123.16,69.14c.5.45-4.07,9.87-2.26,13.13s15.49,3.58,18.92,3.24c7.11-.7,10.68-3.35,7.89-10.75,12.18-7.18,26.28-2.31,39.6-3.38l13.82,1.16c-4.82,10.22,4.01,13.25,12.7,12.41,6.44-.63,12.48-5.16,8.2-11.84.57-.39,9.94.38,11.58.56s6.85.58,7.64,1.4c1.96,2.04,1.13,11.91-.93,13.76-2.8,2.5-10.3,6.07-13.95,8.09-9.04,5-19.64,10.89-28.99,15.07-5.15,2.3-8.82,4.09-14.61,4.28-14.63.47-29.43-1.43-44.05-1.96-32.96-1.2-66-1.83-98.88-3.95-2.62-.17-5.31.23-7.93.02-1.87-.15-9.29-.86-10.46-1.4-3.02-1.4-2.71-13.96-.25-16.63,2.88-3.12,19.14-6,23.69-8.51,1.84,4.89,9.48,6.06,14.16,5.68,2.42-.2,8.58-2.34,9.58-4.55.77-1.72.41-6.05-.28-7.89l15.01-5.06c4.29,3.39,10.35,4.77,15.63,3.2,3.13-.93,6.41-2.82,5.53-6.61.62-.22,1.24.56,1.41.56h17.23ZM238.99,75.93c-6,1.32-11.66,5.19-17.31,7.82-9.25,4.32-21.03,8.34-29.6,13.36-.73.43-1.43-.1-1.11,1.4l48.02-22.58ZM183.62,99.08l-158.76-6.78c-.97.73.07,1.02.84,1.12,12.17,1.58,27.02.59,39.58,1.11,35.97,1.5,71.93,3.81,107.87,5.13,2.71.1,5.79.09,8.5-.02.69-.03,2.1.43,1.97-.56ZM188.14,113.19v-8.75c0-.34-.79-1.27-.57-1.97h-.56s0,10.73,0,10.73h1.13Z"/>
      <path class="st0" d="M130.23,67.45c-.57-.08-2.48-.55-1.98-1.69,1.4.11,7.05-2.87,5.08.55,2.15.93,2.77-1.66,3.19-1.73.82-.13,5.61,1.08,5.81,2.08-1.4,1.68-.65,5.51.74,6.86.55.53,1.68.32,2.17,1.07.61.94,1.32,4.88.98,6.01-1.16,3.83-15.33,3.28-18.69,2.51-6.9-1.58-5.1-3.72-3.4-9.32.38-1.26,1.7-6.03,2.75-6.27,4.82,1.76,9.44,2,14.35.49.35-2.37-1.95-.56-2.54-.56-2.56,0-6.1.33-8.48,0Z"/>
      <path d="M183.62,99.08c.13.99-1.28.53-1.97.56-2.71.11-5.79.12-8.5.02-35.94-1.32-71.9-3.63-107.87-5.13-12.56-.52-27.41.46-39.58-1.11-.77-.1-1.81-.39-.84-1.12l158.76,6.78Z"/>
      <g>
        <path class="st0" d="M215.75,77.7l-.45,4.75-7.94.24.64-5c2.43-.97,5.33-.98,7.76,0Z"/>
        <path class="st0" d="M206.71,76.56l-.77,6.13c-3.7-2.14-4.18-2.82-3.67-7.34l4.44,1.2Z"/>
        <path class="st0" d="M205.85,73.43c3.61,2.27,10.69,3.27,13.08-.89l1.4,1.4c-3.19,3.22-4.7,1.94-8.17,1.93-1.47,0-2.99.58-4,.54-1.58-.06-3.41-2.33-5.33-2.19.11-.75,2.1-1.62,2.57-1.66.31-.03.22.73.45.87Z"/>
        <path class="st0" d="M221.47,75.36c.72,4.28-.7,5.5-4.51,6.77-.04-3.78,0-6.71,4.51-6.77Z"/>
        <path d="M238.99,75.93l-48.02,22.58c-.32-1.5.38-.97,1.11-1.4,8.57-5.02,20.35-9.04,29.6-13.36,5.65-2.63,11.32-6.5,17.31-7.82Z"/>
      </g>
    </g>
    <path d="M188.14,113.19h-1.13v-10.73h.56c-.22.7.57,1.64.57,1.98v8.75Z"/>
    <g>
      <path class="st0" d="M187.29,118.84c2.83-.44,17.14-8.63,17.8-7.9-.25,2.92.22,5.89.28,8.77.29,15.52.15,31.65-.3,47.39-.14,4.86.24,9.75-.07,14.61-.33.96-14.79,10.07-16.91,11.34-11.83,7.12-14.79,8.08-29.08,7.7-24.55-.66-51.73-2.42-76.25-4.55-7.21-.63-15.42-1.31-22.53-2.32-4.89-.7-9.13-1.27-9.91-7.04-1.54-11.38-1.04-23.65-1.15-34.94-.11-10.65-1.21-26.03.03-36.12.07-.55.28-1.9.88-2.04,5.06.12,10.13-.08,15.18,0,13.28.2,26.71,1.76,40.07,2.3,22.73.92,45.43.65,68.1,2.81l1.72,25.66c-.94,5.86-.04,11.71,0,17.51.09,11.58-.03,23.21-.31,34.76.6.01,1.38-6.11,1.44-7.04.68-11.78.2-24.5,0-36.14s-.61-23.19-1.72-34.75c3.91-.43,8.96.58,12.71,0ZM81.14,143.3c-7.32.44-6.45,11.87,1,11.11,6.11-.62,5.9-11.52-1-11.11ZM137.14,144.95c-5.57,1.01-5.72,10.15,1,10.63,8.25.59,7.23-12.11-1-10.63ZM115.96,156.82c-.52.63-.28,2.03-1.54,3.25-2.33,2.27-6.82,2.13-9.32.26-1.14-.86-3.09-5.78-4.55-3.9s2.42,5.77,4.04,6.66c6.1,3.34,12.24.88,14.54-5.49-.4-1.3-2.24-1.91-3.17-.78Z"/>
      <path class="st0" d="M219.22,171.92l.28-68.9c.91-.08,1.27.64,1.41,1.42.27,1.56.49,5,.59,6.75.76,13.76,1.25,33.25.57,46.92-.15,3.11-.5,8.22-1.33,11.1-.28.97-.34,2.37-1.52,2.71Z"/>
      <path class="st0" d="M216.95,159.5c1.35,6.28-3.82,8.01-9.03,8.47v-6.22c3.56.55,6.01-.78,9.03-2.25Z"/>
      <path class="st0" d="M216.95,152.72c1.05,5.91-3.93,8.26-9.03,8.47v-5.64c3.31.24,6.13-1.6,9.03-2.82Z"/>
      <path class="st0" d="M216.96,139.74c-1.17,1.64.51,3.4-.74,4.91-1.66,2.01-5.81,3.04-8.3,3.56v-6.21s9.04-2.26,9.04-2.26Z"/>
      <path class="st0" d="M216.95,166.27c1.22,5.35-4.54,7.94-9.04,7.9v-5.65c3.5.53,6.01-1.05,9.04-2.25Z"/>
      <path class="st0" d="M216.96,146.51c.09,5.65-3.75,7.8-9.04,7.9l.54-5.39,8.5-2.51Z"/>
      <path class="st0" d="M216.96,133.52l-.68,4.12c-.59,2-6.32,3.64-8.37,3.22v-5.09c3.39.67,5.87-1.87,9.04-2.25Z"/>
      <path class="st0" d="M216.95,172.48c1.05,4.06-3.22,6.28-6.65,6.66-2.99.33-2.45-1.37-2.35-3.81,1.6-.23,3.53-.35,5.05-.88s2.44-1.78,3.96-1.97Z"/>
      <path class="st0" d="M211.87,209.75c-.24-1.09.55-1.35,1.18-1.92.59-.54,8.1-6.39,8.42-5.98,0,5.58-4.24,8.57-9.6,7.9Z"/>
      <path class="st0" d="M216.95,178.13c1.33,2.96-4.49,5.53-6.65,6.09-2.72.7-3.45-2.56-1.83-4.16,3.42.92,5.42-1.03,8.48-1.93Z"/>
      <path d="M137.14,144.95c8.23-1.49,9.25,11.21,1,10.63-6.72-.48-6.57-9.62-1-10.63Z"/>
      <path d="M81.14,143.3c6.91-.42,7.12,10.48,1,11.11-7.45.76-8.33-10.66-1-11.11Z"/>
      <path d="M115.96,156.82c.93-1.13,2.77-.52,3.17.78-2.3,6.37-8.44,8.83-14.54,5.49-1.62-.89-5.54-4.73-4.04-6.66s3.41,3.04,4.55,3.9c2.5,1.87,6.99,2.01,9.32-.26,1.26-1.22,1.02-2.62,1.54-3.25Z"/>
      <g>
        <path class="st0" d="M240.58,184.23c-.67.39-1.5.46-2.13.97-13.83,11.24-30.66,25.18-45.39,34.84-13.08,8.58-30.29,3.99-45.3,3.24-39.71-1.99-80.96-3.1-120.37-7.89-1.15-.14-4.44-.54-5.15-1.07-2.5-1.88-2.26-10.72-.91-13.44,2.45-4.96,20.85-10.49,25.82-14.29,1.46,8.98,8.35,9.05,15.9,10.1,20.27,2.84,41.1,2.92,61.51,4.03,14.74.8,31.78,3.42,46.36,2.27,11.71-.92,24.52-12.9,34.55-18.59,3.14,2.58,8.13,3.13,11.67.97,3.74-2.27,1.24-6.06,2.32-9.54.53-1.7,3.7-4.34,4.07-6.77,3.42.23,14.54-.37,16.89,1.69,2.56,2.25.51,10.4.15,13.48ZM239.56,171.92l-51.42,36.69c.95.2,1.49-.49,2.2-.9,13.48-7.73,34.18-22.8,46.34-32.74,1.04-.85,2.19-1.9,2.87-3.05ZM184.18,209.76c-18.72-.27-37.49-1.79-56.19-2.85-22.26-1.27-44.42-2.49-66.69-3.94l-37.58-2.81c1.99,2.84,6.7,1.42,9.88,1.69,24.26,2.08,48.6,3.62,72.89,5.08,21.76,1.31,45.01,3.5,66.65,3.97,2.33.05,5.07.14,7.36-.03.76-.06,3.42-.28,3.68-1.12ZM186.44,221.89c.4-2.53,0-6.81,0-9.6,0-.1-.76-.89-1.13-.85v11.86c.49.22,1.05-.93,1.13-1.41Z"/>
        <path class="st0" d="M98.28,223.33c-2.4,14.19-17.99,10.53-21.45-1.16,2.51-.11,20.84.27,21.45,1.16Z"/>
        <path class="st0" d="M164.41,227.26c-3.18,11.8-20.46,10.87-21.47-1.7l21.47,1.7Z"/>
        <path d="M184.18,209.76c-.26.84-2.92,1.06-3.68,1.12-2.29.18-5.03.08-7.36.03-21.65-.47-44.9-2.66-66.65-3.97-24.28-1.46-48.62-3-72.89-5.08-3.19-.27-7.9,1.14-9.88-1.69l37.58,2.81c22.26,1.44,44.43,2.67,66.69,3.94,18.7,1.07,37.48,2.58,56.19,2.85Z"/>
      </g>
      <path d="M239.56,171.92c-.68,1.16-1.84,2.21-2.87,3.05-12.17,9.94-32.86,25.01-46.34,32.74-.71.41-1.25,1.09-2.2.9l51.42-36.69Z"/>
      <path d="M186.44,221.89c-.08.48-.64,1.64-1.13,1.41v-11.86c.37-.04,1.13.75,1.13.85,0,2.79.4,7.06,0,9.6Z"/>
    </g>
    <g>
      <path class="st0" d="M207.92,135.21v-5.64c3.15.27,5.79-1.52,8.47-2.83,1.52,6.18-3.58,7.33-8.47,8.47Z"/>
      <path class="st0" d="M207.35,123.36c3.36.41,6.19-1.4,9.03-2.83.46,4.01-.11,5.13-3.56,6.88-.89.45-5.22,2.3-5.39.77.76-1.6.73-3.25-.08-4.82Z"/>
      <path class="st0" d="M216.39,114.32c1.29,5.71-3.6,7.8-8.47,7.9v-5.08c3.23.45,5.58-2.04,8.47-2.82Z"/>
      <path class="st0" d="M207.92,116.58l-.34-4.56c3.27-.82,6.15-1.76,8.8-3.91,2.19,5.56-4.38,7.12-8.47,8.47Z"/>
      <path class="st0" d="M207.35,109.24l9.03-4.53c1.12,1.43-3.15,4.13-4.13,4.62-1.44.72-5.21,2.51-4.9-.09Z"/>
    </g>
  </g>
  <path class="st0" d="M215.83,65.2c-.14.81-1.04,1.08-1.67,1.43-1.16.64-6.94,2.64-7.35,1.09l.81-2.38,8.22-.13Z"/>
  <path class="st0" d="M59.31,66.89c1.08,1.27-5.48,4.15-6.77,3.39v-3.95c2.14.8,4.59,1.76,6.77.56Z"/>
  <path class="st0" d="M216.39,64.06c-2.23.38-8.52,2.01-9.04-1.12,2.99.25,6.74-1.93,9.04,1.12Z"/>
  <path class="st0" d="M57.62,79.87c.77-1.61,4.41-1.12,5.5-1.84.93-.61.32-2.69,2.96-.13-2.84,2.57-4.82,2.68-8.46,1.97Z"/>
  <path class="st0" d="M53.1,65.75c.62-1.83,8.45-1.79,8.46-.28-2.24,1.83-5.89.59-8.46.28Z"/>
  <path class="st0" d="M56.49,79.32c0,.61-2.94,1.49-3.11,1.49-1.08,0-3.41-2.26-4.79-2.34.98-2.29,6.22,1.14,7.9.85Z"/>
  <path class="st0" d="M97.74,54.47c.84.79-.06,1.03-.84,1.12-.97.12-6.5.31-6.5-.85,1.94-1.85,5.06-.51,7.33-.28Z"/>
  <path class="st0" d="M216.95,70.28c-.16,4.1-5.1,2.56-7.9,2.81l7.9-2.81Z"/>
  <path class="st0" d="M98.3,62.37c.22,3.23-2.72,2.97-5.08,2.81l5.08-2.81Z"/>
  <path class="st0" d="M93.22,56.16c.76,1.64-3.18,1.91-3.39,1.69v-2.26s3.39.57,3.39.57Z"/>
  <path class="st0" d="M91.53,66.32l-.84,1.13c-5.59-2.15-3.35-2.48.84-1.13Z"/>
  <path class="st0" d="M59.32,77.61c.4-.96,2.04-1.47,2.82-2.25.11,1.51-1.38,2.47-2.82,2.25Z"/>
  <path class="st0" d="M99.43,66.33c-.3,1.12-1.21,1.27-2.26,1.12.3-1.12,1.21-1.27,2.26-1.12Z"/>
  <path d="M136.16,53.33l-2.3-.8-7.3-8.79c1.4-1.22,9.08,8.08,9.61,9.59Z"/>
</svg>